SplineFontDB: 3.2
FontName: Kinnari
FullName: Kinnari
FamilyName: Kinnari
Weight: Regular
Copyright: Copyright (C) 1999 Db Type. All Rights Reserved.\nCopyright (C) 2007 National Electronics and Computer Technology Center. All Rights Reserved.
Version: 003.003
ItalicAngle: 0
UnderlinePosition: -70
UnderlineWidth: 25
Ascent: 800
Descent: 200
InvalidEm: 0
LayerCount: 3
Layer: 0 0 "Back" 1
Layer: 1 0 "Fore" 0
Layer: 2 1 "Quad" 0
FSType: 0
OS2Version: 4
OS2_WeightWidthSlopeOnly: 0
OS2_UseTypoMetrics: 1
CreationTime: 1136287438
ModificationTime: 1781958726
PfmFamily: 17
TTFWeight: 400
TTFWidth: 5
LineGap: 0
VLineGap: 0
Panose: 0 0 0 0 0 0 0 0 0 0
OS2TypoAscent: 1286
OS2TypoAOffset: 0
OS2TypoDescent: -496
OS2TypoDOffset: 0
OS2TypoLinegap: 0
OS2WinAscent: 1286
OS2WinAOffset: 0
OS2WinDescent: 496
OS2WinDOffset: 0
HheadAscent: 1286
HheadAOffset: 0
HheadDescent: -496
HheadDOffset: 0
OS2Vendor: 'PfEd'
Lookup: 4 0 1 "'liga' Standard Ligatures in Latin lookup 3" { "'liga' Standard Ligatures in Latin lookup 3 subtable"  } ['liga' ('latn' <'dflt' > ) ]
Lookup: 6 0 0 "'ccmp' Thai Tone Tilde Reordering" { "'ccmp' Thai Tone Tilde Reordering"  } ['ccmp' ('DFLT' <'dflt' > 'latn' <'dflt' > 'thai' <'KUY ' 'MLY ' 'PAL ' 'SAN ' 'THA ' 'dflt' > ) ]
Lookup: 6 0 0 "'ccmp' Thai Tone Macron Reordering" { "'ccmp' Thai Tone Macron Reordering"  } ['ccmp' ('DFLT' <'dflt' > 'latn' <'dflt' > 'thai' <'KUY ' 'MLY ' 'PAL ' 'SAN ' 'THA ' 'dflt' > ) ]
Lookup: 6 0 0 "'ccmp' Thai Below Vowel Macron Reordering" { "'ccmp' Thai Below Vowel Macron Reordering"  } ['ccmp' ('DFLT' <'dflt' > 'latn' <'dflt' > 'thai' <'KUY ' 'MLY ' 'PAL ' 'SAN ' 'THA ' 'dflt' > ) ]
Lookup: 4 0 0 "'ccmp' Patani Malay Ligatures" { "'ccmp' Patani Malay Ligatures"  } ['ccmp' ('DFLT' <'dflt' > 'thai' <'KUY ' 'MLY ' 'PAL ' 'SAN ' 'THA ' 'dflt' > ) ]
Lookup: 6 0 0 "'ccmp' Thai Conditional Descender Removal" { "'ccmp' Thai Conditional Descender Removal"  } ['ccmp' ('DFLT' <'dflt' > 'thai' <'KUY ' 'MLY ' 'THA ' 'dflt' > ) ]

StartChar: exclam
Encoding: 33 33 1
Width: 333
Flags: W
HStem: -14 115<122.232 211.311> 656 20G<145.5 190.5>
VStem: 109 115<-0.461563 88.1605> 114 106<490.696 663.891>
LayerCount: 3
Fore
SplineSet
220 596 m 0xd0
 220 579 218 562 217 547 c 2
 174 177 l 1
 160 177 l 1
 117 547 l 1
 117 562 114 579 114 596 c 0
 114 628 124 676 167 676 c 0
 214 676 220 628 220 596 c 0xd0
224 41 m 0xe0
 224 9 197 -14 166 -14 c 0
 138 -14 109 11 109 41 c 0
 109 74 134 101 167 101 c 0
 200 101 224 74 224 41 c 0xe0
EndSplineSet
Validated: 1
Layer: 2
SplineSet
117 547 m 1,0,-1
 114 596 l 1,1,2
 114 627 114 627 126 651.5 c 128,-1,3
 138 676 138 676 167 676 c 0,4,5
 220 676 220 676 220 596 c 0,6,7
 220 592 220 592 217 547 c 1,8,-1
 174 177 l 1,9,-1
 160 177 l 1,10,-1
 117 547 l 1,0,-1
207.5 83.5 m 128,-1,12
 224 66 224 66 224 41.5 c 256,13,14
 224 17 224 17 207 1.5 c 128,-1,15
 190 -14 190 -14 167 -14 c 256,16,17
 144 -14 144 -14 126.5 2.5 c 128,-1,18
 109 19 109 19 109 42.5 c 256,19,20
 109 66 109 66 125.5 83.5 c 128,-1,21
 142 101 142 101 166.5 101 c 256,22,11
 191 101 191 101 207.5 83.5 c 128,-1,12
EndSplineSet
EndChar

StartChar: numbersign
Encoding: 35 35 3
Width: 499
Flags: W
HStem: 0 21G<78 139.949 272 332.857> 217 53<5 111 178 303 370 470> 404 55<31 141 207 332 398 495> 642 20G<176.946 238 366.946 427>
VStem: 78 59<0 59> 180 58<604 662> 272 58<0 58> 370 57<605 662>
DStem2: 78 0 137 0 0.152282 0.988337<8.98461 219.494 282.079 408.882 473.291 669.812> 272 0 330 0 0.14644 0.98922<8.49354 219.2 281.44 408.431 472.503 669.214>
LayerCount: 3
Fore
SplineSet
495 404 m 1
 390 404 l 1
 370 270 l 1
 470 270 l 1
 470 217 l 1
 361 217 l 1
 330 0 l 1
 272 0 l 1
 303 217 l 1
 169 217 l 1
 137 0 l 1
 78 0 l 1
 111 217 l 1
 5 217 l 1
 5 270 l 1
 120 270 l 1
 141 404 l 1
 31 404 l 1
 31 459 l 1
 149 459 l 1
 180 662 l 1
 238 662 l 1
 207 459 l 1
 339 459 l 1
 370 662 l 1
 427 662 l 1
 398 459 l 1
 495 459 l 1
 495 404 l 1
332 404 m 1
 200 404 l 1
 178 270 l 1
 312 270 l 1
 332 404 l 1
EndSplineSet
Validated: 1
Layer: 2
SplineSet
495 404 m 1,0,-1
 390 404 l 1,1,-1
 370 270 l 1,2,-1
 470 270 l 1,3,-1
 470 217 l 1,4,-1
 361 217 l 1,5,-1
 330 0 l 1,6,-1
 272 0 l 1,7,-1
 303 217 l 1,8,-1
 169 217 l 1,9,-1
 137 0 l 1,10,-1
 78 0 l 1,11,-1
 111 217 l 1,12,-1
 5 217 l 1,13,-1
 5 270 l 1,14,-1
 120 270 l 1,15,-1
 141 404 l 1,16,-1
 31 404 l 1,17,-1
 31 459 l 1,18,-1
 149 459 l 1,19,-1
 180 662 l 1,20,-1
 238 662 l 1,21,-1
 207 459 l 1,22,-1
 339 459 l 1,23,-1
 370 662 l 1,24,-1
 427 662 l 1,25,-1
 398 459 l 1,26,-1
 495 459 l 1,27,-1
 495 404 l 1,0,-1
332 404 m 1,28,-1
 200 404 l 1,29,-1
 178 270 l 1,30,-1
 312 270 l 1,31,-1
 332 404 l 1,28,-1
EndSplineSet
EndChar

StartChar: dollar
Encoding: 36 36 4
Width: 499
Flags: W
HStem: 0 28<160.603 230 264 310.922> 636 26<189.345 230 264 317.303>
VStem: 45 15<151.736 181> 52 75<472.676 584.909> 230 34<-88 0 28 293 407 636 662 727> 378 78<92.7873 219.482> 410 14<499 526.789>
LayerCount: 3
Fore
SplineSet
456 178 m 0xcc
 456 65 367 8 264 0 c 1
 264 -88 l 1
 230 -88 l 1
 230 0 l 1
 164 0 100 17 45 51 c 1
 45 181 l 1
 60 181 l 1xec
 75 88 132 29 230 28 c 1
 230 310 l 1
 154 353 52 407 52 508 c 0
 52 610 140 659 230 662 c 1
 230 727 l 1
 264 727 l 1
 264 662 l 1
 321 660 379 645 424 610 c 1
 424 499 l 1
 410 499 l 1xda
 398 576 343 631 264 636 c 1
 264 390 l 1
 352 343 456 296 456 178 c 0xcc
230 407 m 1
 230 636 l 1
 197 636 127 596 127 533 c 0xd8
 127 467 184 441 230 407 c 1
378 152 m 0xcc
 378 223 319 263 264 293 c 1
 264 28 l 1
 333 37 378 81 378 152 c 0xcc
EndSplineSet
Validated: 1
Layer: 2
SplineSet
456 178 m 0,0,1
 456 98 456 98 401.5 52 c 128,-1,2
 347 6 347 6 264 0 c 1,3,-1
 264 -88 l 1,4,-1
 230 -88 l 1,5,-1
 230 0 l 1,6,7
 128 0 128 0 45 51 c 1,8,-1
 45 181 l 1,9,-1
 60 181 l 1,10,11
 72 110 72 110 115 69.5 c 128,-1,12
 158 29 158 29 230 28 c 1,13,-1
 230 310 l 1,14,15
 230 310 230 310 195 330 c 2,16,17
 146 358 146 358 132 370 c 0,18,19
 85 412 85 412 74 432 c 0,20,21
 52 474 52 474 52 508 c 0,22,23
 52 580 52 580 104 620 c 128,-1,24
 156 660 156 660 230 662 c 1,25,-1
 230 727 l 1,26,-1
 264 727 l 1,27,-1
 264 662 l 1,28,29
 362 659 362 659 424 610 c 1,30,-1
 424 499 l 1,31,-1
 410 499 l 1,32,33
 401 557 401 557 362 594.5 c 128,-1,34
 323 632 323 632 264 636 c 1,35,-1
 264 390 l 1,36,37
 412 316 412 316 442 248 c 0,38,39
 456 216 456 216 456 178 c 0,0,1
230 407 m 1,40,-1
 230 636 l 1,41,42
 200 636 200 636 163.5 606 c 128,-1,43
 127 576 127 576 127 535.5 c 256,44,45
 127 495 127 495 149 471.5 c 128,-1,46
 171 448 171 448 197 430 c 128,-1,47
 223 412 223 412 230 407 c 1,40,-1
347.5 67.5 m 128,-1,49
 378 100 378 100 378 150 c 256,50,51
 378 200 378 200 347 232.5 c 128,-1,52
 316 265 316 265 264 293 c 1,53,-1
 264 28 l 1,54,48
 317 35 317 35 347.5 67.5 c 128,-1,49
EndSplineSet
EndChar

StartChar: percent
Encoding: 37 37 5
Width: 832
Flags: W
HStem: -14 31<543.39 638.366> 287 36<153.437 249.898> 324 32<629.114 717.9> 585 22<377.566 501.536> 633 29<247.48 309.7> 656 20G<573 633>
VStem: 61 76<336.112 500.412> 358 26<471.532 592.177> 449 76<31.7136 186.841> 745 26<164.123 290.018>
DStem2: 201 -14 249 -14 0.486288 0.873799<23.3418 714.965 731.322 789.656>
LayerCount: 3
Fore
SplineSet
276 662 m 0xfbc0
 361 662 336 607 436 607 c 0
 496 607 553 633 585 676 c 1
 633 676 l 1xf7c0
 249 -14 l 1
 201 -14 l 1
 550 610 l 1
 511 594 466 585 429 585 c 0
 408 585 390 588 376 593 c 1
 380 578 384 556 384 539 c 0
 384 437 295 287 180 287 c 0
 103 287 61 338 61 424 c 0
 61 531 164 662 276 662 c 0xfbc0
771 247 m 0
 771 129 691 -14 576 -14 c 0
 473 -14 449 48 449 123 c 0
 449 230 553 356 665 356 c 0
 733 356 771 300 771 247 c 0
358 553 m 0
 358 570 355 584 350 599 c 1
 312 610 298 633 281 633 c 0xfbc0
 244 633 137 533 137 396 c 0
 137 353 151 323 200 323 c 0
 281 323 358 443 358 553 c 0
676 324 m 0
 585 324 525 152 525 87 c 0
 525 44 544 17 587 17 c 0
 668 17 745 142 745 241 c 0
 745 281 722 324 676 324 c 0
EndSplineSet
Validated: 1
Layer: 2
SplineSet
276 662 m 0,0,1
 317 662 317 662 350.5 634.5 c 128,-1,2
 384 607 384 607 432.5 607 c 128,-1,3
 481 607 481 607 521 625.5 c 128,-1,4
 561 644 561 644 585 676 c 1,5,-1
 633 676 l 1,6,-1
 249 -14 l 1,7,-1
 201 -14 l 1,8,-1
 550 610 l 1,9,10
 489 585 489 585 443.5 585 c 128,-1,11
 398 585 398 585 376 593 c 1,12,13
 384 563 384 563 384 539 c 0,14,15
 384 456 384 456 322.5 371.5 c 128,-1,16
 261 287 261 287 180 287 c 0,17,18
 123 287 123 287 92 323 c 128,-1,19
 61 359 61 359 61 424 c 0,20,21
 61 507 61 507 127.5 584.5 c 128,-1,22
 194 662 194 662 276 662 c 0,0,1
771 247 m 0,23,24
 771 152 771 152 714.5 69 c 128,-1,25
 658 -14 658 -14 581.5 -14 c 128,-1,26
 505 -14 505 -14 477 22.5 c 128,-1,27
 449 59 449 59 449 123 c 0,28,29
 449 206 449 206 516 281 c 128,-1,30
 583 356 583 356 665 356 c 0,31,32
 713 356 713 356 742 323 c 128,-1,33
 771 290 771 290 771 247 c 0,23,24
358 553 m 0,34,35
 358 575 358 575 350 599 c 1,36,37
 330 605 330 605 309.5 619 c 128,-1,38
 289 633 289 633 281 633 c 0,39,40
 260 633 260 633 227.5 603.5 c 128,-1,41
 195 574 195 574 166 516.5 c 128,-1,42
 137 459 137 459 137 396 c 0,43,44
 137 323 137 323 200 323 c 0,45,46
 260 323 260 323 309 396 c 128,-1,47
 358 469 358 469 358 553 c 0,34,35
726.5 299 m 128,-1,49
 708 324 708 324 671 324 c 256,50,51
 634 324 634 324 597.5 277.5 c 128,-1,52
 561 231 561 231 543 177 c 128,-1,53
 525 123 525 123 525 87 c 0,54,55
 525 17 525 17 587 17 c 0,56,57
 646 17 646 17 695.5 90.5 c 128,-1,58
 745 164 745 164 745 241 c 0,59,48
 745 274 745 274 726.5 299 c 128,-1,49
EndSplineSet
EndChar

StartChar: ampersand
Encoding: 38 38 6
Width: 777
Flags: W
HStem: -14 72<568.086 671.44> -14 54<198.553 322.092> 407 18<495 535.537 672.702 710> 644 32<310.758 403.609>
VStem: 43 91<103.53 224.326> 203 78<458.343 599.795> 438 52<493.365 616.123>
LayerCount: 3
Fore
SplineSet
750 100 m 1xbe
 702 26 667 -14 599 -14 c 0xbe
 530 -14 475 31 429 78 c 1
 373 25 298 -14 220 -14 c 0x7e
 108 -14 43 43 43 144 c 0
 43 258 163 339 237 376 c 1
 220 422 203 468 203 516 c 0
 203 604 266 676 355 676 c 0
 427 676 490 633 490 556 c 0
 490 467 409 415 336 384 c 1
 373 312 416 243 467 178 c 1
 502 220 559 303 559 358 c 0
 559 387 544 404 495 407 c 1
 495 425 l 1
 710 425 l 1
 710 407 l 1
 647 399 631 373 604 323 c 0
 567 257 510 174 493 147 c 1
 533 101 579 58 644 58 c 0
 684 58 713 80 734 111 c 1
 750 100 l 1xbe
438 559 m 0
 438 604 404 644 359 644 c 0
 300 644 281 599 281 548 c 0
 281 510 304 450 321 416 c 1
 376 442 438 493 438 559 c 0
404 104 m 1
 344 177 296 260 252 343 c 1
 184 301 134 257 134 172 c 0
 134 104 195 40 263 40 c 0x7e
 304 40 362 68 404 104 c 1
EndSplineSet
Validated: 1
Layer: 2
SplineSet
750 100 m 1,0,1
 710 39 710 39 678.5 12.5 c 128,-1,2
 647 -14 647 -14 599 -14 c 0,3,4
 519 -14 519 -14 429 78 c 1,5,6
 332 -14 332 -14 220 -14 c 0,7,8
 136 -14 136 -14 89.5 27 c 128,-1,9
 43 68 43 68 43 144 c 0,10,11
 43 197 43 197 78 246.5 c 128,-1,12
 113 296 113 296 152.5 324.5 c 128,-1,13
 192 353 192 353 237 376 c 1,14,15
 203 468 203 468 203 516 c 0,16,17
 203 583 203 583 246 629.5 c 128,-1,18
 289 676 289 676 350.5 676 c 256,19,20
 412 676 412 676 451 644 c 128,-1,21
 490 612 490 612 490 556 c 0,22,23
 490 449 490 449 336 384 c 1,24,25
 394 271 394 271 467 178 c 1,26,27
 501 219 501 219 530 270 c 128,-1,28
 559 321 559 321 559 351 c 128,-1,29
 559 381 559 381 544.5 393 c 128,-1,30
 530 405 530 405 495 407 c 1,31,-1
 495 425 l 1,32,-1
 710 425 l 1,33,-1
 710 407 l 1,34,35
 666 401 666 401 647 383.5 c 128,-1,36
 628 366 628 366 603 320.5 c 128,-1,37
 578 275 578 275 493 147 c 1,38,39
 570 58 570 58 644 58 c 0,40,41
 698 58 698 58 734 111 c 1,42,-1
 750 100 l 1,0,1
403.5 476.5 m 128,-1,44
 438 514 438 514 438 553.5 c 256,45,46
 438 593 438 593 415 618.5 c 128,-1,47
 392 644 392 644 359 644 c 0,48,49
 281 644 281 644 281 548 c 0,50,51
 281 496 281 496 321 416 c 1,52,43
 369 439 369 439 403.5 476.5 c 128,-1,44
404 104 m 1,53,54
 333 191 333 191 252 343 c 1,55,56
 193 307 193 307 163.5 269 c 128,-1,57
 134 231 134 231 134 176 c 256,58,59
 134 121 134 121 173 80.5 c 128,-1,60
 212 40 212 40 263 40 c 0,61,62
 293 40 293 40 332.5 58 c 128,-1,63
 372 76 372 76 404 104 c 1,53,54
EndSplineSet
EndChar

StartChar: quotesingle
Encoding: 39 39 7
Width: 179
Flags: W
HStem: 444 240<80 100>
VStem: 47 86<514.797 678.809> 80 20<444 487.094>
LayerCount: 3
Fore
SplineSet
132 641 m 2xc0
 100 444 l 1
 80 444 l 1xa0
 48 641 l 2
 48 643 47 645 47 647 c 0
 47 666 67 684 90 684 c 0
 113 684 133 666 133 647 c 0
 133 645 132 643 132 641 c 2xc0
EndSplineSet
Validated: 1
Layer: 2
SplineSet
132 641 m 2,0,-1
 100 444 l 1,1,-1
 80 444 l 1,2,-1
 48 641 l 2,3,4
 48 642 48 642 47.5 644 c 128,-1,5
 47 646 47 646 47 647 c 0,6,7
 47 661 47 661 60 672.5 c 128,-1,8
 73 684 73 684 90 684 c 256,9,10
 107 684 107 684 120 672.5 c 128,-1,11
 133 661 133 661 133 647 c 0,12,13
 133 646 133 646 132.5 644 c 128,-1,14
 132 642 132 642 132 641 c 2,0,-1
EndSplineSet
EndChar

StartChar: parenleft
Encoding: 40 40 8
Width: 333
Flags: W
HStem: 656 20G<216.5 304>
VStem: 49 85<113.795 400.963>
LayerCount: 3
Fore
SplineSet
304 -161 m 1
 292 -177 l 1
 163 -91 49 48 49 260 c 0
 49 433 138 579 295 676 c 1
 304 659 l 1
 170 567 134 424 134 269 c 0
 134 104 154 -41 304 -161 c 1
EndSplineSet
Validated: 1
Layer: 2
SplineSet
304 -161 m 1,0,-1
 292 -177 l 1,1,2
 49 -15 49 -15 49 260 c 0,3,4
 49 389 49 389 112.5 496 c 128,-1,5
 176 603 176 603 295 676 c 1,6,-1
 304 659 l 1,7,8
 134 542 134 542 134 269 c 0,9,10
 134 137 134 137 164 31.5 c 128,-1,11
 194 -74 194 -74 304 -161 c 1,0,-1
EndSplineSet
EndChar

StartChar: parenright
Encoding: 41 41 9
Width: 333
Flags: W
HStem: 656 20G<29 63.5>
VStem: 200 84<95.6445 381.8>
LayerCount: 3
Fore
SplineSet
284 232 m 0
 284 60 184 -91 38 -177 c 1
 29 -161 l 1
 164 -68 200 74 200 229 c 0
 200 396 177 556 29 659 c 1
 41 676 l 1
 81 656 284 513 284 232 c 0
EndSplineSet
Validated: 1
Layer: 2
SplineSet
284 232 m 0,0,1
 284 106 284 106 217 -2.5 c 128,-1,2
 150 -111 150 -111 38 -177 c 1,3,-1
 29 -161 l 1,4,5
 124 -96 124 -96 162 2 c 128,-1,6
 200 100 200 100 200 238.5 c 256,7,8
 200 377 200 377 165 482.5 c 128,-1,9
 130 588 130 588 29 659 c 1,10,-1
 41 676 l 1,11,12
 86 653 86 653 133 602.5 c 128,-1,13
 180 552 180 552 210 504 c 128,-1,14
 240 456 240 456 262 383.5 c 128,-1,15
 284 311 284 311 284 232 c 0,0,1
EndSplineSet
EndChar

StartChar: asterisk
Encoding: 42 42 10
Width: 499
Flags: W
HStem: 346 73<353.025 428> 351 81<81.0172 137.637> 502 79<360.909 421.014> 522 74<71.6765 145.949> 663 20G<244 260.5>
VStem: 205 73<275.831 383.067> 213 78<569.68 669.592>
LayerCount: 3
Fore
SplineSet
401 581 m 0x2d80
 422 581 437 567 437 546 c 0
 437 518 413 502 382 502 c 0
 353 502 322 486 266 467 c 1
 313 442 359 427 404 419 c 0
 418 417 431 400 431 382 c 0
 431 360 410 346 393 346 c 0xad80
 372 346 351 363 346 378 c 0
 338 398 293 430 257 458 c 1
 256 450 256 442 256 434 c 0
 256 363 278 316 278 301 c 0
 278 285 265 265 244 265 c 0
 231 265 205 274 205 309 c 0
 205 321 208 334 214 341 c 0
 227 358 233 412 241 458 c 1
 136 394 137 351 102 351 c 0
 81 351 64 366 64 388 c 0
 64 416 91 432 120 432 c 0
 142 432 169 440 232 470 c 1
 184 499 138 513 94 522 c 0
 80 524 68 541 68 558 c 0
 68 577 84 596 105 596 c 0x5e80
 126 596 147 578 152 564 c 0
 160 544 204 511 241 482 c 1
 241 584 213 629 213 645 c 0
 213 662 229 683 252 683 c 0
 275 683 291 663 291 638 c 0
 291 626 287 614 281 607 c 0
 267 590 263 536 258 482 c 1
 310 505 344 539 373 573 c 1
 380 578 390 581 401 581 c 0x2d80
EndSplineSet
Validated: 1
Layer: 2
SplineSet
401 581 m 0,0,1
 417 581 417 581 427 571.5 c 128,-1,2
 437 562 437 562 437 546 c 0,3,4
 437 526 437 526 421.5 514 c 128,-1,5
 406 502 406 502 382 502 c 0,6,7
 372 502 372 502 359 499 c 128,-1,8
 346 496 346 496 335 492 c 128,-1,9
 324 488 324 488 303 480 c 128,-1,10
 282 472 282 472 266 467 c 1,11,12
 332 432 332 432 404 419 c 0,13,14
 415 417 415 417 423 406 c 128,-1,15
 431 395 431 395 431 382 c 0,16,17
 431 366 431 366 419 356 c 128,-1,18
 407 346 407 346 393 346 c 0,19,20
 378 346 378 346 364 356 c 128,-1,21
 350 366 350 366 346 378 c 0,22,23
 344 384 344 384 338 390.5 c 128,-1,24
 332 397 332 397 320.5 407.5 c 128,-1,25
 309 418 309 418 302.5 423 c 128,-1,26
 296 428 296 428 278.5 441.5 c 128,-1,27
 261 455 261 455 257 458 c 1,28,29
 256 450 256 450 256 434 c 0,30,31
 256 392 256 392 267 347 c 128,-1,32
 278 302 278 302 278 301 c 0,33,34
 278 288 278 288 268.5 276.5 c 128,-1,35
 259 265 259 265 244 265 c 0,36,37
 231 265 231 265 218 275.5 c 128,-1,38
 205 286 205 286 205 309 c 0,39,40
 205 330 205 330 214 341 c 128,-1,41
 223 352 223 352 241 458 c 1,42,43
 197 431 197 431 168.5 403 c 128,-1,44
 140 375 140 375 128 363 c 128,-1,45
 116 351 116 351 102 351 c 0,46,47
 86 351 86 351 75 361.5 c 128,-1,48
 64 372 64 372 64 388 c 0,49,50
 64 408 64 408 80.5 420 c 128,-1,51
 97 432 97 432 120 432 c 0,52,53
 152 432 152 432 232 470 c 1,54,55
 173 506 173 506 94 522 c 0,56,57
 84 523 84 523 76 534 c 128,-1,58
 68 545 68 545 68 558 c 0,59,60
 68 573 68 573 79 584.5 c 128,-1,61
 90 596 90 596 105 596 c 256,62,63
 120 596 120 596 134 585.5 c 128,-1,64
 148 575 148 575 152 564 c 0,65,66
 159 546 159 546 241 482 c 1,67,68
 241 527 241 527 234 564 c 128,-1,69
 227 601 227 601 220 621 c 128,-1,70
 213 641 213 641 213 645 c 0,71,72
 213 659 213 659 224.5 671 c 128,-1,73
 236 683 236 683 252 683 c 0,74,75
 269 683 269 683 280 670 c 128,-1,76
 291 657 291 657 291 638 c 256,77,78
 291 619 291 619 281 607 c 0,79,80
 268 591 268 591 258 482 c 1,81,82
 318 509 318 509 373 573 c 0,83,84
 384 581 384 581 401 581 c 0,0,1
EndSplineSet
EndChar

StartChar: plus
Encoding: 43 43 11
Width: 563
Flags: W
HStem: 238 65<31 250 313 533>
VStem: 250 63<17 238 303 521>
LayerCount: 3
Fore
SplineSet
533 238 m 1
 313 238 l 1
 313 17 l 1
 250 17 l 1
 250 238 l 1
 31 238 l 1
 31 303 l 1
 250 303 l 1
 250 521 l 1
 313 521 l 1
 313 303 l 1
 533 303 l 1
 533 238 l 1
EndSplineSet
Validated: 1
Layer: 2
SplineSet
533 238 m 1,0,-1
 313 238 l 1,1,-1
 313 17 l 1,2,-1
 250 17 l 1,3,-1
 250 238 l 1,4,-1
 31 238 l 1,5,-1
 31 303 l 1,6,-1
 250 303 l 1,7,-1
 250 521 l 1,8,-1
 313 521 l 1,9,-1
 313 303 l 1,10,-1
 533 303 l 1,11,-1
 533 238 l 1,0,-1
EndSplineSet
EndChar

StartChar: comma
Encoding: 44 44 12
Width: 250
Flags: W
HStem: 5 121<86.283 146.73>
VStem: 147 53<-52.7861 38.5>
LayerCount: 3
Fore
SplineSet
111 -3 m 0
 72 -3 43 21 43 58 c 0
 43 100 68 126 111 126 c 0
 174 126 200 68 200 17 c 0
 200 -48 135 -118 74 -146 c 1
 60 -118 l 1
 100 -100 147 -41 147 -6 c 0
 147 0 149 5 143 5 c 0
 136 5 128 -3 111 -3 c 0
EndSplineSet
Validated: 1
Layer: 2
SplineSet
111 -3 m 0,0,1
 81 -3 81 -3 62 14 c 128,-1,2
 43 31 43 31 43 58 c 0,3,4
 43 90 43 90 61 108 c 128,-1,5
 79 126 79 126 111 126 c 0,6,7
 155 126 155 126 177.5 93 c 128,-1,8
 200 60 200 60 200 17 c 0,9,10
 200 -29 200 -29 161.5 -76.5 c 128,-1,11
 123 -124 123 -124 74 -146 c 1,12,-1
 60 -118 l 1,13,14
 90 -104 90 -104 118.5 -68 c 128,-1,15
 147 -32 147 -32 147 -6 c 0,16,17
 147 5 147 5 143 5 c 0,18,19
 141 5 141 5 131 1 c 128,-1,20
 121 -3 121 -3 111 -3 c 0,0,1
EndSplineSet
EndChar

StartChar: hyphen
Encoding: 45 45 13
Width: 333
Flags: W
HStem: 238 63<43 289>
VStem: 43 246<238 301>
LayerCount: 3
Fore
SplineSet
289 238 m 1
 43 238 l 1
 43 301 l 1
 289 301 l 1
 289 238 l 1
EndSplineSet
Validated: 1
Layer: 2
SplineSet
289 238 m 1,0,-1
 43 238 l 1,1,-1
 43 301 l 1,2,-1
 289 301 l 1,3,-1
 289 238 l 1,0,-1
EndSplineSet
EndChar

StartChar: period
Encoding: 46 46 14
Width: 250
Flags: W
HStem: -12 144<75.6584 176.342>
VStem: 54 144<9.65845 110.342>
LayerCount: 3
Fore
SplineSet
54 60 m 0
 54 100 86 132 126 132 c 0
 166 132 198 100 198 60 c 0
 198 20 166 -12 126 -12 c 0
 86 -12 54 20 54 60 c 0
EndSplineSet
Validated: 1
Layer: 2
SplineSet
54 60 m 256,0,1
 54 90 54 90 75 111 c 128,-1,2
 96 132 96 132 126 132 c 256,3,4
 156 132 156 132 177 111 c 128,-1,5
 198 90 198 90 198 60 c 256,6,7
 198 30 198 30 177 9 c 128,-1,8
 156 -12 156 -12 126 -12 c 256,9,10
 96 -12 96 -12 75 9 c 128,-1,11
 54 30 54 30 54 60 c 256,0,1
EndSplineSet
EndChar

StartChar: slash
Encoding: 47 47 15
Width: 278
Flags: W
HStem: 662 20G<233.62 303>
VStem: -12 63<-108 -45> 240 63<619 682>
DStem2: -12 -108 51 -108 0.3039 0.952704<19.1457 829.219>
LayerCount: 3
Fore
SplineSet
303 682 m 1
 51 -108 l 1
 -12 -108 l 1
 240 682 l 1
 303 682 l 1
EndSplineSet
Validated: 1
Layer: 2
SplineSet
303 682 m 1,0,-1
 51 -108 l 1,1,-1
 -12 -108 l 1,2,-1
 240 682 l 1,3,-1
 303 682 l 1,0,-1
EndSplineSet
EndChar

StartChar: zero
Encoding: 48 48 16
Width: 537
Flags: W
HStem: -14 28<221.762 316.986> 650 26<226.834 313.958>
VStem: 41 97<172.445 488.429> 396 97<175.906 490.672>
LayerCount: 3
Fore
SplineSet
493 327 m 0
 493 190 439 -14 261 -14 c 0
 120 -14 41 138 41 333 c 0
 41 476 94 676 266 676 c 0
 416 676 493 524 493 327 c 0
396 326 m 0
 396 504 367 650 272 650 c 0
 160 650 138 481 138 313 c 0
 138 164 161 14 269 14 c 0
 382 14 396 172 396 326 c 0
EndSplineSet
Validated: 1
Layer: 2
SplineSet
493 327 m 0,0,1
 493 210 493 210 444 106 c 0,2,3
 419 52 419 52 371.5 19 c 128,-1,4
 324 -14 324 -14 261 -14 c 0,5,6
 158 -14 158 -14 99.5 84 c 128,-1,7
 41 182 41 182 41 333 c 0,8,9
 41 454 41 454 88 558 c 0,10,11
 112 611 112 611 158.5 643.5 c 128,-1,12
 205 676 205 676 266 676 c 0,13,14
 375 676 375 676 434 578.5 c 128,-1,15
 493 481 493 481 493 327 c 0,0,1
396 326 m 0,16,17
 396 650 396 650 272 650 c 0,18,19
 138 650 138 650 138 313 c 0,20,21
 138 14 138 14 269 14 c 0,22,23
 350 14 350 14 375 114 c 0,24,25
 396 198 396 198 396 326 c 0,16,17
EndSplineSet
EndChar

StartChar: one
Encoding: 49 49 17
Width: 537
Flags: W
HStem: 0 14<141 191.754 364.246 415> 656 20G<282.031 321>
VStem: 235 86<29.5143 586.071>
LayerCount: 3
Fore
SplineSet
415 0 m 1
 141 0 l 1
 141 14 l 1
 221 18 235 37 235 80 c 2
 235 528 l 2
 235 572 226 587 205 587 c 0
 188 587 164 577 132 565 c 1
 132 579 l 1
 321 676 l 1
 321 80 l 2
 321 37 335 18 415 14 c 1
 415 0 l 1
EndSplineSet
Validated: 1
Layer: 2
SplineSet
235 528 m 2,0,1
 235 587 235 587 206 587 c 0,2,3
 191 587 191 587 132 565 c 1,4,-1
 132 579 l 1,5,-1
 321 676 l 1,6,-1
 321 80 l 2,7,8
 321 46 321 46 339.5 31.5 c 128,-1,9
 358 17 358 17 415 14 c 1,10,-1
 415 0 l 1,11,-1
 141 0 l 1,12,-1
 141 14 l 1,13,14
 198 17 198 17 216.5 31.5 c 128,-1,15
 235 46 235 46 235 80 c 2,16,-1
 235 528 l 2,0,1
EndSplineSet
EndChar

StartChar: two
Encoding: 50 50 18
Width: 537
Flags: W
HStem: 0 77<151 442> 604 72<172.716 299.749>
VStem: 54 21<477 494.822> 361 86<398.838 540.8>
DStem2: 54 14 151 77 0.688535 0.725203<112.476 383.121>
LayerCount: 3
Fore
SplineSet
498 137 m 1
 442 0 l 1
 54 0 l 1
 54 14 l 1
 223 192 l 1
 287 261 361 358 361 459 c 0
 361 547 306 604 218 604 c 0
 140 604 100 539 75 473 c 1
 54 479 l 1
 74 593 147 676 269 676 c 0
 367 676 447 599 447 501 c 0
 447 407 401 339 310 243 c 2
 151 77 l 1
 364 77 l 2
 438 77 445 80 485 143 c 1
 498 137 l 1
EndSplineSet
Validated: 1
Layer: 2
SplineSet
498 137 m 1,0,-1
 442 0 l 1,1,-1
 54 0 l 1,2,-1
 54 14 l 1,3,-1
 223 192 l 1,4,5
 361 341 361 341 361 459 c 0,6,7
 361 525 361 525 322.5 564.5 c 128,-1,8
 284 604 284 604 218 604 c 0,9,10
 125 604 125 604 75 473 c 1,11,-1
 54 479 l 1,12,13
 70 568 70 568 125.5 622 c 128,-1,14
 181 676 181 676 262 676 c 256,15,16
 343 676 343 676 395 625 c 128,-1,17
 447 574 447 574 447 504 c 256,18,19
 447 434 447 434 415 377 c 128,-1,20
 383 320 383 320 310 243 c 2,21,-1
 151 77 l 1,22,-1
 364 77 l 2,23,24
 420 77 420 77 437.5 86.5 c 128,-1,25
 455 96 455 96 485 143 c 1,26,-1
 498 137 l 1,0,-1
EndSplineSet
EndChar

StartChar: three
Encoding: 51 51 19
Width: 537
Flags: W
HStem: -14 36<163.5 291.021> 330 14<177 190.433> 616 60<174.399 300.855>
VStem: 68 15<513.667 520.658> 341 78<467.91 576.461> 382 71<118.819 259.591>
LayerCount: 3
Fore
SplineSet
453 214 m 0xf4
 453 63 319 -14 183 -14 c 0
 144 -14 68 -11 68 43 c 0
 68 65 84 77 104 77 c 0
 154 77 187 22 247 22 c 0
 330 22 382 88 382 167 c 0xf4
 382 280 323 330 177 330 c 1
 175 344 l 1
 250 367 341 413 341 510 c 0
 341 574 296 616 232 616 c 0
 166 616 120 579 83 511 c 1
 68 516 l 1
 100 616 169 676 264 676 c 0
 369 676 419 621 419 542 c 0xf8
 419 476 376 433 327 402 c 1
 412 367 453 312 453 214 c 0xf4
EndSplineSet
Validated: 1
Layer: 2
SplineSet
68 43 m 0,0,1
 68 77 68 77 108 77 c 0,2,3
 128 77 128 77 172 49.5 c 128,-1,4
 216 22 216 22 247 22 c 0,5,6
 308 22 308 22 345 64 c 128,-1,7
 382 106 382 106 382 167 c 0,8,9
 382 252 382 252 334 291 c 128,-1,10
 286 330 286 330 177 330 c 1,11,-1
 175 344 l 1,12,13
 341 395 341 395 341 510 c 0,14,15
 341 558 341 558 310.5 587 c 128,-1,16
 280 616 280 616 232 616 c 0,17,18
 140 616 140 616 83 511 c 1,19,-1
 68 516 l 1,20,21
 92 592 92 592 143 634 c 128,-1,22
 194 676 194 676 267 676 c 256,23,24
 340 676 340 676 379.5 639.5 c 128,-1,25
 419 603 419 603 419 542 c 0,26,27
 419 460 419 460 327 402 c 1,28,29
 392 375 392 375 422.5 330.5 c 128,-1,30
 453 286 453 286 453 214 c 0,31,32
 453 107 453 107 373 46.5 c 128,-1,33
 293 -14 293 -14 180.5 -14 c 256,34,35
 68 -14 68 -14 68 43 c 0,0,1
EndSplineSet
EndChar

StartChar: four
Encoding: 52 52 20
Width: 537
Flags: W
HStem: 0 21G<315 392> 167 63<74 315 392 493> 656 20G<332.009 392>
VStem: 315 77<0 167 230 570>
DStem2: 34 230 74 230 0.573216 0.819405<22.9286 439.671>
LayerCount: 3
Fore
SplineSet
493 167 m 1
 392 167 l 1
 392 0 l 1
 315 0 l 1
 315 167 l 1
 34 167 l 1
 34 230 l 1
 346 676 l 1
 392 676 l 1
 392 230 l 1
 493 230 l 1
 493 167 l 1
315 230 m 1
 315 570 l 1
 74 230 l 1
 315 230 l 1
EndSplineSet
Validated: 1
Layer: 2
SplineSet
493 167 m 1,0,-1
 392 167 l 1,1,-1
 392 0 l 1,2,-1
 315 0 l 1,3,-1
 315 167 l 1,4,-1
 34 167 l 1,5,-1
 34 230 l 1,6,-1
 346 676 l 1,7,-1
 392 676 l 1,8,-1
 392 230 l 1,9,-1
 493 230 l 1,10,-1
 493 167 l 1,0,-1
315 230 m 1,11,-1
 315 570 l 1,12,-1
 74 230 l 1,13,-1
 315 230 l 1,11,-1
EndSplineSet
EndChar

StartChar: five
Encoding: 53 53 21
Width: 537
Flags: W
HStem: -14 36<160 284.405> 582 80<204 413>
VStem: 379 70<127.188 285.418>
DStem2: 88 424 163 498 0.416392 0.909185<98.5091 191.953>
LayerCount: 3
Fore
SplineSet
180 -14 m 0
 140 -14 54 -11 54 47 c 0
 54 71 73 84 100 84 c 0
 163 84 186 22 240 22 c 0
 326 22 379 100 379 195 c 0
 379 352 226 404 100 412 c 0
 91 413 86 418 88 424 c 2
 197 662 l 1
 393 662 l 2
 424 662 432 662 452 687 c 1
 461 680 l 1
 413 582 l 1
 204 582 l 1
 163 498 l 1
 321 472 449 427 449 227 c 0
 449 78 327 -14 180 -14 c 0
EndSplineSet
Validated: 1
Layer: 2
SplineSet
54 47 m 0,0,1
 54 84 54 84 106 84 c 0,2,3
 133 84 133 84 173.5 53 c 128,-1,4
 214 22 214 22 240 22 c 0,5,6
 303 22 303 22 341 72 c 128,-1,7
 379 122 379 122 379 186 c 0,8,9
 379 308 379 308 286 360 c 0,10,11
 204 406 204 406 100 412 c 0,12,13
 85 414 85 414 88 424 c 1,14,-1
 197 662 l 1,15,-1
 393 662 l 2,16,17
 418 662 418 662 428 665.5 c 128,-1,18
 438 669 438 669 452 687 c 1,19,-1
 461 680 l 1,20,-1
 413 582 l 1,21,-1
 204 582 l 1,22,-1
 163 498 l 1,23,24
 216 489 216 489 254 479 c 0,25,26
 350 454 350 454 394 402 c 0,27,28
 448 338 448 338 448 228 c 256,29,30
 448 118 448 118 371 52 c 128,-1,31
 294 -14 294 -14 174 -14 c 256,32,33
 54 -14 54 -14 54 47 c 0,0,1
EndSplineSet
EndChar

StartChar: six
Encoding: 54 54 22
Width: 537
Flags: W
HStem: -14 28<244.487 343.845> 382 45<214.501 334.351> 664 18<430.924 468>
VStem: 58 93<144.447 351.598> 401 89<108.078 299.463>
LayerCount: 3
Fore
SplineSet
490 214 m 0
 490 94 413 -14 286 -14 c 0
 160 -14 58 91 58 273 c 0
 58 490 207 645 410 674 c 0
 427 676 442 682 468 682 c 1
 470 664 l 1
 439 656 409 653 375 636 c 0
 286 594 195 518 175 382 c 1
 214 410 257 427 304 427 c 0
 421 427 490 346 490 214 c 0
267 382 m 0
 233 382 197 370 170 350 c 1
 165 345 151 334 151 247 c 0
 151 114 203 14 301 14 c 0
 365 14 401 83 401 177 c 0
 401 265 374 382 267 382 c 0
EndSplineSet
Validated: 1
Layer: 2
SplineSet
304 427 m 0,0,1
 391 427 391 427 440.5 369.5 c 128,-1,2
 490 312 490 312 490 216 c 256,3,4
 490 120 490 120 434 53 c 128,-1,5
 378 -14 378 -14 283 -14 c 256,6,7
 188 -14 188 -14 123 63.5 c 128,-1,8
 58 141 58 141 58 273 c 0,9,10
 58 433 58 433 156.5 542.5 c 128,-1,11
 255 652 255 652 410 674 c 0,12,13
 412 674 412 674 432.5 678 c 128,-1,14
 453 682 453 682 468 682 c 1,15,-1
 470 664 l 1,16,17
 464 662 464 662 431.5 655.5 c 128,-1,18
 399 649 399 649 375 636 c 0,19,20
 200 554 200 554 175 382 c 1,21,22
 238 427 238 427 304 427 c 0,0,1
259 382 m 0,23,24
 213 382 213 382 170 350 c 0,25,26
 151 332 151 332 151 238 c 256,27,28
 151 144 151 144 190.5 79 c 128,-1,29
 230 14 230 14 301 14 c 0,30,31
 348 14 348 14 374 60 c 128,-1,32
 400 106 400 106 400 180 c 256,33,34
 400 254 400 254 374 312 c 0,35,36
 342 382 342 382 259 382 c 0,23,24
EndSplineSet
EndChar

StartChar: seven
Encoding: 55 55 23
Width: 537
Flags: W
HStem: -14 21G<194 264.475> 587 75<105.455 393>
VStem: 194 64<-14 50>
DStem2: 194 -14 258 -14 0.308012 0.951383<19.7128 633.075>
LayerCount: 3
Fore
SplineSet
472 647 m 1
 258 -14 l 1
 194 -14 l 1
 393 587 l 1
 187 587 l 2
 114 587 98 568 60 507 c 1
 43 515 l 1
 103 662 l 1
 472 662 l 1
 472 647 l 1
EndSplineSet
Validated: 1
Layer: 2
SplineSet
472 647 m 1,0,-1
 258 -14 l 1,1,-1
 194 -14 l 1,2,-1
 393 587 l 1,3,-1
 187 587 l 2,4,5
 135 587 135 587 113 571.5 c 128,-1,6
 91 556 91 556 60 507 c 1,7,-1
 43 515 l 1,8,-1
 103 662 l 1,9,-1
 472 662 l 1,10,-1
 472 647 l 1,0,-1
EndSplineSet
EndChar

StartChar: eight
Encoding: 56 56 24
Width: 537
Flags: W
HStem: -14 25<224.567 331.91> 650 26<210.694 318.739>
VStem: 77 75<72.4789 228.695 491.262 585.055> 375 69<462.36 607.248> 389 76<74.7956 195.08>
LayerCount: 3
Fore
SplineSet
465 154 m 0xe8
 465 46 367 -14 266 -14 c 0
 167 -14 77 45 77 152 c 0
 77 237 146 287 206 332 c 1
 143 393 83 425 83 527 c 0
 83 596 151 676 273 676 c 0
 353 676 444 630 444 539 c 0xf0
 444 452 379 407 310 372 c 1
 381 316 465 255 465 154 c 0xe8
375 536 m 0
 375 604 330 650 264 650 c 0
 206 650 157 611 157 550 c 0
 157 478 227 424 281 390 c 1
 335 419 375 472 375 536 c 0
232 312 m 1
 232 312 152 256 152 163 c 0
 152 78 194 11 281 11 c 0
 347 11 389 60 389 126 c 0xe8
 389 214 295 267 232 312 c 1
EndSplineSet
Validated: 1
Layer: 2
SplineSet
465 154 m 0,0,1
 465 77 465 77 406.5 31.5 c 128,-1,2
 348 -14 348 -14 268 -14 c 256,3,4
 188 -14 188 -14 132.5 30.5 c 128,-1,5
 77 75 77 75 77 152 c 0,6,7
 76 212 76 212 117 254 c 128,-1,8
 158 296 158 296 206 332 c 1,9,10
 195 342 195 342 164 369.5 c 128,-1,11
 133 397 133 397 108 431.5 c 128,-1,12
 83 466 83 466 83 525 c 256,13,14
 83 584 83 584 135 630 c 128,-1,15
 187 676 187 676 263 676 c 256,16,17
 339 676 339 676 391.5 640 c 128,-1,18
 444 604 444 604 444 542 c 256,19,20
 444 480 444 480 408.5 442 c 128,-1,21
 373 404 373 404 310 372 c 1,22,-1
 355 336 l 2,23,24
 365 328 365 328 393.5 301 c 128,-1,25
 422 274 422 274 432 257 c 0,26,27
 464 204 464 204 465 154 c 0,0,1
349 451.5 m 128,-1,29
 375 490 375 490 375 538 c 256,30,31
 375 586 375 586 344.5 618 c 128,-1,32
 314 650 314 650 266 650 c 256,33,34
 218 650 218 650 187.5 622.5 c 128,-1,35
 157 595 157 595 157 550 c 0,36,37
 157 468 157 468 281 390 c 1,38,28
 323 413 323 413 349 451.5 c 128,-1,29
232 312 m 1,39,40
 222 306 222 306 206 289 c 0,41,42
 152 232 152 232 152 154 c 0,43,44
 152 96 152 96 185 53.5 c 128,-1,45
 218 11 218 11 274 11 c 256,46,47
 330 11 330 11 359.5 43.5 c 128,-1,48
 389 76 389 76 389 130 c 256,49,50
 389 184 389 184 333 236 c 0,51,52
 297 269 297 269 232 312 c 1,39,40
EndSplineSet
EndChar

StartChar: nine
Encoding: 57 57 25
Width: 537
Flags: W
HStem: -23 20<83 123.076> 237 43<204.812 322.535> 650 26<204.094 305.82>
VStem: 54 92<352.428 551.067> 386 97<322.68 514.271>
LayerCount: 3
Fore
SplineSet
233 237 m 0
 118 237 54 327 54 447 c 0
 54 566 135 676 267 676 c 0
 407 676 483 529 483 385 c 0
 483 270 418 159 350 91 c 0
 291 33 183 -23 83 -23 c 1
 80 -3 l 1
 176 14 249 57 300 124 c 0
 341 180 368 236 382 292 c 1
 327 255 278 237 233 237 c 0
386 413 m 0
 386 521 362 650 253 650 c 0
 170 650 146 558 146 476 c 0
 146 377 174 280 273 280 c 0
 311 280 365 307 382 330 c 1
 385 347 386 375 386 413 c 0
EndSplineSet
Layer: 2
SplineSet
233 237 m 0,0,1
 149 237 149 237 101.5 295.5 c 128,-1,2
 54 354 54 354 54 447 c 256,3,4
 54 540 54 540 113 608 c 128,-1,5
 172 676 172 676 269 676 c 256,6,7
 366 676 366 676 424.5 588.5 c 128,-1,8
 483 501 483 501 483 385 c 0,9,10
 483 304 483 304 444.5 225.5 c 128,-1,11
 406 147 406 147 354 95.5 c 256,12,13
 302 44 302 44 228 10.5 c 128,-1,14
 154 -23 154 -23 83 -23 c 1,15,-1
 80 -3 l 1,16,17
 223 22 223 22 300 124 c 0,18,19
 361 207 361 207 382 292 c 1,20,21
 300 237 300 237 233 237 c 0,0,1
386 406 m 0,22,23
 386 650 386 650 253 650 c 0,24,25
 196 650 196 650 171 599 c 128,-1,26
 146 548 146 548 146 469.5 c 256,27,28
 146 391 146 391 175.5 335.5 c 128,-1,29
 205 280 205 280 273 280 c 0,30,31
 301 280 301 280 335 296 c 128,-1,32
 369 312 369 312 382 330 c 1,33,34
 386 354 386 354 386 406 c 0,22,23
EndSplineSet
EndChar

StartChar: colon
Encoding: 58 58 26
Width: 278
Flags: W
HStem: -12 144<89.6584 190.342> 324 144<89.6584 190.342>
VStem: 68 144<9.65845 110.342 345.658 446.342>
LayerCount: 3
Fore
SplineSet
68 396 m 0
 68 436 100 468 140 468 c 0
 180 468 212 436 212 396 c 0
 212 356 180 324 140 324 c 0
 100 324 68 356 68 396 c 0
68 60 m 0
 68 100 100 132 140 132 c 0
 180 132 212 100 212 60 c 0
 212 20 180 -12 140 -12 c 0
 100 -12 68 20 68 60 c 0
EndSplineSet
Validated: 1
Layer: 2
SplineSet
68 396 m 128,-1,1
 68 426 68 426 89 447 c 128,-1,2
 110 468 110 468 140 468 c 128,-1,3
 170 468 170 468 191 447 c 128,-1,4
 212 426 212 426 212 396 c 128,-1,5
 212 366 212 366 191 345 c 128,-1,6
 170 324 170 324 140 324 c 128,-1,7
 110 324 110 324 89 345 c 128,-1,0
 68 366 68 366 68 396 c 128,-1,1
68 60 m 128,-1,9
 68 90 68 90 89 111 c 128,-1,10
 110 132 110 132 140 132 c 128,-1,11
 170 132 170 132 191 111 c 128,-1,12
 212 90 212 90 212 60 c 128,-1,13
 212 30 212 30 191 9 c 128,-1,14
 170 -12 170 -12 140 -12 c 128,-1,15
 110 -12 110 -12 89 9 c 128,-1,8
 68 30 68 30 68 60 c 128,-1,9
EndSplineSet
EndChar

StartChar: semicolon
Encoding: 59 59 27
Width: 278
Flags: W
HStem: 5 121<101.283 162.914> 324 144<77.1738 177.826>
VStem: 55 145<345.658 446.342> 163 52<-59.4463 73>
LayerCount: 3
Fore
SplineSet
126 -3 m 0xd0
 87 -3 58 22 58 58 c 0
 58 100 83 126 126 126 c 0
 195 126 215 77 215 23 c 0
 215 -60 161 -112 89 -146 c 1
 75 -118 l 1
 115 -100 163 -45 163 -6 c 0
 163 0 164 5 158 5 c 0
 152 5 143 -3 126 -3 c 0xd0
55 396 m 0xe0
 55 436 88 468 127 468 c 0
 167 468 200 436 200 396 c 0
 200 356 167 324 127 324 c 0
 88 324 55 356 55 396 c 0xe0
EndSplineSet
Validated: 1
Layer: 2
SplineSet
126 -3 m 0,0,1
 97 -3 97 -3 77.5 14 c 128,-1,2
 58 31 58 31 58 60.5 c 256,3,4
 58 90 58 90 76 108 c 128,-1,5
 94 126 94 126 126 126 c 0,6,7
 215 126 215 126 215 20 c 128,-1,8
 215 -86 215 -86 89 -146 c 1,9,-1
 75 -118 l 1,10,11
 106 -104 106 -104 134.5 -69 c 128,-1,12
 163 -34 163 -34 163 -6 c 0,13,14
 163 5 163 5 159.5 5 c 128,-1,15
 156 5 156 5 146 1 c 128,-1,16
 136 -3 136 -3 126 -3 c 0,0,1
55 396 m 128,-1,18
 55 426 55 426 76.5 447 c 128,-1,19
 98 468 98 468 127.5 468 c 128,-1,20
 157 468 157 468 178.5 447 c 128,-1,21
 200 426 200 426 200 396 c 128,-1,22
 200 366 200 366 178.5 345 c 128,-1,23
 157 324 157 324 127.5 324 c 128,-1,24
 98 324 98 324 76.5 345 c 128,-1,17
 55 366 55 366 55 396 c 128,-1,18
EndSplineSet
EndChar

StartChar: less
Encoding: 60 60 28
Width: 563
Flags: W
HStem: 0 21G<492.395 536>
VStem: 28 80<193 327>
DStem2: 28 287 108 261 0.907593 0.419851<61.6913 533.272> 108 261 28 233 0.908952 -0.416901<0 471.578>
LayerCount: 3
Fore
SplineSet
536 0 m 1
 28 233 l 1
 28 287 l 1
 536 522 l 1
 536 459 l 1
 108 261 l 1
 536 63 l 1
 536 0 l 1
EndSplineSet
Validated: 1
Layer: 2
SplineSet
536 0 m 1,0,-1
 28 233 l 1,1,-1
 28 287 l 1,2,-1
 536 522 l 1,3,-1
 536 459 l 1,4,-1
 108 261 l 1,5,-1
 536 63 l 1,6,-1
 536 0 l 1,0,-1
EndSplineSet
EndChar

StartChar: equal
Encoding: 61 61 29
Width: 563
Flags: W
HStem: 132 65<31 533> 326 64<31 533>
LayerCount: 3
Fore
SplineSet
533 326 m 1
 31 326 l 1
 31 390 l 1
 533 390 l 1
 533 326 l 1
533 132 m 1
 31 132 l 1
 31 197 l 1
 533 197 l 1
 533 132 l 1
EndSplineSet
Validated: 1
Layer: 2
SplineSet
533 326 m 1,0,-1
 31 326 l 1,1,-1
 31 390 l 1,2,-1
 533 390 l 1,3,-1
 533 326 l 1,0,-1
533 132 m 1,4,-1
 31 132 l 1,5,-1
 31 197 l 1,6,-1
 533 197 l 1,7,-1
 533 132 l 1,4,-1
EndSplineSet
EndChar

StartChar: greater
Encoding: 62 62 30
Width: 563
Flags: W
HStem: 0 21G<28 71.6052>
VStem: 455 81<192.5 327.5>
DStem2: 28 522 28 459 0.907593 -0.419851<26.4506 497.123> 28 63 28 0 0.908952 0.416901<0 470.669>
LayerCount: 3
Fore
SplineSet
536 233 m 1
 28 0 l 1
 28 63 l 1
 455 261 l 1
 28 459 l 1
 28 522 l 1
 536 287 l 1
 536 233 l 1
EndSplineSet
Validated: 1
Layer: 2
SplineSet
536 233 m 1,0,-1
 28 0 l 1,1,-1
 28 63 l 1,2,-1
 455 261 l 1,3,-1
 28 459 l 1,4,-1
 28 522 l 1,5,-1
 536 287 l 1,6,-1
 536 233 l 1,0,-1
EndSplineSet
EndChar

StartChar: question
Encoding: 63 63 31
Width: 443
Flags: W
HStem: -14 115<171.781 259.602> 647 29<143.295 248.914>
VStem: 49 52<502.25 607.835> 158 115<-0.515381 87.1188> 207 17<164 202.719> 303 92<435.339 595.234>
LayerCount: 3
Fore
SplineSet
101 586 m 0xec
 101 559 138 548 138 510 c 0
 138 485 120 470 94 470 c 0
 58 470 49 508 49 536 c 0
 49 625 135 676 217 676 c 0
 330 676 395 596 395 518 c 0
 395 453 356 402 319 355 c 2
 289 316 l 2
 253 270 233 223 224 164 c 1
 207 164 l 1
 207 319 303 386 303 516 c 0
 303 582 267 647 195 647 c 0
 161 647 101 626 101 586 c 0xec
273 43 m 0xf4
 273 11 244 -14 217 -14 c 0
 187 -14 158 12 158 43 c 0
 158 74 187 101 217 101 c 0
 244 101 273 75 273 43 c 0xf4
EndSplineSet
Validated: 1
Layer: 2
SplineSet
101 586 m 0,0,1
 101 574 101 574 119.5 552 c 128,-1,2
 138 530 138 530 138 510.5 c 256,3,4
 138 491 138 491 126 480.5 c 128,-1,5
 114 470 114 470 94 470 c 0,6,7
 49 470 49 470 49 534.5 c 256,8,9
 49 599 49 599 100 637.5 c 128,-1,10
 151 676 151 676 224.5 676 c 256,11,12
 298 676 298 676 346.5 628.5 c 128,-1,13
 395 581 395 581 395 518 c 0,14,15
 395 488 395 488 382.5 456 c 128,-1,16
 370 424 370 424 356.5 405 c 128,-1,17
 343 386 343 386 319 355 c 2,18,-1
 289 316 l 2,19,20
 237 250 237 250 224 164 c 1,21,-1
 207 164 l 1,22,23
 207 216 207 216 222 266 c 128,-1,24
 237 316 237 316 255 350 c 0,25,26
 303 439 303 439 303 516 c 0,27,28
 303 570 303 570 274.5 608.5 c 128,-1,29
 246 647 246 647 195 647 c 0,30,31
 164 647 164 647 132.5 630 c 128,-1,32
 101 613 101 613 101 586 c 0,0,1
273 43 m 128,-1,34
 273 20 273 20 255.5 3 c 128,-1,35
 238 -14 238 -14 216 -14 c 128,-1,36
 194 -14 194 -14 176 3 c 128,-1,37
 158 20 158 20 158 43 c 128,-1,38
 158 66 158 66 176 83.5 c 128,-1,39
 194 101 194 101 216 101 c 128,-1,40
 238 101 238 101 255.5 83.5 c 128,-1,33
 273 66 273 66 273 43 c 128,-1,34
EndSplineSet
EndChar

StartChar: at
Encoding: 64 64 32
Width: 920
Flags: W
HStem: -155 40<361.676 626.454> 41 43<387.261 474.042 622.762 724.338> 427 46<469.691 568.089> 439 20G<611.102 702> 636 38<394.762 611.267>
VStem: 54 97<114.021 372.957> 280 92<97.5802 297.051> 828 40<227.019 436.836>
DStem2: 604 410 702 459 0.249041 0.968493<-276.454 -70.7968 0 50.4446>
LayerCount: 3
Fore
SplineSet
868 330 m 0xdf
 868 172 760 40 659 40 c 0
 624 40 561 49 542 123 c 1
 508 72 444 41 401 41 c 0
 330 41 280 83 280 184 c 0
 280 330 396 473 510 473 c 0xef
 562 473 594 436 604 410 c 1
 616 459 l 1
 702 459 l 1
 621 144 l 2
 619 138 618 132 618 126 c 0
 618 98 641 83 667 83 c 0
 742 83 828 214 828 329 c 0
 828 513 660 636 501 636 c 0
 287 636 151 421 151 249 c 0
 151 98 210 -115 495 -115 c 0
 591 -115 707 -78 762 -23 c 1
 743 -88 l 1
 743 -88 650 -155 493 -155 c 0
 290 -155 55 -38 55 257 c 0
 55 424 195 674 501 674 c 0
 627 674 868 590 868 330 c 0xdf
582 344 m 0
 582 409 554 427 525 427 c 0
 472 427 372 341 372 175 c 0
 372 111 390 84 433 84 c 0
 468 84 511 127 522 147 c 1
 536 170 582 273 582 344 c 0
EndSplineSet
Validated: 1
Layer: 2
SplineSet
868 330 m 0,0,1
 868 214 868 214 802.5 127 c 128,-1,2
 737 40 737 40 659 40 c 0,3,4
 563 40 563 40 542 123 c 1,5,6
 518 86 518 86 476.5 63.5 c 128,-1,7
 435 41 435 41 401 41 c 0,8,9
 345 41 345 41 312.5 76 c 128,-1,10
 280 111 280 111 280 184 c 0,11,12
 280 293 280 293 352 383 c 128,-1,13
 424 473 424 473 510 473 c 0,14,15
 545 473 545 473 570 453.5 c 128,-1,16
 595 434 595 434 604 410 c 1,17,-1
 616 459 l 1,18,-1
 702 459 l 1,19,-1
 621 144 l 2,20,21
 618 135 618 135 618 120.5 c 128,-1,22
 618 106 618 106 632 94.5 c 128,-1,23
 646 83 646 83 667 83 c 0,24,25
 723 83 723 83 775.5 163 c 128,-1,26
 828 243 828 243 828 329 c 0,27,28
 828 461 828 461 727.5 548.5 c 128,-1,29
 627 636 627 636 501 636 c 0,30,31
 424 636 424 636 356.5 600 c 128,-1,32
 289 564 289 564 245 507 c 128,-1,33
 201 450 201 450 176 382 c 128,-1,34
 151 314 151 314 151 256 c 256,35,36
 151 198 151 198 159 152 c 128,-1,37
 167 106 167 106 190.5 56 c 128,-1,38
 214 6 214 6 250.5 -30.5 c 128,-1,39
 287 -67 287 -67 350 -91 c 128,-1,40
 413 -115 413 -115 491 -115 c 256,41,42
 569 -115 569 -115 645.5 -89 c 128,-1,43
 722 -63 722 -63 762 -23 c 1,44,-1
 743 -88 l 1,45,46
 652 -155 652 -155 476 -155 c 256,47,48
 414 -155 414 -155 338 -132 c 0,49,50
 165 -80 165 -80 94 69 c 0,51,52
 54 150 54 150 54 260 c 256,53,54
 54 370 54 370 124 476 c 0,55,56
 202 596 202 596 338 646 c 0,57,58
 414 674 414 674 503 674 c 256,59,60
 592 674 592 674 684 628 c 0,61,62
 734 602 734 602 774.5 564 c 128,-1,63
 815 526 815 526 841.5 465 c 128,-1,64
 868 404 868 404 868 330 c 0,0,1
372 175 m 0,65,66
 372 84 372 84 429 84 c 0,67,68
 457 84 457 84 484.5 106 c 128,-1,69
 512 128 512 128 525 151 c 128,-1,70
 538 174 538 174 560 236 c 128,-1,71
 582 298 582 298 582 344 c 0,72,73
 582 427 582 427 525 427 c 0,74,75
 476 427 476 427 424 357.5 c 128,-1,76
 372 288 372 288 372 175 c 0,65,66
EndSplineSet
EndChar

StartChar: A
Encoding: 65 65 33
Width: 721
Flags: W
HStem: 0 20<15 46.167 162.611 214 450 504.494 666.427 705> 217 40<217 447> 656 20G<338.577 375.694>
DStem2: 121.5 142.5 170 146.5 0.38933 0.921098<-65.5228 99.1842 142.647 439.022> 367 676 330 531 0.398666 -0.917096<118.228 416.157 458.422 629.883>
LayerCount: 3
Fore
SplineSet
705 0 m 1
 450 0 l 1
 450 20 l 1
 501 22 521 30 521 54 c 0
 521 71 512 95 496 131 c 1
 461 217 l 1
 200 217 l 1
 186 178 144 98 144 61 c 0
 144 28 180 20 214 20 c 1
 214 0 l 1
 15 0 l 1
 15 20 l 1
 77 25 103 97 144 194 c 2
 347 676 l 1
 367 676 l 1
 610 117 l 2
 642 44 661 20 705 20 c 1
 705 0 l 1
447 257 m 1
 330 531 l 1
 217 257 l 1
 447 257 l 1
EndSplineSet
Validated: 1
Layer: 2
SplineSet
705 0 m 1,0,-1
 450 0 l 1,1,-1
 450 20 l 1,2,3
 489 22 489 22 505 29 c 128,-1,4
 521 36 521 36 521 55.5 c 256,5,6
 521 75 521 75 496 131 c 1,7,-1
 461 217 l 1,8,-1
 200 217 l 1,9,10
 196 205 196 205 170 146.5 c 128,-1,11
 144 88 144 88 144 61 c 0,12,13
 144 20 144 20 214 20 c 1,14,-1
 214 0 l 1,15,-1
 15 0 l 1,16,-1
 15 20 l 1,17,18
 56 24 56 24 84 68 c 0,19,20
 102 97 102 97 121.5 142.5 c 128,-1,21
 141 188 141 188 144 194 c 2,22,-1
 347 676 l 1,23,-1
 367 676 l 1,24,-1
 610 117 l 2,25,26
 635 60 635 60 654 40 c 128,-1,27
 673 20 673 20 705 20 c 1,28,-1
 705 0 l 1,0,-1
447 257 m 1,29,-1
 330 531 l 1,30,-1
 217 257 l 1,31,-1
 447 257 l 1,29,-1
EndSplineSet
EndChar

StartChar: B
Encoding: 66 66 34
Width: 666
Flags: W
HStem: 0 37<233.993 405.166> 0 20<20 82.8037> 326 40<218 396.152> 622 40<230.383 394.153> 642 20<20 82.8037>
VStem: 117 101<49.3794 326 366 615.81> 459 103<418.857 566.959> 481 115<98.6109 259.419>
LayerCount: 3
Fore
SplineSet
596 183 m 0x35
 596 63 492 0 335 0 c 2xb5
 20 0 l 1
 20 20 l 1
 101 20 117 51 117 80 c 2
 117 582 l 2
 117 610 101 642 20 642 c 1
 20 662 l 1x6d
 287 662 l 2
 442 662 562 621 562 493 c 0x36
 562 409 505 366 429 347 c 1
 515 330 596 278 596 183 c 0x35
459 490 m 0x36
 459 616 345 622 271 622 c 0
 233 622 218 616 218 593 c 2
 218 366 l 1
 300 366 l 2
 401 366 459 409 459 490 c 0x36
481 184 m 0xa5
 481 304 362 326 267 326 c 2
 218 326 l 1
 218 91 l 2
 218 55 227 37 300 37 c 0
 404 37 481 68 481 184 c 0xa5
EndSplineSet
Validated: 1
Layer: 2
SplineSet
596 183 m 0,0,1
 596 95 596 95 525.5 47.5 c 128,-1,2
 455 0 455 0 335 0 c 2,3,-1
 20 0 l 1,4,-1
 20 20 l 1,5,6
 117 20 117 20 117 80 c 2,7,-1
 117 582 l 2,8,9
 117 642 117 642 20 642 c 1,10,-1
 20 662 l 1,11,-1
 287 662 l 2,12,13
 562 662 562 662 562 493 c 0,14,15
 562 380 562 380 429 347 c 1,16,17
 500 333 500 333 548 291.5 c 128,-1,18
 596 250 596 250 596 183 c 0,0,1
459 490 m 0,19,20
 459 526 459 526 446 552 c 128,-1,21
 433 578 433 578 415 591 c 0,22,23
 370 622 370 622 285 622 c 0,24,25
 242 622 242 622 230 616 c 128,-1,26
 218 610 218 610 218 593 c 2,27,-1
 218 366 l 1,28,-1
 300 366 l 2,29,30
 376 366 376 366 417.5 398 c 128,-1,31
 459 430 459 430 459 490 c 0,19,20
481 184 m 0,32,33
 481 326 481 326 267 326 c 2,34,-1
 218 326 l 1,35,-1
 218 91 l 2,36,37
 218 61 218 61 233.5 49 c 128,-1,38
 249 37 249 37 300 37 c 0,39,40
 386 37 386 37 433.5 70 c 128,-1,41
 481 103 481 103 481 184 c 0,32,33
EndSplineSet
EndChar

StartChar: C
Encoding: 67 67 35
Width: 666
Flags: W
HStem: -14 45<287.505 490> 450 21G<589.5 624> 634 42<283.039 478.914>
VStem: 34 115<197.282 457.718> 601 23<450 483.067>
LayerCount: 3
Fore
SplineSet
636 111 m 1
 576 37 473 -14 376 -14 c 0
 183 -14 34 111 34 330 c 0
 34 528 174 676 375 676 c 0
 466 676 519 639 554 639 c 0
 571 639 584 647 594 674 c 1
 616 674 l 1
 624 450 l 1
 601 450 l 1
 571 559 499 634 384 634 c 0
 220 634 149 502 149 323 c 0
 149 183 223 31 386 31 c 0
 484 31 550 63 619 131 c 1
 636 111 l 1
EndSplineSet
Validated: 1
Layer: 2
SplineSet
636 111 m 1,0,1
 591 55 591 55 519.5 20.5 c 128,-1,2
 448 -14 448 -14 376 -14 c 0,3,4
 227 -14 227 -14 130.5 78 c 128,-1,5
 34 170 34 170 34 325 c 256,6,7
 34 480 34 480 129.5 578 c 128,-1,8
 225 676 225 676 375 676 c 0,9,10
 428 676 428 676 486 657.5 c 128,-1,11
 544 639 544 639 554 639 c 0,12,13
 581 639 581 639 594 674 c 1,14,-1
 616 674 l 1,15,-1
 624 450 l 1,16,-1
 601 450 l 1,17,18
 578 535 578 535 522.5 584.5 c 128,-1,19
 467 634 467 634 384 634 c 0,20,21
 266 634 266 634 207.5 549.5 c 128,-1,22
 149 465 149 465 149 323 c 0,23,24
 149 210 149 210 208.5 120.5 c 128,-1,25
 268 31 268 31 392 31 c 0,26,27
 458 31 458 31 512 55 c 128,-1,28
 566 79 566 79 619 131 c 1,29,-1
 636 111 l 1,0,1
EndSplineSet
EndChar

StartChar: D
Encoding: 68 68 36
Width: 721
Flags: W
HStem: 0 40<219.984 405.107> 0 20<20 76.9766> 624 38<220.319 391.33> 642 20<20 76.9766>
VStem: 108 102<50.9961 615.743> 579 109<204.631 455.424>
LayerCount: 3
Fore
SplineSet
688 329 m 0x2c
 688 126 553 0 286 0 c 2xac
 20 0 l 1
 20 20 l 1
 94 20 108 51 108 80 c 2
 108 582 l 2
 108 610 94 642 20 642 c 1
 20 662 l 1x5c
 278 662 l 2
 533 662 688 553 688 329 c 0x2c
210 91 m 2
 210 40 259 40 281 40 c 0
 471 40 579 150 579 327 c 0
 579 524 452 624 267 624 c 0
 220 624 210 622 210 573 c 2
 210 91 l 2
EndSplineSet
Validated: 1
Layer: 2
SplineSet
580.5 578 m 128,-1,1
 688 494 688 494 688 334 c 256,2,3
 688 174 688 174 585.5 87 c 128,-1,4
 483 0 483 0 286 0 c 2,5,-1
 20 0 l 1,6,-1
 20 20 l 1,7,8
 108 20 108 20 108 80 c 2,9,-1
 108 582 l 2,10,11
 108 642 108 642 20 642 c 1,12,-1
 20 662 l 1,13,-1
 278 662 l 2,14,0
 473 662 473 662 580.5 578 c 128,-1,1
210 91 m 2,15,16
 210 40 210 40 281 40 c 0,17,18
 422 40 422 40 500.5 116.5 c 128,-1,19
 579 193 579 193 579 332 c 256,20,21
 579 471 579 471 494.5 547.5 c 128,-1,22
 410 624 410 624 267 624 c 0,23,24
 230 624 230 624 220 616 c 128,-1,25
 210 608 210 608 210 573 c 2,26,-1
 210 91 l 2,15,16
EndSplineSet
EndChar

StartChar: E
Encoding: 69 69 37
Width: 609
Flags: W
HStem: 0 41<204.898 480.667> 0 20<12 68.9766> 326 41<203 429.777> 621 41<215.377 474.118> 642 20<12 68.9766>
VStem: 100 103<41.1523 326 367 610.17> 467 20<229 275.89 412.956 462> 521 21<519 551.639>
LayerCount: 3
Fore
SplineSet
596 169 m 1xb7
 551 0 l 1
 12 0 l 1
 12 20 l 1
 84 20 100 51 100 80 c 2
 100 582 l 2
 100 610 84 642 12 642 c 1
 12 662 l 1
 542 662 l 1x6f
 542 519 l 1
 521 519 l 1
 510 573 476 621 407 621 c 2
 246 621 l 2
 221 621 203 607 203 582 c 2
 203 367 l 1
 343 367 l 2
 410 367 467 384 467 462 c 1
 487 462 l 1
 487 229 l 1
 467 229 l 1
 467 307 410 326 343 326 c 2
 203 326 l 1
 203 80 l 2
 203 63 207 41 227 41 c 2
 359 41 l 2
 439 41 516 43 568 169 c 1
 596 169 l 1xb7
EndSplineSet
Validated: 1
Layer: 2
SplineSet
596 169 m 1,0,-1
 551 0 l 1,1,-1
 12 0 l 1,2,-1
 12 20 l 1,3,4
 100 20 100 20 100 80 c 2,5,-1
 100 582 l 2,6,7
 100 642 100 642 12 642 c 1,8,-1
 12 662 l 1,9,-1
 542 662 l 1,10,-1
 542 519 l 1,11,-1
 521 519 l 1,12,13
 512 564 512 564 483.5 592.5 c 128,-1,14
 455 621 455 621 407 621 c 2,15,-1
 246 621 l 2,16,17
 227 621 227 621 215 610.5 c 128,-1,18
 203 600 203 600 203 582 c 2,19,-1
 203 367 l 1,20,-1
 343 367 l 2,21,22
 401 367 401 367 434 387.5 c 128,-1,23
 467 408 467 408 467 462 c 1,24,-1
 487 462 l 1,25,-1
 487 229 l 1,26,-1
 467 229 l 1,27,28
 467 326 467 326 343 326 c 2,29,-1
 203 326 l 1,30,-1
 203 80 l 2,31,32
 203 41 203 41 227 41 c 2,33,-1
 359 41 l 2,34,35
 442 41 442 41 479.5 60.5 c 128,-1,36
 517 80 517 80 536 109 c 128,-1,37
 555 138 555 138 568 169 c 1,38,-1
 596 169 l 1,0,-1
EndSplineSet
EndChar

StartChar: F
Encoding: 70 70 38
Width: 556
Flags: W
HStem: 0 20<12 68.9766 234.376 292> 326 41<203 420.616> 621 41<211.769 486.021> 642 20<12 68.9766>
VStem: 100 103<35.9521 326 367 610.685> 458 21<229 275.89 412.956 462> 519 25<519 572.152>
LayerCount: 3
Fore
SplineSet
544 519 m 1xde
 519 519 l 1
 508 616 460 621 400 621 c 2
 244 621 l 2xee
 210 621 203 605 203 582 c 2
 203 367 l 1
 333 367 l 2
 401 367 458 384 458 462 c 1
 479 462 l 1
 479 229 l 1
 458 229 l 1
 458 307 401 326 333 326 c 2
 203 326 l 1
 203 80 l 2
 203 51 217 20 292 20 c 1
 292 0 l 1
 12 0 l 1
 12 20 l 1
 84 20 100 51 100 80 c 2
 100 582 l 2
 100 610 84 642 12 642 c 1
 12 662 l 1
 544 662 l 1
 544 519 l 1xde
EndSplineSet
Validated: 1
Layer: 2
SplineSet
544 519 m 1,0,-1
 519 519 l 1,1,2
 511 588 511 588 480.5 604.5 c 128,-1,3
 450 621 450 621 400 621 c 2,4,-1
 244 621 l 2,5,6
 220 621 220 621 211.5 611 c 128,-1,7
 203 601 203 601 203 582 c 2,8,-1
 203 367 l 1,9,-1
 333 367 l 2,10,11
 391 367 391 367 424.5 387.5 c 128,-1,12
 458 408 458 408 458 462 c 1,13,-1
 479 462 l 1,14,-1
 479 229 l 1,15,-1
 458 229 l 1,16,17
 458 326 458 326 333 326 c 2,18,-1
 203 326 l 1,19,-1
 203 80 l 2,20,21
 203 20 203 20 292 20 c 1,22,-1
 292 0 l 1,23,-1
 12 0 l 1,24,-1
 12 20 l 1,25,26
 100 20 100 20 100 80 c 2,27,-1
 100 582 l 2,28,29
 100 642 100 642 12 642 c 1,30,-1
 12 662 l 1,31,-1
 544 662 l 1,32,-1
 544 519 l 1,0,-1
EndSplineSet
EndChar

StartChar: G
Encoding: 71 71 39
Width: 721
Flags: W
HStem: -14 42<291.44 503.968> 336 20<449 508.392 657.152 703> 636 40<281.67 475.493>
VStem: 28 115<199.779 457.625> 536 97<67.2537 322.284> 602 22<464 489.825>
LayerCount: 3
Fore
SplineSet
703 336 m 1xf8
 639 336 633 304 633 247 c 2
 633 57 l 1xf8
 576 25 464 -14 382 -14 c 0
 212 -14 28 94 28 329 c 0
 28 527 170 676 370 676 c 0
 451 676 513 643 552 643 c 0
 572 643 586 651 594 676 c 1
 616 676 l 1xf4
 624 464 l 1
 602 464 l 1xf2
 564 570 498 636 379 636 c 0
 214 636 143 496 143 321 c 0
 143 167 227 28 395 28 c 0
 432 28 473 34 507 49 c 1
 536 63 536 69 536 98 c 2
 536 247 l 2
 536 304 531 336 449 336 c 1
 449 356 l 1
 703 356 l 1
 703 336 l 1xf8
EndSplineSet
Validated: 1
Layer: 2
SplineSet
703 336 m 1,0,1
 659 336 659 336 646 315.5 c 128,-1,2
 633 295 633 295 633 247 c 2,3,-1
 633 57 l 1,4,5
 585 30 585 30 512.5 8 c 128,-1,6
 440 -14 440 -14 378 -14 c 256,7,8
 248 -14 248 -14 142 68 c 0,9,10
 90 108 90 108 59 176 c 128,-1,11
 28 244 28 244 28 329 c 0,12,13
 28 478 28 478 124.5 577 c 128,-1,14
 221 676 221 676 370 676 c 0,15,16
 416 676 416 676 477 659.5 c 128,-1,17
 538 643 538 643 552 643 c 0,18,19
 583 643 583 643 594 676 c 1,20,-1
 616 676 l 1,21,-1
 624 464 l 1,22,-1
 602 464 l 1,23,24
 540 636 540 636 379 636 c 0,25,26
 261 636 261 636 202 549 c 128,-1,27
 143 462 143 462 143 330 c 256,28,29
 143 198 143 198 209 113 c 128,-1,30
 275 28 275 28 395 28 c 0,31,32
 459 28 459 28 493.5 43.5 c 128,-1,33
 528 59 528 59 532 67 c 128,-1,34
 536 75 536 75 536 98 c 2,35,-1
 536 247 l 2,36,37
 536 296 536 296 521 316 c 128,-1,38
 506 336 506 336 449 336 c 1,39,-1
 449 356 l 1,40,-1
 703 356 l 1,41,-1
 703 336 l 1,0,1
EndSplineSet
EndChar

StartChar: H
Encoding: 72 72 40
Width: 721
Flags: W
HStem: 0 20<20 76.9766 241.023 298 424 481.624 645.023 702> 318 41<210 513> 642 20<20 76.9766 241.023 298 424 481.624 645.023 702>
VStem: 108 102<35.9521 318 359 626.048> 513 101<35.9521 318 359 626.048>
LayerCount: 3
Fore
SplineSet
702 0 m 1
 424 0 l 1
 424 20 l 1
 498 20 513 51 513 80 c 2
 513 318 l 1
 210 318 l 1
 210 80 l 2
 210 51 224 20 298 20 c 1
 298 0 l 1
 20 0 l 1
 20 20 l 1
 94 20 108 51 108 80 c 2
 108 582 l 2
 108 610 94 642 20 642 c 1
 17 662 l 1
 298 662 l 1
 298 642 l 1
 224 642 210 610 210 582 c 2
 210 359 l 1
 513 359 l 1
 513 582 l 2
 513 610 498 642 424 642 c 1
 424 662 l 1
 702 662 l 1
 702 642 l 1
 630 642 614 610 614 582 c 2
 614 80 l 2
 614 51 630 20 702 20 c 1
 702 0 l 1
EndSplineSet
Validated: 1
Layer: 2
SplineSet
702 0 m 1,0,-1
 424 0 l 1,1,-1
 424 20 l 1,2,3
 513 20 513 20 513 80 c 2,4,-1
 513 318 l 1,5,-1
 210 318 l 1,6,-1
 210 80 l 2,7,8
 210 20 210 20 298 20 c 1,9,-1
 298 0 l 1,10,-1
 20 0 l 1,11,-1
 20 20 l 1,12,13
 108 20 108 20 108 80 c 2,14,-1
 108 582 l 2,15,16
 108 642 108 642 20 642 c 1,17,-1
 17 662 l 1,18,-1
 298 662 l 1,19,-1
 298 642 l 1,20,21
 210 642 210 642 210 582 c 2,22,-1
 210 359 l 1,23,-1
 513 359 l 1,24,-1
 513 582 l 2,25,26
 513 642 513 642 424 642 c 1,27,-1
 424 662 l 1,28,-1
 702 662 l 1,29,-1
 702 642 l 1,30,31
 614 642 614 642 614 582 c 2,32,-1
 614 80 l 2,33,34
 614 20 614 20 702 20 c 1,35,-1
 702 0 l 1,0,-1
EndSplineSet
EndChar

StartChar: I
Encoding: 73 73 41
Width: 333
Flags: W
HStem: 0 20<18 82.0986 252.549 316> 642 20<18 82.0986 252.549 316>
VStem: 117 101<36.9336 625.066>
LayerCount: 3
Fore
SplineSet
316 0 m 1
 18 0 l 1
 18 20 l 1
 101 20 117 51 117 80 c 2
 117 582 l 2
 117 610 101 642 18 642 c 1
 18 662 l 1
 316 662 l 1
 316 642 l 1
 233 642 218 610 218 582 c 2
 218 80 l 2
 218 51 233 20 316 20 c 1
 316 0 l 1
EndSplineSet
Validated: 1
Layer: 2
SplineSet
316 0 m 1,0,-1
 18 0 l 1,1,-1
 18 20 l 1,2,3
 117 20 117 20 117 80 c 2,4,-1
 117 582 l 2,5,6
 117 642 117 642 18 642 c 1,7,-1
 18 662 l 1,8,-1
 316 662 l 1,9,-1
 316 642 l 1,10,11
 218 642 218 642 218 582 c 2,12,-1
 218 80 l 2,13,14
 218 20 218 20 316 20 c 1,15,-1
 316 0 l 1,0,-1
EndSplineSet
EndChar

StartChar: J
Encoding: 74 74 42
Width: 388
Flags: W
HStem: -14 39<109.379 161.032> 642 20<78 142.099 312.549 376>
VStem: 11 92<28.0432 100.251> 177 101<82.1541 625.066>
LayerCount: 3
Fore
SplineSet
105 80 m 0
 105 77 103 75 103 68 c 0
 103 48 117 25 135 25 c 0
 164 25 177 72 177 114 c 2
 177 582 l 2
 177 610 161 642 78 642 c 1
 78 662 l 1
 376 662 l 1
 376 642 l 1
 293 642 278 610 278 582 c 2
 278 198 l 2
 278 57 204 -14 112 -14 c 0
 18 -14 11 49 11 60 c 0
 11 83 31 108 58 108 c 0
 85 108 105 90 105 80 c 0
EndSplineSet
Validated: 1
Layer: 2
SplineSet
105 80 m 1,0,1
 105 80 105 80 103 68 c 1,2,3
 103 52 103 52 112.5 38.5 c 128,-1,4
 122 25 122 25 138 25 c 256,5,6
 154 25 154 25 165.5 52 c 128,-1,7
 177 79 177 79 177 114 c 2,8,-1
 177 582 l 2,9,10
 177 642 177 642 78 642 c 1,11,-1
 78 662 l 1,12,-1
 376 662 l 1,13,-1
 376 642 l 1,14,15
 278 642 278 642 278 582 c 2,16,-1
 278 198 l 2,17,18
 278 96 278 96 231 41 c 128,-1,19
 184 -14 184 -14 116 -14 c 256,20,21
 48 -14 48 -14 26 20 c 0,22,23
 11 44 11 44 11 61 c 256,24,25
 11 78 11 78 24.5 93 c 128,-1,26
 38 108 38 108 58 108 c 256,27,28
 78 108 78 108 91.5 98.5 c 128,-1,29
 105 89 105 89 105 80 c 1,0,1
EndSplineSet
EndChar

StartChar: K
Encoding: 75 75 43
Width: 721
Flags: W
HStem: 0 20<20 78.9189 244.081 303 404 465.83 660.351 708> 642 20<20 78.9189 244.434 304 399 455.675 603.18 660>
VStem: 111 101<35.9521 296 347 626.048>
DStem2: 319 376 238 316 0.681325 -0.731981<0 348.904>
LayerCount: 3
Fore
SplineSet
708 0 m 1
 404 0 l 1
 404 20 l 1
 457 20 475 29 475 44 c 0
 475 79 342 214 335 221 c 2
 238 316 l 1
 212 296 l 1
 212 80 l 2
 212 51 227 20 303 20 c 1
 303 0 l 1
 20 0 l 1
 20 20 l 1
 95 20 111 51 111 80 c 2
 111 582 l 2
 111 610 95 642 20 642 c 1
 20 662 l 1
 304 662 l 1
 304 642 l 1
 227 642 212 610 212 582 c 2
 212 347 l 1
 253 387 467 562 467 608 c 0
 467 645 424 641 399 642 c 1
 399 662 l 1
 660 662 l 1
 660 642 l 1
 587 642 548 604 499 556 c 2
 319 376 l 1
 544 137 l 1
 596 78 637 20 708 20 c 1
 708 0 l 1
EndSplineSet
Validated: 1
Layer: 2
SplineSet
708 0 m 1,0,-1
 404 0 l 1,1,-1
 404 20 l 1,2,3
 475 20 475 20 475 44 c 0,4,5
 474 60 474 60 431.5 113.5 c 128,-1,6
 389 167 389 167 335 221 c 2,7,-1
 238 316 l 1,8,-1
 212 296 l 1,9,-1
 212 80 l 2,10,11
 212 20 212 20 303 20 c 1,12,-1
 303 0 l 1,13,-1
 20 0 l 1,14,-1
 20 20 l 1,15,16
 111 20 111 20 111 80 c 2,17,-1
 111 582 l 2,18,19
 111 642 111 642 20 642 c 1,20,-1
 20 662 l 1,21,-1
 304 662 l 1,22,-1
 304 642 l 1,23,24
 212 642 212 642 212 582 c 2,25,-1
 212 347 l 1,26,27
 216 350 216 350 290 416 c 0,28,29
 466 571 466 571 467 608 c 0,30,31
 467 624 467 624 460 629 c 128,-1,32
 453 634 453 634 448.5 636.5 c 128,-1,33
 444 639 444 639 436 640 c 0,34,35
 420 642 420 642 410 642 c 2,36,-1
 399 642 l 1,37,-1
 399 662 l 1,38,-1
 660 662 l 1,39,-1
 660 642 l 1,40,41
 626 642 626 642 595.5 629 c 128,-1,42
 565 616 565 616 547.5 601.5 c 128,-1,43
 530 587 530 587 499 556 c 2,44,-1
 319 376 l 1,45,-1
 544 137 l 2,46,47
 549 132 549 132 565.5 112.5 c 128,-1,48
 582 93 582 93 588 87 c 0,49,50
 617 56 617 56 628 49 c 128,-1,51
 639 42 639 42 658.5 31 c 128,-1,52
 678 20 678 20 708 20 c 1,53,-1
 708 0 l 1,0,-1
EndSplineSet
EndChar

StartChar: L
Encoding: 76 76 44
Width: 609
Flags: W
HStem: 0 41<210.91 476.247> 0 20<12 68.9766> 642 20<12 68.9766 233.671 290>
VStem: 100 103<52.3584 626.048>
LayerCount: 3
Fore
SplineSet
598 174 m 1xb0
 550 0 l 1
 12 0 l 1
 12 20 l 1x70
 84 20 100 51 100 80 c 2
 100 582 l 2
 100 610 84 642 12 642 c 1
 12 662 l 1
 290 662 l 1
 290 642 l 1
 217 642 203 610 203 582 c 2
 203 80 l 2
 203 52 240 41 303 41 c 2
 324 41 l 2
 439 41 521 45 573 174 c 1
 598 174 l 1xb0
EndSplineSet
Validated: 1
Layer: 2
SplineSet
598 174 m 1,0,-1
 550 0 l 1,1,-1
 12 0 l 1,2,-1
 12 20 l 1,3,4
 100 20 100 20 100 80 c 2,5,-1
 100 582 l 2,6,7
 100 642 100 642 12 642 c 1,8,-1
 12 662 l 1,9,-1
 290 662 l 1,10,-1
 290 642 l 1,11,12
 203 642 203 642 203 582 c 2,13,-1
 203 80 l 2,14,15
 203 41 203 41 303 41 c 2,16,-1
 324 41 l 2,17,18
 452 41 452 41 498.5 73 c 128,-1,19
 545 105 545 105 573 174 c 1,20,-1
 598 174 l 1,0,-1
EndSplineSet
EndChar

StartChar: M
Encoding: 77 77 45
Width: 887
Flags: W
HStem: 0 20<20 82.8037 194.196 257 593 649.329 812.671 869> 642 20<22 83.5088 812.671 869>
VStem: 117 43<36.9336 545> 680 102<35 568>
DStem2: 220 662 160 545 0.416942 -0.908933<81.3287 554.908> 450 157 424 0 0.410899 0.911681<0 469.208>
LayerCount: 3
Fore
SplineSet
869 0 m 1
 593 0 l 1
 593 20 l 1
 665 20 680 51 680 80 c 2
 680 568 l 1
 424 0 l 1
 410 0 l 1
 160 545 l 1
 160 80 l 2
 160 51 175 20 257 20 c 1
 257 0 l 1
 20 0 l 1
 20 20 l 1
 101 20 117 51 117 80 c 2
 117 582 l 2
 117 610 101 642 22 642 c 1
 22 662 l 1
 220 662 l 1
 450 157 l 1
 670 662 l 1
 869 662 l 1
 869 642 l 1
 796 642 782 610 782 582 c 2
 782 80 l 2
 782 51 797 20 869 20 c 1
 869 0 l 1
EndSplineSet
Validated: 1
Layer: 2
SplineSet
869 0 m 1,0,-1
 593 0 l 1,1,-1
 593 20 l 1,2,3
 680 20 680 20 680 80 c 2,4,-1
 680 568 l 1,5,-1
 424 0 l 1,6,-1
 410 0 l 1,7,-1
 160 545 l 1,8,-1
 160 80 l 2,9,10
 160 20 160 20 257 20 c 1,11,-1
 257 0 l 1,12,-1
 20 0 l 1,13,-1
 20 20 l 1,14,15
 117 20 117 20 117 80 c 2,16,-1
 117 582 l 2,17,18
 117 642 117 642 22 642 c 1,19,-1
 22 662 l 1,20,-1
 220 662 l 1,21,-1
 450 157 l 1,22,-1
 670 662 l 1,23,-1
 869 662 l 1,24,-1
 869 642 l 1,25,26
 782 642 782 642 782 582 c 2,27,-1
 782 80 l 2,28,29
 782 20 782 20 869 20 c 1,30,-1
 869 0 l 1,0,-1
EndSplineSet
EndChar

StartChar: N
Encoding: 78 78 46
Width: 721
Flags: W
HStem: -14 21G<579.927 611> 0 20<12 74.8037 187.844 250> 642 20<12 65.3889 470 532.804 645.196 708>
VStem: 109 45<36.9336 536> 567 44<181 625.066>
DStem2: 183 662 101 598 0.628869 -0.777511<0 11.777 79.7292 615.469>
LayerCount: 3
Fore
SplineSet
708 642 m 1x78
 627 642 611 610 611 582 c 2
 611 -14 l 1
 596 -14 l 1xb8
 154 536 l 1
 154 80 l 2
 154 51 167 20 250 20 c 1
 250 0 l 1
 12 0 l 1
 12 20 l 1
 94 20 109 51 109 80 c 2
 109 587 l 1
 101 598 l 1
 71 633 61 642 12 642 c 1
 12 662 l 1
 183 662 l 1
 567 181 l 1
 567 582 l 2
 567 610 553 642 470 642 c 1
 470 662 l 1
 708 662 l 1
 708 642 l 1x78
EndSplineSet
Validated: 1
Layer: 2
SplineSet
708 642 m 1,0,1
 611 642 611 642 611 582 c 2,2,-1
 611 -14 l 1,3,-1
 596 -14 l 1,4,-1
 154 536 l 1,5,-1
 154 80 l 2,6,7
 154 20 154 20 250 20 c 1,8,-1
 250 0 l 1,9,-1
 12 0 l 1,10,-1
 12 20 l 1,11,12
 109 20 109 20 109 80 c 2,13,-1
 109 587 l 1,14,-1
 101 598 l 2,15,16
 77 626 77 626 62 634 c 128,-1,17
 47 642 47 642 12 642 c 1,18,-1
 12 662 l 1,19,-1
 183 662 l 1,20,-1
 567 181 l 1,21,-1
 567 582 l 2,22,23
 567 642 567 642 470 642 c 1,24,-1
 470 662 l 1,25,-1
 708 662 l 1,26,-1
 708 642 l 1,0,1
EndSplineSet
EndChar

StartChar: O
Encoding: 79 79 47
Width: 721
Flags: W
HStem: -14 36<274.622 433.554> 639 37<273.898 445.005>
VStem: 34 113<198.004 464.197> 574 112<196.794 469.306>
LayerCount: 3
Fore
SplineSet
687 330 m 0
 687 138 561 -14 361 -14 c 0
 184 -14 34 120 34 330 c 0
 34 525 157 676 361 676 c 0
 585 676 687 497 687 330 c 0
574 330 m 0
 574 486 517 639 365 639 c 0
 278 639 147 594 147 330 c 0
 147 132 236 22 348 22 c 0
 485 22 574 137 574 330 c 0
EndSplineSet
Validated: 1
Layer: 2
SplineSet
686 323 m 256,0,1
 686 183 686 183 597 84.5 c 128,-1,2
 508 -14 508 -14 366 -14 c 256,3,4
 224 -14 224 -14 129 81 c 128,-1,5
 34 176 34 176 34 328 c 256,6,7
 34 480 34 480 122.5 578 c 128,-1,8
 211 676 211 676 361 676 c 0,9,10
 442 676 442 676 506 646 c 128,-1,11
 570 616 570 616 628 539.5 c 128,-1,12
 686 463 686 463 686 323 c 256,0,1
513 104 m 128,-1,14
 574 186 574 186 574 339 c 256,15,16
 574 492 574 492 512 565.5 c 128,-1,17
 450 639 450 639 370 639 c 256,18,19
 267 639 267 639 221.5 580.5 c 128,-1,20
 176 522 176 522 161.5 464 c 128,-1,21
 147 406 147 406 147 330 c 0,22,23
 147 186 147 186 204 104 c 128,-1,24
 261 22 261 22 348 22 c 0,25,13
 452 22 452 22 513 104 c 128,-1,14
EndSplineSet
EndChar

StartChar: P
Encoding: 80 80 48
Width: 556
Flags: W
HStem: 0 20<11 68.624 232.023 289> 293 37<201 360.54> 624 38<207.709 355.37> 642 20<17 70.7393>
VStem: 100 101<35.9521 293 330 616.775> 433 109<395.417 559.252>
LayerCount: 3
Fore
SplineSet
542 487 m 0xec
 542 339 416 289 287 289 c 0
 260 289 230 290 201 293 c 1
 201 80 l 2
 201 51 217 20 289 20 c 1
 289 0 l 1
 11 0 l 1
 11 20 l 1
 84 20 100 51 100 80 c 2
 100 582 l 2
 100 610 84 642 17 642 c 1
 17 662 l 1xdc
 267 662 l 2
 422 662 542 605 542 487 c 0xec
433 479 m 0
 433 593 341 624 244 624 c 0xec
 203 624 201 619 201 579 c 2
 201 330 l 1
 217 330 233 327 250 327 c 0
 358 327 433 364 433 479 c 0
EndSplineSet
Validated: 1
Layer: 2
SplineSet
542 487 m 0,0,1
 542 417 542 417 504 370.5 c 128,-1,2
 466 324 466 324 411 306.5 c 128,-1,3
 356 289 356 289 298 289 c 128,-1,4
 240 289 240 289 201 293 c 1,5,-1
 201 80 l 2,6,7
 201 20 201 20 289 20 c 1,8,-1
 289 0 l 1,9,-1
 11 0 l 1,10,-1
 11 20 l 1,11,12
 100 20 100 20 100 80 c 2,13,-1
 100 582 l 2,14,15
 100 642 100 642 17 642 c 1,16,-1
 17 662 l 1,17,-1
 267 662 l 2,18,19
 389 662 389 662 465.5 617 c 128,-1,20
 542 572 542 572 542 487 c 0,0,1
201 330 m 1,21,-1
 250 327 l 1,22,23
 433 327 433 327 433 479 c 0,24,25
 433 624 433 624 244 624 c 0,26,27
 214 624 214 624 207.5 617 c 128,-1,28
 201 610 201 610 201 579 c 2,29,-1
 201 330 l 1,21,-1
EndSplineSet
EndChar

StartChar: Q
Encoding: 81 81 49
Width: 721
Flags: W
HStem: -177 17<636.815 700> -8 31<424 439.953> 639 37<277.383 443.826>
VStem: 34 113<196.881 464.079> 574 113<197.443 463.271>
LayerCount: 3
Fore
SplineSet
700 -177 m 1
 527 -177 407 -147 323 -65 c 1
 304 -48 284 -20 267 -8 c 1
 257 3 243 8 233 9 c 1
 103 45 34 194 34 330 c 0
 34 525 157 676 361 676 c 0
 562 676 687 524 687 330 c 0
 687 138 556 -3 424 -8 c 1
 496 -100 581 -157 700 -160 c 1
 700 -177 l 1
574 330 m 0
 574 528 490 639 361 639 c 1
 224 637 147 530 147 330 c 0
 147 134 230 23 361 23 c 0
 499 23 574 147 574 330 c 0
EndSplineSet
Validated: 1
Layer: 2
SplineSet
700 -177 m 1,0,1
 566 -177 566 -177 475 -151 c 128,-1,2
 384 -125 384 -125 323 -65 c 0,3,4
 315 -58 315 -58 295.5 -36.5 c 128,-1,5
 276 -15 276 -15 267 -8 c 0,6,7
 253 7 253 7 233 9 c 0,8,9
 140 35 140 35 87 128 c 128,-1,10
 34 221 34 221 34 330 c 0,11,12
 34 480 34 480 122.5 578 c 128,-1,13
 211 676 211 676 361 676 c 0,14,15
 509 676 509 676 598 577.5 c 128,-1,16
 687 479 687 479 687 330 c 0,17,18
 687 191 687 191 607 93.5 c 128,-1,19
 527 -4 527 -4 424 -8 c 1,20,21
 540 -156 540 -156 700 -160 c 1,22,-1
 700 -177 l 1,0,1
574 330 m 0,23,24
 574 477 574 477 516.5 558 c 128,-1,25
 459 639 459 639 361 639 c 0,26,27
 258 637 258 637 202.5 558 c 128,-1,28
 147 479 147 479 147 330 c 0,29,30
 147 184 147 184 204.5 103.5 c 128,-1,31
 262 23 262 23 361 23 c 0,32,33
 463 23 463 23 518.5 106.5 c 128,-1,34
 574 190 574 190 574 330 c 0,23,24
EndSplineSet
EndChar

StartChar: R
Encoding: 82 82 50
Width: 666
Flags: W
HStem: 0 20<12 67.0342 230.671 287 613.901 653> 306 37<200 255> 624 38<211.356 363.164> 642 20<12 67.0342>
VStem: 97 103<35 306 343 617.29> 433 109<409.119 565.842>
DStem2: 361 319 255 307 0.612692 -0.790322<0 332.988>
LayerCount: 3
Fore
SplineSet
653 0 m 1xec
 493 0 l 1
 255 307 l 1
 200 306 l 1
 200 80 l 2
 200 51 214 20 287 20 c 1
 287 0 l 1
 12 0 l 1
 12 20 l 1
 83 20 97 51 97 80 c 2
 97 582 l 2
 97 610 83 642 12 642 c 1
 12 662 l 1xdc
 276 662 l 2
 442 662 542 604 542 487 c 0
 542 381 455 332 361 319 c 1
 559 75 l 2
 585 43 608 23 653 20 c 1
 653 0 l 1xec
433 485 m 0
 433 584 362 624 273 624 c 0xec
 207 624 200 624 200 576 c 2
 200 343 l 1
 344 347 433 378 433 485 c 0
EndSplineSet
Validated: 1
Layer: 2
SplineSet
653 0 m 1,0,-1
 493 0 l 1,1,-1
 255 307 l 1,2,-1
 200 306 l 1,3,-1
 200 80 l 2,4,5
 200 20 200 20 287 20 c 1,6,-1
 287 0 l 1,7,-1
 12 0 l 1,8,-1
 12 20 l 1,9,10
 97 20 97 20 97 80 c 2,11,-1
 97 582 l 2,12,13
 97 642 97 642 12 642 c 1,14,-1
 12 662 l 1,15,-1
 276 662 l 2,16,17
 403 662 403 662 472.5 617.5 c 128,-1,18
 542 573 542 573 542 493 c 256,19,20
 542 413 542 413 490.5 371.5 c 128,-1,21
 439 330 439 330 361 319 c 1,22,-1
 559 75 l 2,23,24
 601 23 601 23 653 20 c 1,25,-1
 653 0 l 1,0,-1
374.5 377.5 m 128,-1,27
 433 409 433 409 433 482 c 256,28,29
 433 555 433 555 389.5 589.5 c 128,-1,30
 346 624 346 624 284 624 c 256,31,32
 222 624 222 624 211 617.5 c 128,-1,33
 200 611 200 611 200 576 c 2,34,-1
 200 343 l 1,35,26
 316 346 316 346 374.5 377.5 c 128,-1,27
EndSplineSet
EndChar

StartChar: S
Encoding: 83 83 51
Width: 556
Flags: W
HStem: -14 39<188.387 339.751> 634 42<191.226 340.834>
VStem: 71 86<482.711 592.579> 72 22<-14 12.2244> 389 101<86.6959 206.509> 444 24<462 499.549>
DStem2: 263 413 183.5 338 0.857842 -0.513914<-118.856 201.993>
LayerCount: 3
Fore
SplineSet
389 136 m 0xd8
 389 311 71 303 71 508 c 0
 71 607 151 676 247 676 c 0
 318 676 363 643 392 643 c 0
 407 643 417 651 425 676 c 1
 447 676 l 1
 468 462 l 1
 444 462 l 1
 421 556 355 634 263 634 c 0
 203 634 157 602 157 539 c 0xe4
 157 481 220 439 263 413 c 0
 399 332 490 289 490 169 c 0
 490 80 416 -14 280 -14 c 0
 211 -14 156 19 124 19 c 0
 108 19 97 11 94 -14 c 1
 72 -14 l 1
 43 201 l 1
 65 201 l 1
 97 108 166 25 272 25 c 0
 340 25 389 74 389 136 c 0xd8
EndSplineSet
Validated: 1
Layer: 2
SplineSet
272 25 m 0,0,1
 323 25 323 25 356 56.5 c 128,-1,2
 389 88 389 88 389 136 c 256,3,4
 389 184 389 184 356 221 c 128,-1,5
 323 258 323 258 276.5 284.5 c 128,-1,6
 230 311 230 311 183.5 338 c 128,-1,7
 137 365 137 365 104 408 c 128,-1,8
 71 451 71 451 71 516 c 256,9,10
 71 581 71 581 122.5 628.5 c 128,-1,11
 174 676 174 676 247 676 c 0,12,13
 288 676 288 676 335.5 659.5 c 128,-1,14
 383 643 383 643 392 643 c 0,15,16
 414 643 414 643 425 676 c 1,17,-1
 447 676 l 1,18,-1
 468 462 l 1,19,-1
 444 462 l 1,20,21
 426 536 426 536 377.5 585 c 128,-1,22
 329 634 329 634 263 634 c 0,23,24
 216 634 216 634 186.5 609.5 c 128,-1,25
 157 585 157 585 157 539 c 0,26,27
 157 477 157 477 263 413 c 0,28,29
 272 407 272 407 301.5 390 c 128,-1,30
 331 373 331 373 339.5 368 c 128,-1,31
 348 363 348 363 371.5 348 c 128,-1,32
 395 333 395 333 402 326.5 c 128,-1,33
 409 320 409 320 426.5 306 c 128,-1,34
 444 292 444 292 449.5 283 c 128,-1,35
 455 274 455 274 466 259 c 128,-1,36
 477 244 477 244 483.5 217 c 128,-1,37
 490 190 490 190 490 169 c 0,38,39
 490 97 490 97 433 41.5 c 128,-1,40
 376 -14 376 -14 280 -14 c 0,41,42
 241 -14 241 -14 188 2.5 c 128,-1,43
 135 19 135 19 124 19 c 0,44,45
 98 19 98 19 94 -14 c 1,46,-1
 72 -14 l 1,47,-1
 43 201 l 1,48,-1
 65 201 l 1,49,50
 91 125 91 125 144 75 c 128,-1,51
 197 25 197 25 272 25 c 0,0,1
EndSplineSet
EndChar

StartChar: T
Encoding: 84 84 52
Width: 610
Flags: W
HStem: 0 19<166 217.408 393.898 444> 620 42<89.8418 253 356 520.704>
VStem: 18 23<492 535.488> 253 103<52.3452 620> 570 23<492 533.902>
LayerCount: 3
Fore
SplineSet
253 620 m 1
 201 620 l 2
 88 620 64 601 41 492 c 1
 18 492 l 1
 23 662 l 1
 587 662 l 1
 593 492 l 1
 570 492 l 1
 546 602 524 620 410 620 c 2
 356 620 l 1
 356 80 l 2
 356 51 370 23 444 19 c 1
 444 0 l 1
 166 0 l 1
 166 19 l 1
 245 23 253 51 253 80 c 2
 253 620 l 1
EndSplineSet
Validated: 1
Layer: 2
SplineSet
253 620 m 1,0,-1
 201 620 l 2,1,2
 116 620 116 620 87 597 c 128,-1,3
 58 574 58 574 41 492 c 1,4,-1
 18 492 l 1,5,-1
 23 662 l 1,6,-1
 587 662 l 1,7,-1
 593 492 l 1,8,-1
 570 492 l 1,9,10
 552 575 552 575 523.5 597.5 c 128,-1,11
 495 620 495 620 410 620 c 2,12,-1
 356 620 l 1,13,-1
 356 80 l 2,14,15
 356 24 356 24 444 19 c 1,16,-1
 444 0 l 1,17,-1
 166 0 l 1,18,-1
 166 19 l 1,19,20
 203 21 203 21 223.5 31 c 128,-1,21
 244 41 244 41 248.5 52 c 128,-1,22
 253 63 253 63 253 80 c 2,23,-1
 253 620 l 1,0,-1
EndSplineSet
EndChar

StartChar: U
Encoding: 85 85 53
Width: 721
Flags: W
HStem: -14 45<279.036 477.088> 642 20<17 73.3291 236.671 293 473 533.861 642.786 703>
VStem: 104 102<115.087 627> 567 43<120.805 625.066>
LayerCount: 3
Fore
SplineSet
703 642 m 1
 625 642 610 610 610 582 c 2
 610 267 l 2
 610 154 601 66 487 12 c 0
 456 -3 402 -14 359 -14 c 0
 178 -14 104 71 104 253 c 2
 104 582 l 2
 104 610 89 642 17 642 c 1
 17 662 l 1
 293 662 l 1
 293 642 l 1
 221 642 206 610 206 582 c 2
 206 246 l 2
 206 91 253 31 379 31 c 0
 565 31 567 172 567 267 c 2
 567 582 l 2
 567 610 551 642 473 642 c 1
 473 662 l 1
 703 662 l 1
 703 642 l 1
EndSplineSet
Validated: 1
Layer: 2
SplineSet
703 642 m 1,0,1
 610 642 610 642 610 582 c 2,2,-1
 610 267 l 2,3,4
 610 166 610 166 587.5 107.5 c 128,-1,5
 565 49 565 49 487 12 c 0,6,7
 433 -14 433 -14 359 -14 c 0,8,9
 225 -14 225 -14 164.5 50.5 c 128,-1,10
 104 115 104 115 104 253 c 2,11,-1
 104 582 l 2,12,13
 104 642 104 642 17 642 c 1,14,-1
 17 662 l 1,15,-1
 293 662 l 1,16,-1
 293 642 l 1,17,18
 206 642 206 642 206 582 c 2,19,-1
 206 246 l 2,20,21
 206 129 206 129 245.5 80 c 128,-1,22
 285 31 285 31 379 31 c 0,23,24
 432 31 432 31 469.5 47.5 c 128,-1,25
 507 64 507 64 525.5 85.5 c 128,-1,26
 544 107 544 107 554 144 c 128,-1,27
 564 181 564 181 565.5 204.5 c 128,-1,28
 567 228 567 228 567 267 c 2,29,-1
 567 582 l 2,30,31
 567 642 567 642 473 642 c 1,32,-1
 473 662 l 1,33,-1
 703 662 l 1,34,-1
 703 642 l 1,0,1
EndSplineSet
EndChar

StartChar: V
Encoding: 86 86 54
Width: 721
Flags: W
HStem: -14 21G<364.054 393.911> 642 20<20 58.0156 223.355 286 496 547.759 661.643 700>
DStem2: 257 487 131 527 0.408329 -0.912835<-125.959 356.792> 402 161 386 -14 0.367819 0.929897<0 467.336>
LayerCount: 3
Fore
SplineSet
700 642 m 1
 653 642 633 610 617 570 c 2
 386 -14 l 1
 373 -14 l 1
 131 527 l 2
 104 587 78 642 20 642 c 1
 20 662 l 1
 286 662 l 1
 286 642 l 1
 223 642 210 630 210 605 c 0
 210 584 248 507 257 487 c 2
 402 161 l 1
 544 516 l 2
 553 538 568 576 568 599 c 0
 568 637 524 642 496 642 c 1
 496 662 l 1
 700 662 l 1
 700 642 l 1
EndSplineSet
Layer: 2
SplineSet
700 642 m 1,0,1
 668 642 668 642 649.5 623.5 c 128,-1,2
 631 605 631 605 617 570 c 2,3,-1
 386 -14 l 1,4,-1
 373 -14 l 1,5,-1
 131 527 l 2,6,7
 92 616 92 616 58 634 c 0,8,9
 42 642 42 642 20 642 c 1,10,-1
 20 662 l 1,11,-1
 286 662 l 1,12,-1
 286 642 l 1,13,14
 241 642 241 642 225.5 633.5 c 128,-1,15
 210 625 210 625 210 603 c 257,16,17
 214 583 214 583 257 487 c 2,18,-1
 402 161 l 1,19,-1
 544 516 l 2,20,21
 568 575 568 575 568 599 c 0,22,23
 568 642 568 642 496 642 c 1,24,-1
 496 662 l 1,25,-1
 700 662 l 1,26,-1
 700 642 l 1,0,1
EndSplineSet
EndChar

StartChar: W
Encoding: 87 87 55
Width: 943
Flags: W
HStem: -14 21G<298.887 326.23 626.441 654.021> 642 20<9 45.4545 201.835 253 316 367.887 523.919 584 737 786.582 893.727 935>
DStem2: 204 553 152 419 0.335096 -0.942184<-54.543 389.868> 344 189 319 -14 0.33997 0.940436<0 253.573> 516 570 450 470 0.359492 -0.933148<-38.2837 69.5884 131.979 411.893> 665 186 647 -14 0.331214 0.943556<0 424.633>
LayerCount: 3
Fore
SplineSet
804 598 m 0
 804 640 765 641 737 642 c 1
 737 662 l 1
 935 662 l 1
 935 642 l 1
 873 639 861 596 852 570 c 2
 647 -14 l 1
 634 -14 l 1
 473 412 l 1
 319 -14 l 1
 306 -14 l 1
 152 419 l 2
 82 617 69 636 9 642 c 1
 9 662 l 1
 253 662 l 1
 253 642 l 1
 240 642 l 1
 207 637 189 637 189 602 c 0
 189 593 201 562 204 553 c 2
 344 189 l 1
 450 470 l 1
 399 596 l 2
 384 634 356 642 316 642 c 1
 316 662 l 1
 584 662 l 1
 584 642 l 1
 556 642 507 642 507 611 c 0
 507 596 514 576 516 570 c 2
 665 186 l 1
 786 513 l 2
 798 547 804 577 804 598 c 0
EndSplineSet
Layer: 2
SplineSet
584 642 m 1,0,1
 507 642 507 642 507 608 c 0,2,3
 507 594 507 594 516 570 c 2,4,-1
 665 186 l 1,5,-1
 786 513 l 2,6,7
 804 564 804 564 804 588 c 256,8,9
 804 612 804 612 798 622 c 0,10,11
 787 640 787 640 737 642 c 1,12,-1
 737 662 l 1,13,-1
 935 662 l 1,14,-1
 935 642 l 1,15,16
 891 640 891 640 873 614 c 0,17,18
 862 598 862 598 852 570 c 2,19,-1
 647 -14 l 1,20,-1
 634 -14 l 1,21,-1
 473 412 l 1,22,-1
 319 -14 l 1,23,-1
 306 -14 l 1,24,-1
 152 419 l 2,25,26
 115 524 115 524 95.5 566 c 128,-1,27
 76 608 76 608 58.5 623.5 c 128,-1,28
 41 639 41 639 9 642 c 1,29,-1
 9 662 l 1,30,-1
 253 662 l 1,31,-1
 253 642 l 1,32,-1
 240 642 l 1,33,34
 203 636 203 636 196 628 c 128,-1,35
 189 620 189 620 189 606 c 256,36,37
 189 592 189 592 204 553 c 2,38,-1
 344 189 l 1,39,-1
 450 470 l 1,40,-1
 399 596 l 2,41,42
 388 623 388 623 368.5 632.5 c 128,-1,43
 349 642 349 642 316 642 c 1,44,-1
 316 662 l 1,45,-1
 584 662 l 1,46,-1
 584 642 l 1,0,1
EndSplineSet
EndChar

StartChar: X
Encoding: 88 88 56
Width: 721
Flags: W
HStem: 0 20<12 50.7103 192.131 244 409 473.292 659.647 705> 642 20<25 72 265.476 326 459 515.422 652.357 697>
DStem2: 164 143 229 149 0.632289 0.774732<-55.6214 222.212 337.515 592.754> 343 453 212 476 0.571888 -0.820332<-181.252 60.2123 133.887 413.378>
LayerCount: 3
Fore
SplineSet
705 0 m 1
 409 0 l 1
 409 20 l 1
 464 20 486 29 486 49 c 0
 486 71 457 116 427 158 c 1
 339 287 l 1
 229 149 l 1
 196 110 170 78 170 60 c 0
 170 39 195 20 244 20 c 1
 244 0 l 1
 12 0 l 1
 12 20 l 1
 69 20 112 77 164 143 c 1
 313 326 l 1
 212 476 l 2
 129 598 97 639 25 642 c 1
 25 662 l 1
 326 662 l 1
 326 642 l 1
 263 642 250 634 250 611 c 0
 250 581 324 478 343 453 c 2
 378 404 l 1
 482 533 l 2
 496 550 530 584 530 610 c 0
 530 642 481 642 459 642 c 1
 459 662 l 1
 697 662 l 1
 697 642 l 1
 625 642 570 576 541 539 c 2
 402 367 l 1
 587 103 l 1
 633 40 659 20 705 20 c 1
 705 0 l 1
EndSplineSet
Validated: 1
Layer: 2
SplineSet
170 66 m 256,0,1
 170 20 170 20 244 20 c 1,2,-1
 244 0 l 1,3,-1
 12 0 l 1,4,-1
 12 20 l 1,5,6
 39 20 39 20 67.5 40 c 128,-1,7
 96 60 96 60 112 79 c 128,-1,8
 128 98 128 98 164 143 c 2,9,-1
 313 326 l 1,10,-1
 212 476 l 2,11,12
 146 574 146 574 111 607 c 128,-1,13
 76 640 76 640 25 642 c 1,14,-1
 25 662 l 1,15,-1
 326 662 l 1,16,-1
 326 642 l 1,17,18
 280 642 280 642 265 635 c 128,-1,19
 250 628 250 628 250 610 c 0,20,21
 250 583 250 583 343 453 c 2,22,-1
 378 404 l 1,23,-1
 482 533 l 2,24,25
 493 546 493 546 511.5 568.5 c 128,-1,26
 530 591 530 591 530 610 c 0,27,28
 530 642 530 642 459 642 c 1,29,-1
 459 662 l 1,30,-1
 697 662 l 1,31,-1
 697 642 l 1,32,33
 623 641 623 641 541 539 c 2,34,-1
 402 367 l 1,35,-1
 587 103 l 2,36,37
 620 56 620 56 645.5 38 c 128,-1,38
 671 20 671 20 705 20 c 1,39,-1
 705 0 l 1,40,-1
 409 0 l 1,41,-1
 409 20 l 1,42,43
 486 20 486 20 486 48 c 0,44,45
 486 72 486 72 427 158 c 2,46,-1
 339 287 l 1,47,-1
 229 149 l 2,48,49
 170 75 170 75 170 66 c 256,0,1
EndSplineSet
EndChar

StartChar: Y
Encoding: 89 89 57
Width: 721
Flags: W
HStem: 0 20<214 279.394 451.959 518> 642 20<23 67.0957 246.991 303 484 537.01 668.423 702>
VStem: 315 101<37.9443 293>
DStem2: 255 559 190 476 0.561714 -0.827331<-57.7102 253.773> 396 347 416 303 0.552185 0.833722<0 307.988>
LayerCount: 3
Fore
SplineSet
553 610 m 0
 553 641 526 642 484 642 c 1
 484 662 l 1
 702 662 l 1
 702 642 l 1
 633 633 587 564 558 519 c 2
 416 303 l 1
 416 80 l 2
 416 51 432 20 518 20 c 1
 518 0 l 1
 214 0 l 1
 214 20 l 1
 300 20 315 51 315 80 c 2
 315 293 l 1
 190 476 l 2
 123 574 94 641 23 642 c 1
 23 662 l 1
 303 662 l 1
 303 642 l 1
 249 642 230 636 230 614 c 0
 230 593 243 576 255 559 c 2
 396 347 l 1
 533 562 l 2
 542 577 553 593 553 610 c 0
EndSplineSet
Validated: 1
Layer: 2
SplineSet
533 562 m 2,0,1
 553 595 553 595 553 613 c 256,2,3
 553 631 553 631 537.5 636.5 c 128,-1,4
 522 642 522 642 484 642 c 1,5,-1
 484 662 l 1,6,-1
 702 662 l 1,7,-1
 702 642 l 1,8,9
 670 638 670 638 639.5 614.5 c 128,-1,10
 609 591 609 591 593.5 571 c 128,-1,11
 578 551 578 551 558 519 c 2,12,-1
 416 303 l 1,13,-1
 416 80 l 2,14,15
 416 20 416 20 518 20 c 1,16,-1
 518 0 l 1,17,-1
 214 0 l 1,18,-1
 214 20 l 1,19,20
 315 20 315 20 315 80 c 2,21,-1
 315 293 l 1,22,-1
 190 476 l 2,23,24
 179 492 179 492 155 529 c 128,-1,25
 131 566 131 566 121.5 578 c 128,-1,26
 112 590 112 590 94 609.5 c 128,-1,27
 76 629 76 629 60 635.5 c 128,-1,28
 44 642 44 642 23 642 c 1,29,-1
 23 662 l 1,30,-1
 303 662 l 1,31,-1
 303 642 l 1,32,33
 262 642 262 642 246.5 636 c 128,-1,34
 231 630 231 630 231 613 c 256,35,36
 231 596 231 596 255 559 c 2,37,-1
 396 347 l 1,38,-1
 533 562 l 2,0,1
EndSplineSet
EndChar

StartChar: Z
Encoding: 90 90 58
Width: 609
Flags: W
HStem: 0 38<144 496.158> 624 38<124.887 445>
VStem: 573 23<141.501 177>
DStem2: 8 12 144 38 0.581112 0.813823<100.191 752.006>
LayerCount: 3
Fore
SplineSet
596 177 m 1
 573 0 l 1
 8 0 l 1
 8 12 l 1
 445 624 l 1
 237 624 l 2
 134 624 75 605 57 490 c 1
 31 490 l 1
 51 662 l 1
 579 662 l 1
 579 650 l 1
 144 38 l 1
 390 38 l 2
 499 38 544 66 573 177 c 1
 596 177 l 1
EndSplineSet
Validated: 1
Layer: 2
SplineSet
596 177 m 1,0,-1
 573 0 l 1,1,-1
 8 0 l 1,2,-1
 8 12 l 1,3,-1
 445 624 l 1,4,-1
 237 624 l 2,5,6
 152 624 152 624 111 597.5 c 128,-1,7
 70 571 70 571 57 490 c 1,8,-1
 31 490 l 1,9,-1
 51 662 l 1,10,-1
 579 662 l 1,11,-1
 579 650 l 1,12,-1
 144 38 l 1,13,-1
 390 38 l 2,14,15
 473 38 473 38 512.5 66.5 c 128,-1,16
 552 95 552 95 573 177 c 1,17,-1
 596 177 l 1,0,-1
EndSplineSet
EndChar

StartChar: bracketleft
Encoding: 91 91 59
Width: 333
Flags: W
HStem: -157 26<176.381 300> 636 26<175.865 300>
VStem: 88 76<-118.103 624.651>
LayerCount: 3
Fore
SplineSet
300 -157 m 1
 88 -157 l 1
 88 662 l 1
 300 662 l 1
 300 636 l 1
 221 636 l 2
 175 636 164 625 164 581 c 2
 164 -68 l 2
 164 -120 177 -131 224 -131 c 2
 300 -131 l 1
 300 -157 l 1
EndSplineSet
Validated: 1
Layer: 2
SplineSet
300 -157 m 1,0,-1
 88 -157 l 1,1,-1
 88 662 l 1,2,-1
 300 662 l 1,3,-1
 300 636 l 1,4,-1
 221 636 l 2,5,6
 187 636 187 636 175.5 625 c 128,-1,7
 164 614 164 614 164 581 c 2,8,-1
 164 -68 l 2,9,10
 164 -106 164 -106 176 -118.5 c 128,-1,11
 188 -131 188 -131 224 -131 c 2,12,-1
 300 -131 l 1,13,-1
 300 -157 l 1,0,-1
EndSplineSet
EndChar

StartChar: backslash
Encoding: 92 92 60
Width: 278
Flags: W
HStem: 0 21G<278.091 361> 662 20G<-83 -0.0909091>
DStem2: -11 682 -83 682 0.478852 -0.877896<0 742.38>
LayerCount: 3
Fore
SplineSet
361 0 m 1
 289 0 l 1
 -83 682 l 1
 -11 682 l 1
 361 0 l 1
EndSplineSet
Validated: 1
Layer: 2
SplineSet
361 0 m 1,0,-1
 289 0 l 1,1,-1
 -83 682 l 1,2,-1
 -11 682 l 1,3,-1
 361 0 l 1,0,-1
EndSplineSet
EndChar

StartChar: bracketright
Encoding: 93 93 61
Width: 333
Flags: W
HStem: -157 26<33 157.648> 636 26<33 157.135>
VStem: 169 76<-118.617 624.651>
LayerCount: 3
Fore
SplineSet
245 -157 m 1
 33 -157 l 1
 33 -131 l 1
 103 -131 l 2
 163 -131 169 -121 169 -63 c 2
 169 581 l 2
 169 625 158 636 112 636 c 2
 33 636 l 1
 33 662 l 1
 245 662 l 1
 245 -157 l 1
EndSplineSet
Layer: 2
SplineSet
245 -157 m 1,0,-1
 33 -157 l 1,1,-1
 33 -131 l 1,2,-1
 103 -131 l 2,3,4
 147 -131 147 -131 158 -119 c 128,-1,5
 169 -107 169 -107 169 -63 c 2,6,-1
 169 581 l 2,7,8
 169 614 169 614 157.5 625 c 128,-1,9
 146 636 146 636 112 636 c 2,10,-1
 33 636 l 1,11,-1
 33 662 l 1,12,-1
 245 662 l 1,13,-1
 245 -157 l 1,0,-1
EndSplineSet
EndChar

StartChar: asciicircum
Encoding: 94 94 62
Width: 468
Flags: W
HStem: 642 20G<193.667 276.333>
LayerCount: 3
Fore
SplineSet
456 257 m 1
 382 257 l 1
 235 593 l 1
 86 257 l 1
 14 257 l 1
 203 662 l 1
 267 662 l 1
 456 257 l 1
EndSplineSet
Validated: 1
Layer: 2
SplineSet
456 257 m 1,0,-1
 382 257 l 1,1,-1
 235 593 l 1,2,-1
 86 257 l 1,3,-1
 14 257 l 1,4,-1
 203 662 l 1,5,-1
 267 662 l 1,6,-1
 456 257 l 1,0,-1
EndSplineSet
EndChar

StartChar: underscore
Encoding: 95 95 63
Width: 499
Flags: W
HStem: -174 59<0 499>
LayerCount: 3
Fore
SplineSet
499 -174 m 1
 0 -174 l 1
 0 -115 l 1
 499 -115 l 1
 499 -174 l 1
EndSplineSet
Validated: 1
Layer: 2
SplineSet
499 -174 m 1,0,-1
 0 -174 l 1,1,-1
 0 -115 l 1,2,-1
 499 -115 l 1,3,-1
 499 -174 l 1,0,-1
EndSplineSet
EndChar

StartChar: grave
Encoding: 96 96 64
Width: 333
Flags: W
HStem: 507 170
VStem: 17 226
LayerCount: 3
Fore
SplineSet
243 507 m 1
 203 507 l 1
 60 598 l 2
 44 608 17 624 17 641 c 0
 17 664 28 677 48 677 c 0
 75 677 88 661 104 645 c 2
 243 507 l 1
EndSplineSet
Validated: 1
Layer: 2
SplineSet
243 507 m 1,0,-1
 203 507 l 1,1,-1
 60 598 l 2,2,3
 17 625 17 625 17 641 c 0,4,5
 17 677 17 677 48 677 c 0,6,7
 53 677 53 677 57.5 676 c 128,-1,8
 62 675 62 675 65.5 674.5 c 128,-1,9
 69 674 69 674 73.5 671 c 128,-1,10
 78 668 78 668 81 666.5 c 128,-1,11
 84 665 84 665 104 645 c 2,12,-1
 243 507 l 1,0,-1
EndSplineSet
EndChar

StartChar: a
Encoding: 97 97 65
Width: 443
Flags: W
HStem: -11 57<120.5 214.053 341 407.506> 435 23<165.185 253.136>
VStem: 37 87<71.0034 165.672> 55 89<311.297 398.125> 283 84<72.2416 264 281.667 406.114>
DStem2: 208.5 262 213 237.5 0.932081 0.36225<-74.2699 70.1645>
LayerCount: 3
Fore
SplineSet
55 345 m 0xd8
 55 367 81 458 224 458 c 0
 335 458 367 410 367 287 c 2
 367 77 l 2
 367 57 375 46 390 46 c 0
 402 46 420 54 442 69 c 1
 442 43 l 1
 427 25 387 -11 359 -11 c 0
 307 -11 289 28 287 66 c 1
 243 25 186 -11 143 -11 c 0
 83 -11 37 37 37 95 c 0xe8
 37 215 198 257 283 290 c 1
 283 396 273 435 210 435 c 0
 190 435 155 425 144 407 c 1
 143 403 142 398 142 392 c 0
 142 381 144 366 144 349 c 0
 144 326 123 304 100 304 c 0
 69 304 55 322 55 345 c 0xd8
283 94 m 1
 283 264 l 1
 220 238 124 221 124 131 c 0
 124 88 147 49 195 49 c 0
 215 49 273 71 283 94 c 1
EndSplineSet
Validated: 1
Layer: 2
SplineSet
55 345 m 256,0,1
 55 371.606060606 55 371.606060606 85.5 409.5 c 0,2,3
 102 430 102 430 138 444 c 128,-1,4
 174 458 174 458 224 458 c 0,5,6
 306 458 306 458 336.5 419.5 c 128,-1,7
 367 381 367 381 367 287 c 2,8,-1
 367 77 l 2,9,10
 367 46 367 46 390 46 c 0,11,12
 408 46 408 46 442 69 c 1,13,-1
 442 43 l 1,14,15
 427 25 427 25 402.5 7 c 128,-1,16
 378 -11 378 -11 359 -11 c 0,17,18
 323 -11 323 -11 306 11 c 128,-1,19
 289 33 289 33 287 66 c 1,20,21
 204 -11 204 -11 143 -11 c 0,22,23
 98 -11 98 -11 67.5 20 c 128,-1,24
 37 51 37 51 37 95 c 0,25,26
 37 157.763157895 37 157.763157895 93 200.5 c 0,27,28
 130.786516854 229.337078652 130.786516854 229.337078652 168.5 245.5 c 0,29,30
 193 256 193 256 208.5 262 c 128,-1,31
 224 268 224 268 248.5 277 c 128,-1,32
 273 286 273 286 283 290 c 1,33,34
 283 374 283 374 269 404.5 c 128,-1,35
 255 435 255 435 210 435 c 0,36,37
 193 435 193 435 172.5 427 c 128,-1,38
 152 419 152 419 144 407 c 0,39,40
 142 399 142 399 142 392 c 256,41,42
 142 387 142 387 143 372.5 c 128,-1,43
 144 358 144 358 144 349 c 256,44,45
 144 332 144 332 130.5 318 c 128,-1,46
 117 304 117 304 100 304 c 256,47,48
 55 304 55 304 55 345 c 256,0,1
283 94 m 1,49,-1
 283 264 l 1,50,51
 273 260 273 260 250 251.5 c 128,-1,52
 227 243 227 243 213 237.5 c 0,53,54
 169.644067797 220.467312349 169.644067797 220.467312349 150.5 199.5 c 0,55,56
 124 170.476190476 124 170.476190476 124 131 c 256,57,58
 124 96 124 96 142.5 72.5 c 128,-1,59
 161 49 161 49 195 49 c 0,60,61
 213 49 213 49 244.5 63.5 c 128,-1,62
 276 78 276 78 283 94 c 1,49,-1
EndSplineSet
EndChar

StartChar: b
Encoding: 98 98 66
Width: 499
Flags: W
HStem: -11 34<185.66 321.102> 396 62<216.715 323.629> 619 18<9 43.6597> 662 20G<102.727 160>
VStem: 74 86<41.6646 369.426 378 608.68> 386 87<132.914 317.322>
LayerCount: 3
Fore
SplineSet
473 243 m 0
 473 112 379 -11 243 -11 c 0
 167 -11 74 24 74 54 c 2
 74 559 l 2
 74 614 67 619 37 619 c 2
 9 619 l 1
 9 637 l 1
 45 647 71 651 97 660 c 2
 160 682 l 1
 160 378 l 1
 187 430 243 458 301 458 c 0
 416 458 473 344 473 243 c 0
386 200 m 0
 386 280 359 396 258 396 c 0
 184 396 160 353 160 309 c 2
 160 70 l 2
 160 46 206 23 257 23 c 0
 356 23 386 117 386 200 c 0
EndSplineSet
Validated: 1
Layer: 2
SplineSet
427.5 392.5 m 128,-1,1
 473 327 473 327 473 234 c 256,2,3
 473 141 473 141 407.5 65 c 128,-1,4
 342 -11 342 -11 243 -11 c 0,5,6
 186 -11 186 -11 130 10.5 c 128,-1,7
 74 32 74 32 74 54 c 2,8,-1
 74 559 l 2,9,10
 74 599 74 599 67 609 c 128,-1,11
 60 619 60 619 37 619 c 2,12,-1
 9 619 l 1,13,-1
 9 637 l 1,14,15
 23 641 23 641 52.5 648 c 128,-1,16
 82 655 82 655 97 660 c 2,17,-1
 160 682 l 1,18,-1
 160 378 l 1,19,20
 180 416 180 416 218 437 c 128,-1,21
 256 458 256 458 301 458 c 0,22,0
 382 458 382 458 427.5 392.5 c 128,-1,1
360 328 m 0,23,24
 330 396 330 396 250 396 c 256,25,26
 206 396 206 396 183 371 c 128,-1,27
 160 346 160 346 160 309 c 2,28,-1
 160 70 l 2,29,30
 160 52 160 52 189.5 37.5 c 128,-1,31
 219 23 219 23 257 23 c 0,32,33
 325 23 325 23 355.5 75 c 128,-1,34
 386 127 386 127 386 198 c 256,35,36
 386 270 386 270 360 328 c 0,23,24
EndSplineSet
EndChar

StartChar: c
Encoding: 99 99 67
Width: 443
Flags: W
HStem: -11 71<182.484 300.726> 429 29<175.37 282.053>
VStem: 25 78<154.133 328.886> 307 91<329.924 407.605>
LayerCount: 3
Fore
SplineSet
412 149 m 1
 370 63 315 -11 212 -11 c 0
 104 -11 25 91 25 214 c 0
 25 344 100 458 249 458 c 0
 306 458 393 427 398 359 c 1
 398 336 376 316 353 316 c 0
 330 316 307 338 307 359 c 0
 307 399 284 429 230 429 c 0
 144 429 103 338 103 255 c 0
 103 163 154 60 257 60 c 0
 323 60 364 106 398 157 c 1
 412 149 l 1
EndSplineSet
Validated: 1
Layer: 2
SplineSet
412 149 m 1,0,1
 375 74 375 74 329 31.5 c 0,2,3
 284 -11 284 -11 208 -11 c 256,4,5
 132 -11 132 -11 78.5 55 c 0,6,7
 25 122 25 122 25 220 c 256,8,9
 25 318 25 318 83.5 388 c 128,-1,10
 142 458 142 458 249 458 c 0,11,12
 322 458 322 458 370 414 c 0,13,14
 396 390 396 390 398 359 c 0,15,16
 398 342 398 342 384 329 c 128,-1,17
 370 316 370 316 353 316 c 256,18,19
 336 316 336 316 321.5 329.5 c 128,-1,20
 307 343 307 343 307 367 c 256,21,22
 307 391 307 391 288 410 c 128,-1,23
 269 429 269 429 230 429 c 0,24,25
 170 429 170 429 136.5 376.5 c 128,-1,26
 103 324 103 324 103 252 c 256,27,28
 103 180 103 180 144 120 c 128,-1,29
 185 60 185 60 257 60 c 0,30,31
 302 60 302 60 335 86 c 128,-1,32
 368 112 368 112 398 157 c 1,33,-1
 412 149 l 1,0,1
EndSplineSet
EndChar

StartChar: d
Encoding: 100 100 68
Width: 499
Flags: W
HStem: -11 49<182.389 287.189> 45 15<466.274 490> 427 31<180.378 292.584> 619 18<273 309.349> 662 20G<366.727 424>
VStem: 26 86<121.333 316.626> 339 85<66.1907 386.397 418 609.195>
LayerCount: 3
Fore
SplineSet
490 45 m 1
 442 31 392 12 339 -14 c 1
 339 60 l 1
 313 20 263 -11 212 -11 c 0
 88 -11 26 98 26 210 c 0
 26 327 108 458 237 458 c 0
 287 458 326 433 339 418 c 1
 339 559 l 2
 339 614 335 619 302 619 c 2
 273 619 l 1
 273 637 l 1
 310 647 336 651 361 660 c 2
 424 682 l 1
 424 91 l 2
 424 63 444 60 467 60 c 2
 490 60 l 1
 490 45 l 1
339 117 m 2
 339 300 l 2
 339 372 307 427 235 427 c 0
 152 427 112 333 112 241 c 0
 112 111 170 38 250 38 c 0
 307 38 339 83 339 117 c 2
EndSplineSet
Validated: 1
Layer: 2
SplineSet
490 45 m 1,0,1
 414 23 414 23 339 -14 c 1,2,-1
 339 60 l 1,3,4
 319 29 319 29 284 9 c 128,-1,5
 249 -11 249 -11 212 -11 c 0,6,7
 124 -11 124 -11 75 54.5 c 128,-1,8
 26 120 26 120 26 212 c 256,9,10
 26 304 26 304 85.5 381 c 128,-1,11
 145 458 145 458 237 458 c 0,12,13
 271 458 271 458 299 445 c 128,-1,14
 327 432 327 432 339 418 c 1,15,-1
 339 559 l 2,16,17
 339 600 339 600 333 609.5 c 128,-1,18
 327 619 327 619 302 619 c 2,19,-1
 273 619 l 1,20,-1
 273 637 l 1,21,22
 285 640 285 640 316 647.5 c 128,-1,23
 347 655 347 655 361 660 c 2,24,-1
 424 682 l 1,25,-1
 424 91 l 2,26,27
 424 72 424 72 435 66 c 128,-1,28
 446 60 446 60 467 60 c 2,29,-1
 490 60 l 1,30,-1
 490 45 l 1,0,1
339 117 m 2,31,-1
 339 300 l 2,32,33
 339 357 339 357 313.5 392 c 128,-1,34
 288 427 288 427 232 427 c 256,35,36
 176 427 176 427 144 371.5 c 128,-1,37
 112 316 112 316 112 231 c 256,38,39
 112 146 112 146 150 92 c 128,-1,40
 188 38 188 38 250 38 c 0,41,42
 290 38 290 38 314.5 63 c 128,-1,43
 339 88 339 88 339 117 c 2,31,-1
EndSplineSet
EndChar

StartChar: e
Encoding: 101 101 69
Width: 443
Flags: W
HStem: -11 68<180.475 301.448> 276 31<94 300> 422 36<143.107 259.059>
VStem: 23 68<165.583 276 307 330.781>
LayerCount: 3
Fore
SplineSet
421 158 m 1
 390 68 312 -11 212 -11 c 0
 97 -11 23 95 23 214 c 0
 23 356 103 458 226 458 c 0
 333 458 399 379 402 276 c 1
 91 276 l 1
 92 181 140 57 253 57 c 0
 319 57 373 109 404 164 c 1
 421 158 l 1
300 307 m 1
 296 366 270 422 204 422 c 0
 134 422 103 370 94 307 c 1
 300 307 l 1
EndSplineSet
Validated: 1
Layer: 2
SplineSet
421 158 m 1,0,1
 396 86 396 86 340 37.5 c 128,-1,2
 284 -11 284 -11 212 -11 c 256,3,4
 128 -11 128 -11 75.5 55.5 c 128,-1,5
 23 122 23 122 23 214 c 256,6,7
 23 322 23 322 79 390 c 128,-1,8
 135 458 135 458 226 458 c 256,9,10
 304 458 304 458 352 406.5 c 128,-1,11
 400 355 400 355 402 276 c 1,12,-1
 91 276 l 1,13,14
 93 158 93 158 162 93 c 0,15,16
 200 57 200 57 253 57 c 256,17,18
 299 57 299 57 338.5 87.5 c 128,-1,19
 378 118 378 118 404 164 c 1,20,-1
 421 158 l 1,0,1
300 307 m 1,21,22
 297 357 297 357 273.5 389.5 c 128,-1,23
 250 422 250 422 204 422 c 256,24,25
 110 422 110 422 94 307 c 1,26,-1
 300 307 l 1,21,22
EndSplineSet
EndChar

StartChar: f
Encoding: 102 102 70
Width: 332
Flags: W
HStem: 0 15<20 67.4434 221.366 279> 417 33<20 102 186 308> 655 28<206.404 300>
VStem: 102 84<33.994 417 450 583.611>
LayerCount: 3
Fore
SplineSet
340 580 m 0
 295 580 297 655 242 655 c 0
 204 655 185 624 185 565 c 2
 185 450 l 1
 308 450 l 1
 308 417 l 1
 186 417 l 1
 186 104 l 2
 186 29 197 18 279 15 c 1
 279 0 l 1
 20 0 l 1
 20 15 l 1
 91 19 102 31 102 104 c 2
 102 417 l 1
 20 417 l 1
 20 450 l 1
 102 450 l 1
 103 530 110 565 137 609 c 1
 163 656 216 683 277 683 c 0
 337 683 383 658 383 621 c 0
 383 598 364 580 340 580 c 0
EndSplineSet
Validated: 1
Layer: 2
SplineSet
370.5 592 m 128,-1,1
 358 580 358 580 342 580 c 256,2,3
 314 580 314 580 295 618 c 0,4,5
 288 632 288 632 274 643.5 c 128,-1,6
 260 655 260 655 242 655 c 256,7,8
 185 655 185 655 185 565 c 2,9,-1
 185 450 l 1,10,-1
 308 450 l 1,11,-1
 308 417 l 1,12,-1
 186 417 l 1,13,-1
 186 104 l 2,14,15
 186 48 186 48 202 32.5 c 128,-1,16
 218 17 218 17 279 15 c 1,17,-1
 279 0 l 1,18,-1
 20 0 l 1,19,-1
 20 15 l 1,20,21
 73 18 73 18 87.5 33.5 c 128,-1,22
 102 49 102 49 102 104 c 2,23,-1
 102 417 l 1,24,-1
 20 417 l 1,25,-1
 20 450 l 1,26,-1
 102 450 l 1,27,28
 103 511 103 511 110 543.5 c 128,-1,29
 117 576 117 576 137 609 c 0,30,31
 156 644 156 644 193.5 663.5 c 128,-1,32
 231 683 231 683 277 683 c 256,33,34
 323 683 323 683 353 665.5 c 128,-1,35
 383 648 383 648 383 621 c 256,36,0
 383 604 383 604 370.5 592 c 128,-1,1
EndSplineSet
EndChar

StartChar: g
Encoding: 103 103 71
Width: 499
Flags: W
HStem: -217 56<132.598 323.405> -14 76<148.79 416.379> 147 27<207.299 299.055> 386 35<388.084 470> 430 28<182.415 271.275>
VStem: 28 70<-130.931 -66.7515> 69 83<230.664 378.819> 74 59<38.5 102.176> 329 77<218.521 366.526> 433 28<-101.139 -35.2504>
LayerCount: 3
Fore
SplineSet
470 386 m 1xf580
 387 386 l 1
 401 356 406 323 406 300 c 0
 406 204 332 147 244 147 c 0
 227 147 210 151 190 154 c 1
 171 149 133 114 133 90 c 0xf380
 133 66 197 66 223 63 c 1
 356 57 461 68 461 -49 c 0
 461 -163 293 -217 200 -217 c 0
 84 -217 28 -154 28 -114 c 0xf980
 28 -74 74 -46 126 2 c 1
 104 11 74 25 74 54 c 0xf380
 74 94 123 134 163 163 c 1
 104 187 69 230 69 296 c 0
 69 395 149 458 244 458 c 0
 318 458 335 421 421 421 c 0
 435 421 451 422 470 424 c 1
 470 386 l 1xf580
329 272 m 0
 329 327 298 430 230 430 c 0
 170 430 152 384 152 335 c 0xf580
 152 272 174 174 255 174 c 0
 312 174 329 223 329 272 c 0
433 -68 m 0
 433 -17 364 -15 298 -14 c 0
 253 -14 194 -12 147 -3 c 1
 127 -25 98 -58 98 -91 c 0xf980
 98 -126 137 -161 240 -161 c 0
 358 -161 433 -124 433 -68 c 0
EndSplineSet
Validated: 1
Layer: 2
SplineSet
470 386 m 1,0,-1
 387 386 l 1,1,2
 406 345 406 345 406 300 c 256,3,4
 406 230 406 230 359 188.5 c 128,-1,5
 312 147 312 147 244 147 c 256,6,7
 237 147 237 147 190 154 c 1,8,9
 174 150 174 150 153.5 128.5 c 128,-1,10
 133 107 133 107 133 90 c 256,11,12
 134 64 134 64 266.5 62 c 128,-1,13
 399 60 399 60 428 32 c 0,14,15
 438 22 438 22 449.5 7.5 c 128,-1,16
 461 -7 461 -7 461 -44 c 256,17,18
 461 -102 461 -102 414 -142.5 c 128,-1,19
 367 -183 367 -183 309 -200 c 128,-1,20
 251 -217 251 -217 200 -217 c 256,21,22
 121 -217 121 -217 74.5 -183.5 c 128,-1,23
 28 -150 28 -150 28 -114 c 256,24,25
 28 -88 28 -88 56 -60 c 0,26,27
 65 -51 65 -51 90 -29.5 c 128,-1,28
 115 -8 115 -8 126 2 c 1,29,30
 74 23 74 23 74 54 c 256,31,32
 74 98 74 98 163 163 c 1,33,34
 69 201 69 201 69 296 c 256,35,36
 69 368 69 368 120 413 c 128,-1,37
 171 458 171 458 244 458 c 256,38,39
 280 458 280 458 328 439.5 c 128,-1,40
 376 421 376 421 409 421 c 128,-1,41
 442 421 442 421 470 424 c 1,42,-1
 470 386 l 1,0,-1
329 272 m 256,43,44
 329 323 329 323 302.5 376.5 c 128,-1,45
 276 430 276 430 230 430 c 256,46,47
 152 430 152 430 152 335 c 256,48,49
 152 275 152 275 176.5 224.5 c 128,-1,50
 201 174 201 174 255 174 c 256,51,52
 329 174 329 174 329 272 c 256,43,44
433 -68 m 256,53,54
 433 -32 433 -32 392.5 -23 c 128,-1,55
 352 -14 352 -14 298 -14 c 256,56,57
 204 -14 204 -14 147 -3 c 1,58,59
 98 -57 98 -57 98 -91 c 256,60,61
 98 -120 98 -120 133 -140.5 c 128,-1,62
 168 -161 168 -161 240 -161 c 256,63,64
 328 -161 328 -161 380.5 -135.5 c 128,-1,65
 433 -110 433 -110 433 -68 c 256,53,54
EndSplineSet
EndChar

StartChar: h
Encoding: 104 104 72
Width: 499
Flags: W
HStem: 0 14<9 41.0007 187.999 220 280 312.001 457.999 490> 404 54<220.302 318.897> 619 18<9 42.9478> 662 20G<99.7273 157>
VStem: 72 85<32.4731 367.492 378 608.165> 343 84<32.4731 382>
LayerCount: 3
Fore
SplineSet
490 0 m 1
 280 0 l 1
 280 14 l 1
 327 18 343 37 343 80 c 2
 343 287 l 2
 343 346 338 404 266 404 c 0
 210 404 186 376 157 344 c 1
 157 80 l 2
 157 37 172 18 220 14 c 1
 220 0 l 1
 9 0 l 1
 9 14 l 1
 57 18 72 37 72 80 c 2
 72 559 l 2
 72 612 66 619 35 619 c 2
 9 619 l 1
 9 637 l 1
 43 647 69 651 94 660 c 2
 157 682 l 1
 157 378 l 1
 190 422 241 458 301 458 c 0
 402 458 427 399 427 289 c 2
 427 80 l 2
 427 37 442 18 490 14 c 1
 490 0 l 1
EndSplineSet
Validated: 1
Layer: 2
SplineSet
490 0 m 1,0,-1
 280 0 l 1,1,-1
 280 14 l 1,2,3
 315 17 315 17 329 32 c 128,-1,4
 343 47 343 47 343 80 c 2,5,-1
 343 287 l 2,6,7
 343 323 343 323 339.5 345 c 128,-1,8
 336 367 336 367 318 385.5 c 128,-1,9
 300 404 300 404 266 404 c 256,10,11
 240 404 240 404 218.5 394.5 c 128,-1,12
 197 385 197 385 187 375.5 c 128,-1,13
 177 366 177 366 157 344 c 1,14,-1
 157 80 l 2,15,16
 157 47 157 47 171 32 c 128,-1,17
 185 17 185 17 220 14 c 1,18,-1
 220 0 l 1,19,-1
 9 0 l 1,20,-1
 9 14 l 1,21,22
 44 17 44 17 58 32 c 128,-1,23
 72 47 72 47 72 80 c 2,24,-1
 72 559 l 2,25,26
 72 598 72 598 65.5 608.5 c 128,-1,27
 59 619 59 619 35 619 c 2,28,-1
 9 619 l 1,29,-1
 9 637 l 1,30,31
 23 641 23 641 51.5 648 c 128,-1,32
 80 655 80 655 94 660 c 2,33,-1
 157 682 l 1,34,-1
 157 378 l 1,35,36
 217 458 217 458 301 458 c 256,37,38
 373 458 373 458 400 417.5 c 128,-1,39
 427 377 427 377 427 289 c 2,40,-1
 427 80 l 2,41,42
 427 47 427 47 441 32 c 128,-1,43
 455 17 455 17 490 14 c 1,44,-1
 490 0 l 1,0,-1
EndSplineSet
EndChar

StartChar: i
Encoding: 105 105 73
Width: 278
Flags: W
HStem: 0 14<23 62.6014 219.454 260> 438 20G<123.741 183> 579 103<97.9547 168.53>
VStem: 83 101<594.47 666.53> 98 85<32.4731 381.493>
LayerCount: 3
Fore
SplineSet
184 630 m 0xf0
 184 602 161 579 134 579 c 0
 104 579 83 602 83 630 c 0
 83 659 104 682 134 682 c 0
 161 682 184 659 184 630 c 0xf0
260 0 m 1
 23 0 l 1
 23 14 l 1
 83 18 98 37 98 80 c 2
 98 323 l 2
 98 379 92 398 65 398 c 0
 55 398 41 395 23 390 c 1
 23 404 l 1
 183 458 l 1
 183 80 l 2xe8
 183 37 198 18 260 14 c 1
 260 0 l 1
EndSplineSet
Validated: 1
Layer: 2
SplineSet
169 667 m 128,-1,1
 184 652 184 652 184 630.5 c 128,-1,2
 184 609 184 609 169 594 c 128,-1,3
 154 579 154 579 133 579 c 128,-1,4
 112 579 112 579 97.5 594 c 128,-1,5
 83 609 83 609 83 630.5 c 128,-1,6
 83 652 83 652 97.5 667 c 128,-1,7
 112 682 112 682 133 682 c 128,-1,0
 154 682 154 682 169 667 c 128,-1,1
260 0 m 1,8,-1
 23 0 l 1,9,-1
 23 14 l 1,10,11
 67 17 67 17 82.5 32 c 128,-1,12
 98 47 98 47 98 80 c 2,13,-1
 98 323 l 2,14,15
 98 366 98 366 91.5 382 c 128,-1,16
 85 398 85 398 68.5 398 c 128,-1,17
 52 398 52 398 23 390 c 1,18,-1
 23 404 l 1,19,-1
 183 458 l 1,20,-1
 183 80 l 2,21,22
 183 46 183 46 199 31.5 c 128,-1,23
 215 17 215 17 260 14 c 1,24,-1
 260 0 l 1,8,-1
EndSplineSet
EndChar

StartChar: j
Encoding: 106 106 74
Width: 278
Flags: W
HStem: -217 33<21 106.47> 438 20G<147.481 206> 579 103<126.47 196.53>
VStem: 111 101<594.47 666.53> 121 85<-118.378 383.167>
LayerCount: 3
Fore
SplineSet
212 630 m 0xf0
 212 602 189 579 161 579 c 0
 134 579 111 602 111 630 c 0
 111 659 134 682 161 682 c 0
 189 682 212 659 212 630 c 0xf0
-55 -158 m 0
 -55 -126 -26 -118 -13 -118 c 0
 25 -118 18 -156 69 -181 c 0
 74 -183 79 -184 83 -184 c 0
 113 -184 121 -129 121 -94 c 2
 121 343 l 2
 121 382 114 394 86 394 c 0
 76 394 64 392 48 390 c 1
 48 404 l 1
 206 458 l 1
 206 12 l 2xe8
 206 -140 147 -217 35 -217 c 0
 10 -217 -55 -205 -55 -158 c 0
EndSplineSet
Validated: 1
Layer: 2
SplineSet
197 667 m 128,-1,1
 212 652 212 652 212 630.5 c 128,-1,2
 212 609 212 609 197 594 c 128,-1,3
 182 579 182 579 161.5 579 c 128,-1,4
 141 579 141 579 126 594 c 128,-1,5
 111 609 111 609 111 630.5 c 128,-1,6
 111 652 111 652 126 667 c 128,-1,7
 141 682 141 682 161.5 682 c 128,-1,0
 182 682 182 682 197 667 c 128,-1,1
-55 -158 m 256,8,9
 -55 -137 -55 -137 -41 -127.5 c 128,-1,10
 -27 -118 -27 -118 -13 -118 c 256,11,12
 7 -118 7 -118 26 -143.5 c 128,-1,13
 45 -169 45 -169 60.5 -176.5 c 128,-1,14
 76 -184 76 -184 83 -184 c 256,15,16
 103 -184 103 -184 112 -156 c 128,-1,17
 121 -128 121 -128 121 -94 c 2,18,-1
 121 343 l 2,19,20
 121 373 121 373 114 383.5 c 128,-1,21
 107 394 107 394 86 394 c 256,22,23
 80 394 80 394 48 390 c 1,24,-1
 48 404 l 1,25,-1
 206 458 l 1,26,-1
 206 12 l 2,27,28
 206 -217 206 -217 35 -217 c 256,29,30
 7 -217 7 -217 -24 -203 c 128,-1,31
 -55 -189 -55 -189 -55 -158 c 256,8,9
EndSplineSet
EndChar

StartChar: k
Encoding: 107 107 75
Width: 499
Flags: W
HStem: 0 14<2 40.9563 197.249 237 283 312.659 468 499> 433 14<270 313.218 420.625 475> 619 18<11 49.0156> 662 20G<103.727 161>
VStem: 77 84<32.4731 247 263 611.777>
DStem2: 161 263 230 283 0.753317 0.657658<65.132 220.219> 230 283 161 247 0.605186 -0.796084<-1.79984 252.848>
LayerCount: 3
Fore
SplineSet
499 0 m 1
 283 0 l 1
 283 14 l 1
 310 14 318 23 318 32 c 0
 318 39 314 46 310 51 c 2
 161 247 l 1
 161 80 l 2
 161 37 177 18 237 14 c 1
 237 0 l 1
 2 0 l 1
 2 14 l 1
 61 18 77 37 77 80 c 2
 77 579 l 2
 77 614 71 619 44 619 c 2
 11 619 l 1
 11 637 l 1
 48 647 74 651 98 660 c 2
 161 682 l 1
 161 263 l 1
 287 373 l 2
 309 392 321 406 321 415 c 0
 321 428 308 433 270 433 c 1
 270 447 l 1
 475 447 l 1
 475 433 l 1
 372 433 321 362 230 283 c 1
 375 98 l 2
 406 58 447 17 499 14 c 1
 499 0 l 1
EndSplineSet
Validated: 1
Layer: 2
SplineSet
499 0 m 1,0,-1
 283 0 l 1,1,-1
 283 14 l 1,2,3
 318 14 318 14 318 32 c 256,4,5
 318 41 318 41 310 51 c 2,6,-1
 161 247 l 1,7,-1
 161 80 l 2,8,9
 161 47 161 47 177 32 c 128,-1,10
 193 17 193 17 237 14 c 1,11,-1
 237 0 l 1,12,-1
 2 0 l 1,13,-1
 2 14 l 1,14,15
 45 17 45 17 61 32 c 128,-1,16
 77 47 77 47 77 80 c 2,17,-1
 77 579 l 2,18,19
 77 605 77 605 71 612 c 128,-1,20
 65 619 65 619 44 619 c 2,21,-1
 11 619 l 1,22,-1
 11 637 l 1,23,24
 26 641 26 641 51.5 646.5 c 128,-1,25
 77 652 77 652 98 660 c 2,26,-1
 161 682 l 1,27,-1
 161 263 l 1,28,-1
 287 373 l 2,29,30
 321 402 321 402 321 415 c 256,31,32
 321 433 321 433 270 433 c 1,33,-1
 270 447 l 1,34,-1
 475 447 l 1,35,-1
 475 433 l 1,36,37
 416 433 416 433 375.5 406 c 128,-1,38
 335 379 335 379 291.5 339 c 128,-1,39
 248 299 248 299 230 283 c 1,40,-1
 375 98 l 2,41,42
 437 18 437 18 499 14 c 1,43,-1
 499 0 l 1,0,-1
EndSplineSet
EndChar

StartChar: l
Encoding: 108 108 76
Width: 278
Flags: W
HStem: 0 14<20 61.1908 218.809 260> 624 13<20 49.8193> 662 20G<150.5 183>
VStem: 97 86<31.9579 613.164>
LayerCount: 3
Fore
SplineSet
260 0 m 1
 20 0 l 1
 20 14 l 1
 83 18 97 37 97 80 c 2
 97 559 l 2
 97 619 92 624 54 624 c 2
 20 624 l 1
 20 637 l 1
 68 647 138 665 183 682 c 1
 183 80 l 2
 183 37 197 18 260 14 c 1
 260 0 l 1
EndSplineSet
Validated: 1
Layer: 2
SplineSet
260 0 m 1,0,-1
 20 0 l 1,1,-1
 20 14 l 1,2,3
 66 17 66 17 81.5 31.5 c 128,-1,4
 97 46 97 46 97 80 c 2,5,-1
 97 559 l 2,6,7
 97 603 97 603 90 613.5 c 128,-1,8
 83 624 83 624 54 624 c 2,9,-1
 20 624 l 1,10,-1
 20 637 l 1,11,12
 118 657 118 657 183 682 c 1,13,-1
 183 80 l 2,14,15
 183 46 183 46 198.5 31.5 c 128,-1,16
 214 17 214 17 260 14 c 1,17,-1
 260 0 l 1,0,-1
EndSplineSet
EndChar

StartChar: m
Encoding: 109 109 77
Width: 777
Flags: W
HStem: 0 14<14 46.0007 191.999 224 283 315.001 460.999 493 553 585.001 730.999 763> 404 54<237.559 329.295 498.32 597.407>
VStem: 77 84<32.4731 370.154> 346 84<32.4731 370.25> 616 84<32.4731 387.198>
LayerCount: 3
Fore
SplineSet
165 383 m 0
 172 383 232 458 316 458 c 0
 367 458 407 421 419 373 c 1
 456 415 518 458 574 458 c 0
 693 458 700 356 700 267 c 2
 700 80 l 2
 700 37 716 18 763 14 c 1
 763 0 l 1
 553 0 l 1
 553 14 l 1
 601 18 616 37 616 80 c 2
 616 283 l 2
 616 379 601 404 538 404 c 0
 492 404 453 381 430 344 c 1
 430 80 l 2
 430 37 445 18 493 14 c 1
 493 0 l 1
 283 0 l 1
 283 14 l 1
 330 18 346 37 346 80 c 2
 346 287 l 2
 346 339 343 404 276 404 c 0
 235 404 184 381 161 346 c 1
 161 80 l 2
 161 37 177 18 224 14 c 1
 224 0 l 1
 14 0 l 1
 14 14 l 1
 61 18 77 37 77 80 c 2
 77 323 l 2
 77 379 68 389 14 389 c 1
 14 406 l 1
 161 458 l 1
 161 392 l 2
 161 385 162 383 165 383 c 0
EndSplineSet
Validated: 1
Layer: 2
SplineSet
161 392 m 2,0,1
 161 383 161 383 163.5 383 c 128,-1,2
 166 383 166 383 186.5 401.5 c 128,-1,3
 207 420 207 420 243 439 c 128,-1,4
 279 458 279 458 316 458 c 256,5,6
 353 458 353 458 381.5 434 c 128,-1,7
 410 410 410 410 419 373 c 1,8,9
 450 408 450 408 492.5 433 c 128,-1,10
 535 458 535 458 574 458 c 256,11,12
 668 458 668 458 690 372 c 0,13,14
 700 332 700 332 700 267 c 2,15,-1
 700 80 l 2,16,17
 700 47 700 47 714 32 c 128,-1,18
 728 17 728 17 763 14 c 1,19,-1
 763 0 l 1,20,-1
 553 0 l 1,21,-1
 553 14 l 1,22,23
 588 17 588 17 602 32 c 128,-1,24
 616 47 616 47 616 80 c 2,25,-1
 616 283 l 2,26,27
 616 355 616 355 600.5 379.5 c 128,-1,28
 585 404 585 404 538 404 c 256,29,30
 467 404 467 404 430 344 c 1,31,-1
 430 80 l 2,32,33
 430 47 430 47 444 32 c 128,-1,34
 458 17 458 17 493 14 c 1,35,-1
 493 0 l 1,36,-1
 283 0 l 1,37,-1
 283 14 l 1,38,39
 318 17 318 17 332 32 c 128,-1,40
 346 47 346 47 346 80 c 2,41,-1
 346 287 l 2,42,43
 346 373 346 373 323 388.5 c 128,-1,44
 300 404 300 404 276 404 c 256,45,46
 244 404 244 404 211 388 c 128,-1,47
 178 372 178 372 161 346 c 1,48,-1
 161 80 l 2,49,50
 161 47 161 47 175 32 c 128,-1,51
 189 17 189 17 224 14 c 1,52,-1
 224 0 l 1,53,-1
 14 0 l 1,54,-1
 14 14 l 1,55,56
 49 17 49 17 63 32 c 128,-1,57
 77 47 77 47 77 80 c 2,58,-1
 77 323 l 2,59,60
 77 365 77 365 65.5 377 c 128,-1,61
 54 389 54 389 14 389 c 1,62,-1
 14 406 l 1,63,-1
 161 458 l 1,64,-1
 161 392 l 2,0,1
EndSplineSet
EndChar

StartChar: n
Encoding: 110 110 78
Width: 499
Flags: W
HStem: 0 14<9 41.0007 187.999 220 280 312.001 457.999 490> 396 14<9 30.5833> 404 54<227.993 321.497>
VStem: 72 85<32.4731 366.371> 343 84<32.4731 381.43>
LayerCount: 3
Fore
SplineSet
490 0 m 1xb8
 280 0 l 1
 280 14 l 1
 327 18 343 37 343 80 c 2
 343 295 l 2
 343 353 336 404 266 404 c 0xb8
 218 404 183 373 157 347 c 1
 157 80 l 2
 157 37 172 18 220 14 c 1
 220 0 l 1
 9 0 l 1
 9 14 l 1
 57 18 72 37 72 80 c 2
 72 324 l 2
 72 387 66 396 34 396 c 2
 9 396 l 1
 9 410 l 1xd8
 157 458 l 1
 157 378 l 1
 194 416 240 458 310 458 c 0
 387 458 427 404 427 296 c 2
 427 80 l 2
 427 37 442 18 490 14 c 1
 490 0 l 1xb8
EndSplineSet
Validated: 1
Layer: 2
SplineSet
490 0 m 1,0,-1
 280 0 l 1,1,-1
 280 14 l 1,2,3
 315 17 315 17 329 32 c 128,-1,4
 343 47 343 47 343 80 c 2,5,-1
 343 295 l 2,6,7
 343 329 343 329 339 350 c 128,-1,8
 335 371 335 371 317 387.5 c 128,-1,9
 299 404 299 404 266 404 c 256,10,11
 214 404 214 404 157 347 c 1,12,-1
 157 80 l 2,13,14
 157 47 157 47 171 32 c 128,-1,15
 185 17 185 17 220 14 c 1,16,-1
 220 0 l 1,17,-1
 9 0 l 1,18,-1
 9 14 l 1,19,20
 44 17 44 17 58 32 c 128,-1,21
 72 47 72 47 72 80 c 2,22,-1
 72 324 l 2,23,24
 72 371 72 371 65 383.5 c 128,-1,25
 58 396 58 396 34 396 c 2,26,-1
 9 396 l 1,27,-1
 9 410 l 1,28,-1
 157 458 l 1,29,-1
 157 378 l 1,30,31
 193 415 193 415 228 436.5 c 128,-1,32
 263 458 263 458 310 458 c 256,33,34
 427 458 427 458 427 296 c 2,35,-1
 427 80 l 2,36,37
 427 47 427 47 441 32 c 128,-1,38
 455 17 455 17 490 14 c 1,39,-1
 490 0 l 1,0,-1
EndSplineSet
EndChar

StartChar: o
Encoding: 111 111 79
Width: 499
Flags: W
HStem: -11 31<206.521 316.416> 427 31<179.157 290.242>
VStem: 31 92<123.196 331.423> 378 92<127.542 319.26>
LayerCount: 3
Fore
SplineSet
470 238 m 0
 470 108 384 -11 246 -11 c 0
 118 -11 31 97 31 218 c 0
 31 350 108 458 246 458 c 0
 378 458 470 369 470 238 c 0
378 190 m 0
 378 281 347 427 233 427 c 0
 160 427 123 359 123 272 c 0
 123 129 169 20 264 20 c 0
 343 20 378 104 378 190 c 0
EndSplineSet
Validated: 1
Layer: 2
SplineSet
470 238 m 256,0,1
 470 136 470 136 408 62.5 c 128,-1,2
 346 -11 346 -11 246 -11 c 256,3,4
 152 -11 152 -11 91.5 57 c 128,-1,5
 31 125 31 125 31 218 c 256,6,7
 31 321 31 321 88.5 389.5 c 128,-1,8
 146 458 146 458 246 458 c 256,9,10
 345 458 345 458 407.5 397 c 128,-1,11
 470 336 470 336 470 238 c 256,0,1
378 190 m 256,12,13
 378 270 378 270 348 342 c 0,14,15
 332 380 332 380 302.5 403.5 c 128,-1,16
 273 427 273 427 233 427 c 256,17,18
 180 427 180 427 151.5 383.5 c 128,-1,19
 123 340 123 340 123 272 c 256,20,21
 123 160 123 160 159 90 c 128,-1,22
 195 20 195 20 264 20 c 256,23,24
 320 20 320 20 349 69.5 c 128,-1,25
 378 119 378 119 378 190 c 256,12,13
EndSplineSet
EndChar

StartChar: p
Encoding: 112 112 80
Width: 499
Flags: W
HStem: -217 14<3 43.3564 196.094 243> -11 34<202.708 316.489> 396 14<3 25.8958> 402 56<216.48 324.968>
VStem: 75 85<-185.527 35 53.8739 349.263> 384 86<129.374 325.662>
LayerCount: 3
Fore
SplineSet
161 386 m 0xdc
 167 386 199 458 306 458 c 0xdc
 416 458 470 359 470 243 c 0
 470 109 382 -11 253 -11 c 0
 218 -11 183 9 160 35 c 1
 160 -137 l 2
 160 -181 175 -200 243 -203 c 1
 243 -217 l 1
 3 -217 l 1
 3 -203 l 1
 60 -200 75 -181 75 -137 c 2
 75 327 l 2
 75 376 75 398 29 398 c 0
 22 398 13 397 3 396 c 1
 3 410 l 1xec
 160 458 l 1
 160 389 l 2
 160 387 160 386 161 386 c 0xdc
160 103 m 2
 160 49 226 23 263 23 c 0
 335 23 384 103 384 203 c 0
 384 284 362 402 258 402 c 0
 229 402 200 389 180 369 c 1
 160 352 160 347 160 324 c 2
 160 103 l 2
EndSplineSet
Validated: 1
Layer: 2
SplineSet
161 386 m 128,-1,1
 162 386 162 386 172.5 400 c 128,-1,2
 183 414 183 414 210 432 c 0,3,4
 246 458 246 458 306 458 c 256,5,6
 385 458 385 458 427.5 396.5 c 128,-1,7
 470 335 470 335 470 243 c 256,8,9
 470 139 470 139 408.5 64 c 128,-1,10
 347 -11 347 -11 253 -11 c 256,11,12
 201 -11 201 -11 160 35 c 1,13,-1
 160 -137 l 2,14,15
 160 -171 160 -171 177 -186 c 128,-1,16
 194 -201 194 -201 243 -203 c 1,17,-1
 243 -217 l 1,18,-1
 3 -217 l 1,19,-1
 3 -203 l 1,20,21
 45 -201 45 -201 60 -186 c 128,-1,22
 75 -171 75 -171 75 -137 c 2,23,-1
 75 327 l 2,24,25
 75 380 75 380 64 389 c 128,-1,26
 53 398 53 398 29 398 c 256,27,28
 23 398 23 398 3 396 c 1,29,-1
 3 410 l 1,30,-1
 160 458 l 1,31,-1
 160 389 l 2,32,0
 160 386 160 386 161 386 c 128,-1,1
160 103 m 2,33,34
 160 66 160 66 194.5 44.5 c 128,-1,35
 229 23 229 23 263 23 c 256,36,37
 316 23 316 23 350 75 c 128,-1,38
 384 127 384 127 384 203 c 256,39,40
 384 272 384 272 360 332 c 0,41,42
 348 364 348 364 321.5 383 c 128,-1,43
 295 402 295 402 258 402 c 256,44,45
 213 402 213 402 180 369 c 0,46,47
 166 357 166 357 163 349.5 c 128,-1,48
 160 342 160 342 160 324 c 2,49,-1
 160 103 l 2,33,34
EndSplineSet
EndChar

StartChar: q
Encoding: 113 113 81
Width: 499
Flags: W
HStem: -217 14<257 303.071 456.632 498> -11 62<170.285 268.422> 433 25<190.951 302.534>
VStem: 25 86<124.432 320.823> 339 85<-185.527 60 75.5083 408.492>
LayerCount: 3
Fore
SplineSet
498 -217 m 1
 257 -217 l 1
 257 -203 l 1
 324 -200 339 -181 339 -137 c 2
 339 60 l 1
 296 23 249 -11 194 -11 c 0
 63 -11 25 111 25 214 c 0
 25 343 114 458 250 458 c 0
 290 458 327 447 359 425 c 1
 407 456 l 1
 424 465 424 450 424 439 c 2
 424 -137 l 2
 424 -181 439 -200 498 -203 c 1
 498 -217 l 1
233 51 m 0
 270 51 339 68 339 117 c 2
 339 338 l 2
 339 374 334 433 244 433 c 0
 146 433 111 327 111 244 c 0
 111 134 154 51 233 51 c 0
EndSplineSet
Validated: 1
Layer: 2
SplineSet
498 -217 m 1,0,-1
 257 -217 l 1,1,-1
 257 -203 l 1,2,3
 305 -201 305 -201 322 -186 c 128,-1,4
 339 -171 339 -171 339 -137 c 2,5,-1
 339 60 l 1,6,7
 256 -11 256 -11 194 -11 c 256,8,9
 147 -11 147 -11 112.5 9 c 128,-1,10
 78 29 78 29 60 63 c 0,11,12
 25 129 25 129 25 214 c 256,13,14
 25 314 25 314 88 386 c 128,-1,15
 151 458 151 458 250 458 c 256,16,17
 311 458 311 458 359 425 c 1,18,-1
 407 456 l 2,19,20
 418 462 418 462 421 456.5 c 128,-1,21
 424 451 424 451 424 439 c 2,22,-1
 424 -137 l 2,23,24
 424 -171 424 -171 439.5 -186 c 128,-1,25
 455 -201 455 -201 498 -203 c 1,26,-1
 498 -217 l 1,0,-1
233 51 m 256,27,28
 269 51 269 51 304 67.5 c 128,-1,29
 339 84 339 84 339 117 c 2,30,-1
 339 338 l 2,31,32
 339 405.01 339 405.01 296 424 c 0,33,34
 276 433 276 433 244 433 c 256,35,36
 177 433 177 433 144 375 c 128,-1,37
 111 317 111 317 111 244 c 256,38,39
 111 159 111 159 143 105 c 128,-1,40
 175 51 175 51 233 51 c 256,27,28
EndSplineSet
EndChar

StartChar: r
Encoding: 114 114 82
Width: 333
Flags: W
HStem: 0 14<5 44.6014 200.249 240> 396 62<221.334 306>
VStem: 80 84<32.4731 364.845 367 373.335>
LayerCount: 3
Fore
SplineSet
334 405 m 0
 334 382 326 361 293 361 c 0
 258 361 250 396 226 396 c 0
 206 396 164 347 164 318 c 2
 164 80 l 2
 164 37 180 18 240 14 c 1
 240 0 l 1
 5 0 l 1
 5 14 l 1
 65 18 80 37 80 80 c 2
 80 298 l 2
 80 371 71 395 40 395 c 0
 31 395 19 393 5 389 c 1
 5 404 l 1
 164 458 l 1
 164 367 l 1
 184 402 227 458 278 458 c 0
 312 458 334 440 334 405 c 0
EndSplineSet
Validated: 1
Layer: 2
SplineSet
334 405 m 256,0,1
 334 361 334 361 293 361 c 256,2,3
 274 361 274 361 255.5 378.5 c 128,-1,4
 237 396 237 396 226 396 c 256,5,6
 211 396 211 396 187.5 367.5 c 128,-1,7
 164 339 164 339 164 318 c 2,8,-1
 164 80 l 2,9,10
 164 47 164 47 180 32 c 128,-1,11
 196 17 196 17 240 14 c 1,12,-1
 240 0 l 1,13,-1
 5 0 l 1,14,-1
 5 14 l 1,15,16
 49 17 49 17 64.5 32 c 128,-1,17
 80 47 80 47 80 80 c 2,18,-1
 80 298 l 2,19,20
 80 353 80 353 71.5 374 c 128,-1,21
 63 395 63 395 40 395 c 256,22,23
 26 395 26 395 5 389 c 1,24,-1
 5 404 l 1,25,-1
 164 458 l 1,26,-1
 164 367 l 1,27,28
 184 402 184 402 214 430 c 128,-1,29
 244 458 244 458 278 458 c 256,30,31
 334 458 334 458 334 405 c 256,0,1
EndSplineSet
EndChar

StartChar: s
Encoding: 115 115 83
Width: 388
Flags: W
HStem: -11 25<142.353 244.309> -3 21G<51 66.5> 429 20G<300.5 315> 435 23<147.794 236.997>
VStem: 51 63<321.681 402.826> 51 17<117.497 154> 278 69<49.4796 132.994> 300 15<313 336.904>
LayerCount: 3
Fore
SplineSet
51 335 m 256x8a
 51 410 114 458 190 458 c 256x9a
 215 458 264 436 283 436 c 256
 292 436 298 440 303 449 c 1
 315 449 l 1
 315 313 l 1
 300 313 l 1x29
 282 378 262 435 189 435 c 256
 150 435 114 409 114 370 c 256
 114 337 141 306 196 276 c 0
 252 245 347 207 347 124 c 256
 347 41 283 -11 200 -11 c 256x9a
 175 -11 110 13 87 13 c 256
 76 13 68 8 65 -3 c 1
 51 -3 l 1
 51 154 l 1
 68 154 l 1x46
 83 61 127 14 198 14 c 256
 242 14 278 41 278 84 c 256
 278 118 251 149 198 178 c 0
 139 209 51 247 51 335 c 256x8a
EndSplineSet
Layer: 2
SplineSet
190 458 m 260,0,1
 215 458 215 458 244 447 c 132,-1,2
 273 436 273 436 283 436 c 260,3,4
 296 436 296 436 303 449 c 5,5,-1
 315 449 l 5,6,-1
 315 313 l 5,7,-1
 300 313 l 5,8,9
 283 373 283 373 259.5 404 c 132,-1,10
 236 435 236 435 189 435 c 260,11,12
 159 435 159 435 136.5 417 c 132,-1,13
 114 399 114 399 114 370 c 260,14,15
 114 321 114 321 196 276 c 4,16,17
 230 257 230 257 264.5 237 c 132,-1,18
 299 217 299 217 323 188 c 132,-1,19
 347 159 347 159 347 124 c 260,20,21
 347 62 347 62 305 25.5 c 132,-1,22
 263 -11 263 -11 200 -11 c 260,23,24
 176 -11 176 -11 139.5 1 c 132,-1,25
 103 13 103 13 87 13 c 260,26,27
 70 13 70 13 65 -3 c 5,28,-1
 51 -3 l 5,29,-1
 51 154 l 5,30,-1
 68 154 l 5,31,32
 91 14 91 14 198 14 c 260,33,34
 232 14 232 14 255 33 c 132,-1,35
 278 52 278 52 278 84 c 260,36,37
 278 135 278 135 198 178 c 4,38,39
 164 196 164 196 131 215.5 c 132,-1,40
 98 235 98 235 74.5 265.5 c 132,-1,41
 51 296 51 296 51 335 c 260,42,43
 51 391 51 391 91.5 424.5 c 132,-1,44
 132 458 132 458 190 458 c 260,0,1
EndSplineSet
EndChar

StartChar: t
Encoding: 116 116 84
Width: 278
Flags: W
HStem: -11 54<127 219.924> 416 31<157 255>
VStem: 71 86<69.3033 416>
LayerCount: 3
Fore
SplineSet
200 43 m 0
 212 43 241 47 266 80 c 1
 280 68 l 1
 243 20 198 -11 151 -11 c 0
 84 -11 71 30 71 129 c 2
 71 416 l 1
 41 416 l 2
 29 416 6 410 15 430 c 1
 71 468 109 524 157 579 c 1
 157 447 l 1
 255 447 l 1
 255 416 l 1
 157 416 l 1
 157 146 l 2
 157 85 163 43 200 43 c 0
EndSplineSet
Validated: 1
Layer: 2
SplineSet
41 416 m 1,0,-1
 24 415 l 2,1,2
 11 415 11 415 13 421 c 0,3,4
 14 424 14 424 15 430 c 1,5,6
 49 452 49 452 88 497 c 0,7,8
 101 512 101 512 123 538.5 c 128,-1,9
 145 565 145 565 157 579 c 1,10,-1
 157 447 l 1,11,-1
 255 447 l 1,12,-1
 255 416 l 1,13,-1
 157 416 l 1,14,-1
 157 146 l 2,15,16
 157 94 157 94 165.5 68.5 c 128,-1,17
 174 43 174 43 200 43 c 256,18,19
 238 43 238 43 266 80 c 1,20,-1
 280 68 l 1,21,22
 219 -11 219 -11 151 -11 c 256,23,24
 103 -11 103 -11 87 20 c 128,-1,25
 71 51 71 51 71 129 c 2,26,-1
 71 416 l 1,27,-1
 41 416 l 1,0,-1
EndSplineSet
EndChar

StartChar: u
Encoding: 117 117 85
Width: 499
Flags: W
HStem: -11 59<176.797 266.708> 37 14<458.335 479> 433 14<9 52.4395 260 310.402>
VStem: 72 85<67.5557 419.586> 332 84<65.9594 77 80.0036 419.585>
LayerCount: 3
Fore
SplineSet
479 37 m 1x78
 439 25 386 6 338 -11 c 1
 338 77 l 1
 316 54 l 1
 295 29 253 -11 189 -11 c 0
 109 -11 72 46 72 132 c 2
 72 361 l 2
 72 421 65 433 9 433 c 1
 9 447 l 1
 157 447 l 1
 157 137 l 2
 157 86 177 48 232 48 c 0xb8
 260 48 289 63 310 80 c 0
 330 96 332 107 332 124 c 2
 332 359 l 2
 332 421 326 433 260 433 c 1
 260 447 l 1
 416 447 l 1
 416 120 l 2
 416 71 420 51 468 51 c 2
 479 51 l 1
 479 37 l 1x78
EndSplineSet
Validated: 1
Layer: 2
SplineSet
479 37 m 1,0,1
 443 26 443 26 338 -11 c 1,2,-1
 338 77 l 1,3,-1
 316 54 l 1,4,5
 261 -11 261 -11 189 -11 c 0,6,7
 131 -11 131 -11 101.5 27 c 128,-1,8
 72 65 72 65 72 132 c 2,9,-1
 72 361 l 2,10,11
 72 407 72 407 61 420 c 128,-1,12
 50 433 50 433 9 433 c 1,13,-1
 9 447 l 1,14,-1
 157 447 l 1,15,-1
 157 137 l 2,16,17
 157 48 157 48 232 48 c 0,18,19
 270 48 270 48 310 80 c 0,20,21
 332 98 332 98 332 124 c 2,22,-1
 332 359 l 2,23,24
 332 407 332 407 320 420 c 128,-1,25
 308 433 308 433 260 433 c 1,26,-1
 260 447 l 1,27,-1
 416 447 l 1,28,-1
 416 120 l 2,29,30
 416 80 416 80 425 65.5 c 128,-1,31
 434 51 434 51 468 51 c 2,32,-1
 479 51 l 1,33,-1
 479 37 l 1,0,1
EndSplineSet
EndChar

StartChar: v
Encoding: 118 118 86
Width: 499
Flags: W
HStem: -11 21G<243.75 251.25> 433 14<11 37.5544 172.25 206 329 360.5 443.73 467>
DStem2: 270 120 230 17 0.395756 -0.918356<-304.574 0> 270 120 266 17 0.378917 0.925431<0 301.343>
LayerCount: 3
Fore
SplineSet
467 433 m 1
 430 433 418 390 399 343 c 2
 266 17 l 2
 263 9 253 -11 247 -11 c 0
 243 -11 233 9 230 17 c 2
 74 379 l 2
 58 416 34 433 11 433 c 1
 11 447 l 1
 206 447 l 1
 206 433 l 1
 171 433 161 421 161 405 c 0
 161 391 168 375 174 358 c 2
 270 120 l 1
 347 323 l 2
 362 360 371 387 371 405 c 0
 371 424 359 433 329 433 c 1
 329 447 l 1
 467 447 l 1
 467 433 l 1
EndSplineSet
Validated: 1
Layer: 2
SplineSet
467 433 m 1,0,1
 450 433 450 433 442.5 425 c 128,-1,2
 435 417 435 417 431 413 c 128,-1,3
 427 409 427 409 422 398 c 128,-1,4
 417 387 417 387 414.5 382 c 128,-1,5
 412 377 412 377 406.5 362.5 c 128,-1,6
 401 348 401 348 399 343 c 2,7,-1
 266 17 l 2,8,9
 255 -11 255 -11 247.5 -11 c 128,-1,10
 240 -11 240 -11 230 17 c 1,11,-1
 74 379 l 2,12,13
 51 433 51 433 11 433 c 1,14,-1
 11 447 l 1,15,-1
 206 447 l 1,16,-1
 206 433 l 1,17,18
 161 433 161 433 161 405 c 256,19,20
 161 395 161 395 174 358 c 1,21,-1
 270 120 l 1,22,-1
 347 323 l 1,23,24
 371 382 371 382 371 405 c 256,25,26
 371 433 371 433 329 433 c 1,27,-1
 329 447 l 1,28,-1
 467 447 l 1,29,-1
 467 433 l 1,0,1
EndSplineSet
EndChar

StartChar: w
Encoding: 119 119 87
Width: 721
Flags: W
HStem: -11 21G<232.75 238.25 485.5 490.5> 433 14<22 41.8413 166.066 201 263 293.144 419.293 464 570 601.582>
DStem2: 171 341.5 72 384 0.371804 -0.928311<-58.7983 241.496> 260 117 244 -3 0.428374 0.903602<0 183.518> 422 343 372 267 0.368421 -0.929659<52.2331 235.841> 507 123 496 -3 0.378168 0.925737<0 299.024>
LayerCount: 3
Fore
SplineSet
693 433 m 1
 667 424 656 387 647 370 c 1
 496 -3 l 2
 495 -6 492 -11 488 -11 c 0
 485 -11 481 -7 479 -3 c 2
 372 267 l 1
 244 -3 l 2
 243 -6 238 -11 235 -11 c 0
 232 -11 228 -6 227 -3 c 2
 88 343 l 2
 63 406 58 433 22 433 c 1
 22 447 l 1
 201 447 l 1
 201 433 l 1
 192 433 l 2
 170 433 155 426 155 399 c 0
 155 375 200 270 210 244 c 2
 260 117 l 1
 350 310 l 1
 324 396 312 433 263 433 c 1
 263 447 l 1
 464 447 l 1
 464 433 l 1
 456 433 l 2
 420 433 406 425 406 404 c 0
 406 389 412 370 422 343 c 2
 507 123 l 1
 590 323 l 2
 605 359 614 386 614 403 c 0
 614 424 601 433 570 433 c 1
 570 447 l 1
 693 447 l 1
 693 433 l 1
EndSplineSet
Validated: 1
Layer: 2
SplineSet
693 433 m 1,0,1
 675 427 675 427 664 405 c 0,2,3
 660 397 660 397 654.5 385 c 128,-1,4
 649 373 649 373 647 370 c 2,5,-1
 496 -3 l 2,6,7
 493 -11 493 -11 488 -11 c 128,-1,8
 483 -11 483 -11 479 -3 c 2,9,-1
 372 267 l 1,10,-1
 244 -3 l 2,11,12
 241 -11 241 -11 235.5 -11 c 128,-1,13
 230 -11 230 -11 227 -3 c 2,14,-1
 88 343 l 2,15,16
 85 351 85 351 79.5 364.5 c 128,-1,17
 74 378 74 378 72 384 c 0,18,19
 60 421 60 421 42 430 c 0,20,21
 37 433 37 433 22 433 c 1,22,-1
 22 447 l 1,23,-1
 201 447 l 1,24,-1
 201 433 l 1,25,-1
 192 433 l 2,26,27
 155 433 155 433 155 399 c 256,28,29
 155 381 155 381 171 341.5 c 128,-1,30
 187 302 187 302 197.5 275 c 128,-1,31
 208 248 208 248 210 244 c 2,32,-1
 260 117 l 1,33,-1
 350 310 l 1,34,35
 328 383 328 383 312.5 408 c 128,-1,36
 297 433 297 433 263 433 c 1,37,-1
 263 447 l 1,38,-1
 464 447 l 1,39,-1
 464 433 l 1,40,-1
 456 433 l 2,41,42
 406 433 406 433 406 404 c 256,43,44
 406 386 406 386 422 343 c 2,45,-1
 507 123 l 1,46,-1
 590 323 l 2,47,48
 614 381 614 381 614 403 c 256,49,50
 614 433 614 433 570 433 c 1,51,-1
 570 447 l 1,52,-1
 693 447 l 1,53,-1
 693 433 l 1,0,1
EndSplineSet
EndChar

StartChar: x
Encoding: 120 120 88
Width: 499
Flags: W
HStem: 0 14<17 46.25 126.414 163 278 314.606 452.262 479> 433 14<25 61.2812 199.089 232 276 307.787 399.662 433>
DStem2: 97 77 149 84 0.555351 0.831616<-25.6353 168.657 270.695 398.021> 249 301 118 362 0.547723 -0.83666<-121.185 0 71.6764 265.349>
LayerCount: 3
Fore
SplineSet
479 0 m 1
 278 0 l 1
 278 14 l 1
 307 16 329 22 329 36 c 0
 329 40 328 44 324 49 c 2
 221 197 l 1
 149 84 l 2
 131 57 122 40 122 29 c 0
 122 17 135 14 163 14 c 1
 163 0 l 1
 17 0 l 1
 17 14 l 1
 54 14 71 40 97 77 c 2
 204 230 l 1
 118 362 l 2
 94 398 89 430 25 433 c 1
 25 447 l 1
 232 447 l 1
 232 433 l 1
 197 433 189 419 189 407 c 0
 189 392 238 318 249 301 c 1
 263 323 316 384 316 410 c 0
 316 430 290 433 276 433 c 1
 276 447 l 1
 433 447 l 1
 433 433 l 1
 396 433 366 407 346 379 c 2
 269 270 l 1
 390 84 l 2
 416 45 444 14 479 14 c 1
 479 0 l 1
EndSplineSet
Validated: 1
Layer: 2
SplineSet
479 0 m 1,0,-1
 278 0 l 1,1,-1
 278 14 l 1,2,3
 329 18 329 18 329 36 c 256,4,5
 329 43 329 43 324 49 c 2,6,-1
 221 197 l 1,7,-1
 149 84 l 1,8,9
 122 44 122 44 122 29 c 256,10,11
 122 14 122 14 163 14 c 1,12,-1
 163 0 l 1,13,-1
 17 0 l 1,14,-1
 17 14 l 1,15,16
 48 14 48 14 72 42 c 0,17,18
 80 52 80 52 97 77 c 2,19,-1
 204 230 l 1,20,-1
 118 362 l 2,21,22
 114 368 114 368 106 382 c 0,23,24
 94 402 94 402 79 416 c 128,-1,25
 64 430 64 430 25 433 c 1,26,-1
 25 447 l 1,27,-1
 232 447 l 1,28,-1
 232 433 l 1,29,30
 189 433 189 433 189 407 c 256,31,32
 189 394 189 394 249 301 c 1,33,34
 252 306 252 306 284 348 c 128,-1,35
 316 390 316 390 316 410 c 256,36,37
 316 433 316 433 276 433 c 1,38,-1
 276 447 l 1,39,-1
 433 447 l 1,40,-1
 433 433 l 1,41,42
 385 433 385 433 346 379 c 2,43,-1
 269 270 l 1,44,-1
 390 84 l 1,45,46
 437 14 437 14 479 14 c 1,47,-1
 479 0 l 1,0,-1
EndSplineSet
EndChar

StartChar: y
Encoding: 121 121 89
Width: 499
Flags: W
HStem: -217 82<68.0029 165.598> 433 14<15 39.2129 176.75 221 341 373.812 458.566 476>
DStem2: 174 367 71 390 0.422206 -0.9065<-39.1692 277.054> 230 -23 276 -8 0.35963 0.933095<-119.943 36.6491 148.333 456.342>
LayerCount: 3
Fore
SplineSet
83 -117 m 0
 103 -117 137 -135 151 -135 c 0
 175 -135 197 -108 230 -23 c 1
 236 -11 242 5 242 17 c 0
 242 20 242 23 241 25 c 2
 71 390 l 1
 60 416 45 430 15 433 c 1
 15 447 l 1
 221 447 l 1
 221 433 l 1
 178 433 162 423 162 405 c 0
 162 395 167 382 174 367 c 2
 287 114 l 1
 386 392 l 2
 388 396 389 401 389 405 c 0
 389 419 378 431 341 433 c 1
 341 447 l 1
 476 447 l 1
 476 433 l 1
 456 433 433 399 424 376 c 2
 276 -8 l 2
 247 -83 203 -217 103 -217 c 0
 63 -217 31 -193 31 -158 c 0
 31 -125 62 -117 83 -117 c 0
EndSplineSet
Validated: 1
Layer: 2
SplineSet
83 -117 m 256,0,1
 94 -117 94 -117 119.5 -126 c 128,-1,2
 145 -135 145 -135 151 -135 c 256,3,4
 170 -135 170 -135 188 -110 c 128,-1,5
 206 -85 206 -85 230 -23 c 0,6,7
 242 1 242 1 242 12 c 128,-1,8
 242 23 242 23 241 25 c 2,9,-1
 71 390 l 1,10,11
 54 429 54 429 15 433 c 1,12,-1
 15 447 l 1,13,-1
 221 447 l 1,14,-1
 221 433 l 1,15,16
 162 433 162 433 162 405 c 256,17,18
 162 393 162 393 174 367 c 2,19,-1
 287 114 l 1,20,-1
 386 392 l 2,21,22
 389 398 389 398 389 405 c 256,23,24
 389 430 389 430 341 433 c 1,25,-1
 341 447 l 1,26,-1
 476 447 l 1,27,-1
 476 433 l 1,28,29
 462 433 462 433 447 414.5 c 128,-1,30
 432 396 432 396 424 376 c 2,31,-1
 276 -8 l 2,32,33
 237 -109 237 -109 213 -145 c 0,34,35
 165 -216 165 -216 103 -217 c 256,36,37
 73 -217 73 -217 52 -200.5 c 128,-1,38
 31 -184 31 -184 31 -158 c 256,39,40
 31 -136 31 -136 47 -126.5 c 128,-1,41
 63 -117 63 -117 83 -117 c 256,0,1
EndSplineSet
EndChar

StartChar: z
Encoding: 122 122 90
Width: 443
Flags: W
HStem: 0 31<134 356.35> 416 31<95.8265 293>
VStem: 54 17<330 373.562> 399 19<96.5938 136.842>
DStem2: 25 14 134 31 0.557556 0.830139<74.886 483.141>
LayerCount: 3
Fore
SplineSet
260 31 m 2
 377 31 383 58 399 140 c 1
 418 135 l 1
 404 0 l 1
 25 0 l 1
 25 14 l 1
 293 416 l 1
 167 416 l 2
 81 416 77 384 71 330 c 1
 54 330 l 1
 57 447 l 1
 404 447 l 1
 404 433 l 1
 134 31 l 1
 260 31 l 2
EndSplineSet
Validated: 1
Layer: 2
SplineSet
260 31 m 2,0,1
 304 31 304 31 328.5 35.5 c 128,-1,2
 353 40 353 40 367.5 56 c 128,-1,3
 382 72 382 72 387 87.5 c 128,-1,4
 392 103 392 103 399 140 c 1,5,-1
 418 135 l 1,6,-1
 404 0 l 1,7,-1
 25 0 l 1,8,-1
 25 14 l 1,9,-1
 293 416 l 1,10,-1
 167 416 l 2,11,12
 105 416 105 416 92.5 397 c 128,-1,13
 80 378 80 378 77 366.5 c 128,-1,14
 74 355 74 355 71 330 c 1,15,-1
 54 330 l 1,16,-1
 57 447 l 1,17,-1
 404 447 l 1,18,-1
 404 433 l 1,19,-1
 134 31 l 1,20,-1
 260 31 l 2,0,1
EndSplineSet
EndChar

StartChar: braceleft
Encoding: 123 123 91
Width: 479
Flags: W
HStem: 662 20G<300 317.5>
VStem: 186 72<-121.721 219.727 299.398 638.561>
LayerCount: 3
Fore
SplineSet
341 -164 m 1
 227 -164 186 -140 186 -17 c 2
 186 143 l 2
 186 209 177 240 111 257 c 1
 172 275 186 307 186 370 c 2
 186 544 l 2
 186 662 241 682 341 682 c 1
 276 665 258 627 258 559 c 2
 258 384 l 2
 258 313 246 275 177 257 c 1
 249 238 258 194 258 121 c 2
 258 -43 l 2
 258 -111 278 -152 341 -164 c 1
EndSplineSet
Validated: 1
Layer: 2
SplineSet
341 -164 m 1,0,1
 252 -164 252 -164 219 -135 c 128,-1,2
 186 -106 186 -106 186 -17 c 2,3,-1
 186 143 l 2,4,5
 186 196 186 196 172 220.5 c 128,-1,6
 158 245 158 245 111 257 c 1,7,8
 155 270 155 270 170.5 295 c 128,-1,9
 186 320 186 320 186 370 c 2,10,-1
 186 544 l 2,11,12
 186 627 186 627 222.5 654.5 c 128,-1,13
 259 682 259 682 341 682 c 1,14,15
 294 670 294 670 276 641 c 128,-1,16
 258 612 258 612 258 559 c 2,17,-1
 258 384 l 2,18,19
 258 327 258 327 242 298.5 c 128,-1,20
 226 270 226 270 177 257 c 1,21,22
 227 244 227 244 242.5 213 c 128,-1,23
 258 182 258 182 258 121 c 2,24,-1
 258 -43 l 2,25,26
 258 -96 258 -96 276.5 -125.5 c 128,-1,27
 295 -155 295 -155 341 -164 c 1,0,1
EndSplineSet
EndChar

StartChar: bar
Encoding: 124 124 92
Width: 199
Flags: W
HStem: 0 21G<68 132> 662 20G<68 132>
VStem: 68 64<0 682>
LayerCount: 3
Fore
SplineSet
132 0 m 1
 68 0 l 1
 68 682 l 1
 132 682 l 1
 132 0 l 1
EndSplineSet
Validated: 1
Layer: 2
SplineSet
132 0 m 1,0,-1
 68 0 l 1,1,-1
 68 682 l 1,2,-1
 132 682 l 1,3,-1
 132 0 l 1,0,-1
EndSplineSet
EndChar

StartChar: braceright
Encoding: 125 125 93
Width: 479
Flags: W
HStem: 662 20G<163 181>
VStem: 223 70<-123.633 219.727 298.882 639.813>
LayerCount: 3
Fore
SplineSet
370 257 m 1
 304 240 293 209 293 143 c 2
 293 -17 l 2
 293 -140 254 -164 140 -164 c 1
 203 -152 223 -111 223 -43 c 2
 223 121 l 2
 223 194 230 238 303 257 c 1
 233 275 223 313 223 384 c 2
 223 559 l 2
 223 627 204 665 140 682 c 1
 240 682 293 662 293 544 c 2
 293 370 l 2
 293 307 307 275 370 257 c 1
EndSplineSet
Validated: 1
Layer: 2
SplineSet
370 257 m 1,0,1
 323 245 323 245 308 220.5 c 128,-1,2
 293 196 293 196 293 143 c 2,3,-1
 293 -17 l 2,4,5
 293 -107 293 -107 261 -135.5 c 128,-1,6
 229 -164 229 -164 140 -164 c 1,7,8
 186 -155 186 -155 204.5 -125.5 c 128,-1,9
 223 -96 223 -96 223 -43 c 2,10,-1
 223 121 l 2,11,12
 223 183 223 183 237.5 213.5 c 128,-1,13
 252 244 252 244 303 257 c 1,14,15
 254 270 254 270 238.5 298 c 128,-1,16
 223 326 223 326 223 384 c 2,17,-1
 223 559 l 2,18,19
 223 612 223 612 204.5 641 c 128,-1,20
 186 670 186 670 140 682 c 1,21,22
 222 682 222 682 257.5 654.5 c 128,-1,23
 293 627 293 627 293 544 c 2,24,-1
 293 370 l 2,25,26
 293 320 293 320 309 295 c 128,-1,27
 325 270 325 270 370 257 c 1,0,1
EndSplineSet
EndChar

StartChar: asciitilde
Encoding: 126 126 94
Width: 540
Flags: W
HStem: 198 63<310.271 435.19> 267 65<102.419 239.45>
LayerCount: 3
Fore
SplineSet
522 307 m 1
 493 253 445 198 381 198 c 0
 304 198 229 267 160 267 c 0
 104 267 77 217 54 177 c 1
 18 217 l 1
 49 270 89 332 160 332 c 0
 229 332 329 261 382 261 c 0
 427 261 467 309 487 347 c 1
 522 307 l 1
EndSplineSet
Validated: 1
Layer: 2
SplineSet
522 307 m 1,0,1
 463 198 463 198 381 198 c 256,2,3
 342 198 342 198 268 232.5 c 128,-1,4
 194 267 194 267 160 267 c 256,5,6
 120 267 120 267 98 240.5 c 128,-1,7
 76 214 76 214 54 177 c 1,8,-1
 18 217 l 1,9,10
 38 251 38 251 53.5 272 c 128,-1,11
 69 293 69 293 98 312.5 c 128,-1,12
 127 332 127 332 160 332 c 256,13,14
 196 332 196 332 277 296.5 c 128,-1,15
 358 261 358 261 382 261 c 256,16,17
 413 261 413 261 441 287 c 128,-1,18
 469 313 469 313 487 347 c 1,19,-1
 522 307 l 1,0,1
EndSplineSet
EndChar

StartChar: uni0E10.descless
Encoding: 63232 63232 95
Width: 508
Flags: W
HStem: -8 43<258.076 324.379> 190 39<101.82 175.626> 319 39<101.324 175.669> 492 71<256.013 410.448> 530 68<107.373 264.521>
VStem: 54 40<236.714 312.028> 178 75<39.9896 198 232.797 315.203> 330 77<38.7285 371.182>
DStem2: 81 476 28 443 0.968685 -0.248291<0 272.419>
LayerCount: 3
Fore
SplineSet
453 582 m 0xf7
 453 536 398 492 342 492 c 3xf7
 321 492 303 496 259 510 c 0
 210 525 186 530 156 530 c 3
 119 530 97 514 81 476 c 1
 358 405 l 2
 392 396 407 374 407 332 c 2
 407 106 l 2
 407 35 364 -8 292 -8 c 3
 229 -8 178 43 178 106 c 2
 178 198 l 1
 168 192 157 190 138 190 c 3
 89 190 54 226 54 276 c 3
 54 322 91 358 138 358 c 3
 211 358 253 326 253 270 c 2
 253 78 l 2
 253 54 270 35 292 35 c 3
 314 35 330 53 330 77 c 2
 330 321 l 2
 330 355 323 368 301 374 c 2
 28 443 l 1
 62 552 107 598 179 598 c 3xef
 199 598 220 594 271 581 c 0
 324 568 351 563 377 563 c 3
 405 563 421 569 436 584 c 0
 442 590 444 591 447 591 c 0
 451 591 453 588 453 582 c 0xf7
138 229 m 3
 164 229 183 248 183 274 c 3
 183 300 164 319 138 319 c 3
 113 319 94 300 94 274 c 3
 94 248 113 229 138 229 c 3
EndSplineSet
Layer: 2
SplineSet
453 582 m 0,0,1
 453 548 453 548 418.5 520 c 128,-1,2
 384 492 384 492 342 492 c 0,3,4
 316 492 316 492 259 510 c 0,5,6
 194 530 194 530 156 530 c 0,7,8
 104 530 104 530 81 476 c 1,9,-1
 358 405 l 2,10,11
 407 392 407 392 407 332 c 2,12,-1
 407 106 l 2,13,14
 407 53 407 53 376.5 22.5 c 128,-1,15
 346 -8 346 -8 292 -8 c 0,16,17
 245 -8 245 -8 211.5 25.5 c 128,-1,18
 178 59 178 59 178 106 c 2,19,-1
 178 198 l 1,20,21
 165 190 165 190 138 190 c 0,22,23
 101 190 101 190 77.5 214 c 128,-1,24
 54 238 54 238 54 276 c 0,25,26
 54 310 54 310 78.5 334 c 128,-1,27
 103 358 103 358 138 358 c 0,28,29
 193 358 193 358 223 335 c 128,-1,30
 253 312 253 312 253 270 c 2,31,-1
 253 78 l 2,32,33
 253 60 253 60 264.5 47.5 c 128,-1,34
 276 35 276 35 292 35 c 128,-1,35
 308 35 308 35 319 47 c 128,-1,36
 330 59 330 59 330 77 c 2,37,-1
 330 321 l 2,38,39
 330 347 330 347 323.5 358.5 c 128,-1,40
 317 370 317 370 301 374 c 2,41,-1
 28 443 l 1,42,43
 53 525 53 525 89 561.5 c 128,-1,44
 125 598 125 598 179 598 c 0,45,46
 204 598 204 598 271 581 c 0,47,48
 344 563 344 563 377 563 c 0,49,50
 415 563 415 563 436 584 c 0,51,52
 443 591 443 591 447 591 c 0,53,54
 453 591 453 591 453 582 c 0,0,1
138 229 m 0,55,56
 158 229 158 229 170.5 241.5 c 128,-1,57
 183 254 183 254 183 274 c 128,-1,58
 183 294 183 294 170.5 306.5 c 128,-1,59
 158 319 158 319 138 319 c 0,60,61
 119 319 119 319 106.5 306 c 128,-1,62
 94 293 94 293 94 274 c 128,-1,63
 94 255 94 255 106.5 242 c 128,-1,64
 119 229 119 229 138 229 c 0,55,56
EndSplineSet
EndChar

StartChar: uni0E34.left
Encoding: 63233 63233 96
Width: 0
Flags: W
HStem: 740 40<-630.506 -437.503> 844 49<-582.857 -406.156>
LayerCount: 3
Back
SplineSet
-255 654 m 1
 -280 667 -402 722 -475 731 c 0
 -573 746 -659 733 -677 728 c 1
 -650 834 -564 900 -461 892 c 0
 -347 885 -263 796 -255 654 c 1
-307 719 m 1
 -339 803 -390 834 -464 843 c 0
 -527 851 -582 820 -605 779 c 1
 -605 779 -533 785 -464 773 c 0
 -370 756 -307 719 -307 719 c 1
EndSplineSet
Fore
Refer: 179 3636 N 1 0 0 1 -173 0 2
Layer: 2
Refer: 179 3636 N 1 0 0 1 -173 0 2
EndChar

StartChar: uni0E35.left
Encoding: 63234 63234 97
Width: 0
Flags: W
HStem: 740 40<-629.966 -437.901> 844 49<-582.857 -403.772>
VStem: -354 75<849 951>
LayerCount: 3
Back
SplineSet
-255 654 m 1
 -280 667 -402 720 -475 731 c 0
 -576 746 -659 733 -677 728 c 1
 -656 820 -573 900 -470 892 c 0
 -435 891 -389 883 -347 852 c 1
 -347 951 l 1
 -280 951 l 1
 -280 762 l 1
 -280 762 -260 720 -255 654 c 1
-307 719 m 1
 -339 803 -390 834 -464 843 c 0
 -527 851 -582 820 -605 779 c 1
 -605 779 -533 785 -464 773 c 0
 -370 756 -307 719 -307 719 c 1
EndSplineSet
Fore
Refer: 180 3637 N 1 0 0 1 -173 0 2
Layer: 2
Refer: 180 3637 N 1 0 0 1 -173 0 2
EndChar

StartChar: uni0E36.left
Encoding: 63235 63235 98
Width: 0
Flags: W
HStem: 740 40<-630.093 -440.541> 844 50<-583.064 -404.716> 906 45<-354.866 -277.747>
VStem: -403 42<874 898.559> -272 44<825.461 900.475>
LayerCount: 3
Back
SplineSet
-318 822 m 0
 -291 822 -278 843 -278 864 c 0
 -278 884 -291 905 -318 905 c 0
 -344 905 -357 884 -357 864 c 0
 -357 843 -344 822 -318 822 c 0
-307 719 m 17
 -339 803 -390 834 -464 843 c 0
 -527 851 -582 820 -605 779 c 1
 -605 779 -533 785 -464 773 c 0
 -370 756 -307 719 -307 719 c 17
-255 654 m 1
 -280 667 -402 720 -475 731 c 0
 -576 746 -659 733 -677 728 c 1
 -656 822 -568 900 -467 892 c 0
 -425 889 -396 877 -396 877 c 1
 -398 908 -369 946 -315 946 c 0
 -267 946 -233 908 -233 865 c 0
 -233 829 -253 791 -290 783 c 1
 -290 783 -258 733 -255 654 c 1
EndSplineSet
Fore
Refer: 181 3638 N 1 0 0 1 -173 0 2
Layer: 2
Refer: 181 3638 N 1 0 0 1 -173 0 2
EndChar

StartChar: uni0E37.left
Encoding: 63236 63236 99
Width: 0
Flags: W
HStem: 736 40<-633.316 -439.521> 830 46<-588.626 -484.552>
VStem: -483 72<876 951> -348 71<831 951>
LayerCount: 3
Back
SplineSet
-255 654 m 1
 -280 667 -402 720 -475 731 c 0
 -576 746 -659 733 -677 728 c 1
 -647 851 -541 902 -464 889 c 1
 -462 951 l 1
 -407 951 l 1
 -406 877 l 1
 -372 869 -343 845 -343 845 c 1
 -343 951 l 1
 -284 951 l 1
 -281 763 l 1
 -281 763 -258 723 -255 654 c 1
-307 719 m 1
 -339 803 -390 834 -464 843 c 0
 -527 851 -582 820 -605 779 c 1
 -605 779 -533 785 -464 773 c 0
 -370 756 -307 719 -307 719 c 1
EndSplineSet
Fore
Refer: 182 3639 N 1 0 0 1 -173 0 2
Layer: 2
Refer: 182 3639 N 1 0 0 1 -173 0 2
EndChar

StartChar: ellipsis
Encoding: 8230 8230 100
Width: 998
Flags: W
HStem: -14 115<127.502 206.467 459.017 544.219 792.502 871.467>
VStem: 111 113<4.04846 87.9844> 442 116<4.04846 87.5154> 776 113<4.04846 87.9844>
CounterMasks: 1 70
LayerCount: 3
Fore
SplineSet
889 45 m 0
 889 12 863 -14 831 -14 c 0
 800 -14 776 14 776 45 c 0
 776 74 802 101 831 101 c 0
 862 101 889 75 889 45 c 0
558 45 m 0
 558 12 530 -14 499 -14 c 0
 467 -14 442 14 442 45 c 0
 442 74 468 101 499 101 c 0
 530 101 558 75 558 45 c 0
224 45 m 0
 224 12 198 -14 166 -14 c 0
 135 -14 111 14 111 45 c 0
 111 74 137 101 166 101 c 0
 197 101 224 75 224 45 c 0
EndSplineSet
Validated: 1
Layer: 2
SplineSet
889 45 m 0,0,1
 889 20 889 20 872 3 c 128,-1,2
 855 -14 855 -14 831 -14 c 0,3,4
 808 -14 808 -14 792 3.5 c 128,-1,5
 776 21 776 21 776 45 c 0,6,7
 776 67 776 67 792.5 84 c 128,-1,8
 809 101 809 101 831 101 c 0,9,10
 854 101 854 101 871.5 84 c 128,-1,11
 889 67 889 67 889 45 c 0,0,1
558 45 m 0,12,13
 558 21 558 21 540.5 3.5 c 128,-1,14
 523 -14 523 -14 499 -14 c 128,-1,15
 475 -14 475 -14 458.5 3.5 c 128,-1,16
 442 21 442 21 442 45 c 0,17,18
 442 67 442 67 459 84 c 128,-1,19
 476 101 476 101 499 101 c 128,-1,20
 522 101 522 101 540 84 c 128,-1,21
 558 67 558 67 558 45 c 0,12,13
224 45 m 0,22,23
 224 20 224 20 207 3 c 128,-1,24
 190 -14 190 -14 166 -14 c 0,25,26
 143 -14 143 -14 127 3.5 c 128,-1,27
 111 21 111 21 111 45 c 0,28,29
 111 67 111 67 127.5 84 c 128,-1,30
 144 101 144 101 166 101 c 0,31,32
 189 101 189 101 206.5 84 c 128,-1,33
 224 67 224 67 224 45 c 0,22,23
EndSplineSet
EndChar

StartChar: uni0E48.low_left
Encoding: 63237 63237 101
Width: 0
Flags: W
HStem: 670 244<-343 -285>
VStem: -343 58<670 770.471>
LayerCount: 3
Back
SplineSet
-275 926 m 1
 -290 685 l 1
 -341 685 l 1
 -356 926 l 1
 -275 926 l 1
EndSplineSet
Fore
Refer: 106 63242 N 1 0 0 1 -173 0 2
Validated: 1
Layer: 2
Refer: 106 63242 N 1 0 0 1 -173 0 2
EndChar

StartChar: uni0E49.low_left
Encoding: 63238 63238 102
Width: 0
Flags: W
HStem: 668 48<-451 -363.805> 670 35<-537 -504.163> 776 37<-519.492 -451.404> 919 36<-519.277 -438.905>
VStem: -572 40<823.674 908> -426 43<823.753 908.375> -234 81<858.734 952>
LayerCount: 3
Back
SplineSet
-229 931 m 17
 -275 637 -571 667 -602 670 c 1
 -602 703 l 1
 -593 707 -538 734 -519 780 c 1
 -519 780 -528 776 -544 776 c 0
 -599 776 -626 816 -626 856 c 0
 -626 897 -599 937 -544 937 c 0
 -458 937 -455 857 -455 857 c 1
 -455 765 -516 716 -516 716 c 1
 -515 714 l 1
 -452 723 -319 766 -310 931 c 1
 -229 931 l 17
-542 811 m 0
 -512 811 -497 834 -497 856 c 0
 -497 879 -512 902 -542 902 c 0
 -573 902 -588 879 -588 856 c 0
 -588 834 -573 811 -542 811 c 0
EndSplineSet
Fore
Refer: 107 63243 N 1 0 0 1 -173 0 2
Layer: 2
Refer: 107 63243 N 1 0 0 1 -173 0 2
EndChar

StartChar: uni0E4A.low_left
Encoding: 63239 63239 103
Width: 0
Flags: W
HStem: 668 30<-558.95 -494.392> 782 32<-559.487 -494.16> 876 56<-565.146 -525>
VStem: -634 43<778.218 850.084> -485 34<706.031 774.424> -351 51<739.588 859.718> -236 71<813.773 926>
DStem2: -522 932 -525 876 0.784559 -0.620054<17.573 79.0253>
LayerCount: 3
Back
SplineSet
-246 906 m 17
 -238 768 -309 684 -436 670 c 1
 -436 694 l 1
 -410 710 -397 744 -397 776 c 0
 -397 810 -412 842 -438 849 c 1
 -495 811 l 1
 -548 849 l 1
 -585 849 -613 806 -607 768 c 1
 -607 768 -598 800 -548 800 c 0
 -510 800 -482 770 -482 737 c 0
 -482 697 -505 667 -548 667 c 0
 -611 667 -650 720 -650 793 c 0
 -650 843 -601 903 -548 903 c 1
 -493 857 l 1
 -439 902 l 1
 -369 884 -349 839 -349 798 c 0
 -349 771 -357 745 -366 728 c 1
 -309 766 -293 834 -310 906 c 1
 -246 906 l 17
-513 733 m 0
 -513 758 -532 770 -550 770 c 0
 -569 770 -588 758 -588 733 c 0
 -588 708 -569 696 -550 696 c 0
 -532 696 -513 708 -513 733 c 0
EndSplineSet
Fore
Refer: 108 63244 N 1 0 0 1 -173 0 2
Layer: 2
Refer: 108 63244 N 1 0 0 1 -173 0 2
EndChar

StartChar: uni0E4B.low_left
Encoding: 63240 63240 104
Width: 0
Flags: W
HStem: 677 21G<-347.2 -286.6> 779 60<-462 -350 -284 -173>
VStem: -348 63<677 777 840 942>
LayerCount: 3
Back
SplineSet
-233 777 m 1
 -347 776 l 1
 -349 676 l 1
 -406 676 l 1
 -407 776 l 1
 -522 777 l 1
 -522 834 l 1
 -409 836 l 1
 -410 935 l 1
 -344 935 l 1
 -346 836 l 1
 -233 834 l 1
 -233 777 l 1
EndSplineSet
Fore
Refer: 109 63245 N 1 0 0 1 -173 0 2
Validated: 1
Layer: 2
Refer: 109 63245 N 1 0 0 1 -173 0 2
EndChar

StartChar: uni0E4C.low_left
Encoding: 63241 63241 105
Width: 0
Flags: W
HStem: 668 39<-419.195 -344.793>
VStem: -468 41<714.383 786.231> -338 42<712.564 788.678> -245 72<925.666 951.139>
LayerCount: 3
Back
SplineSet
-226 954 m 1
 -239 846 -357 826 -399 816 c 1
 -370 811 -353 777 -353 748 c 0
 -353 707 -384 670 -433 670 c 0
 -482 670 -515 707 -515 748 c 0
 -515 786 -502 831 -399 860 c 0
 -350 876 -295 906 -298 968 c 1
 -226 954 l 1
-433 703 m 0
 -404 703 -390 724 -390 746 c 0
 -390 767 -404 788 -433 788 c 0
 -462 788 -477 767 -477 746 c 0
 -477 724 -462 703 -433 703 c 0
EndSplineSet
Fore
Refer: 110 63246 N 1 0 0 1 -173 0 2
Layer: 2
Refer: 110 63246 N 1 0 0 1 -173 0 2
EndChar

StartChar: uni0E48.low
Encoding: 63242 63242 106
Width: 0
Flags: W
HStem: 670 244<-170 -112>
VStem: -170 58<670 770.471>
AnchorPoint: "AboveMark" -141 968 basemark 0
AnchorPoint: "AboveBase" -106 645 mark 0
LayerCount: 3
Fore
SplineSet
-95 914 m 1
 -112 670 l 1
 -170 670 l 1
 -187 914 l 1
 -95 914 l 1
EndSplineSet
Validated: 1
Layer: 2
SplineSet
-95 914 m 1,0,-1
 -112 670 l 1,1,-1
 -170 670 l 1,2,-1
 -187 914 l 1,3,-1
 -95 914 l 1,0,-1
EndSplineSet
Substitution2: "Thai Phinthu Mai Ek Reordering" uni0E3A
EndChar

StartChar: uni0E49.low
Encoding: 63243 63243 107
Width: 0
Flags: W
HStem: 668 48<-278 -190.805> 670 35<-364 -331.163> 776 37<-346.492 -278.404> 919 36<-346.277 -265.905>
VStem: -399 40<823.674 908> -253 43<823.753 908.375> -61 81<858.734 952>
AnchorPoint: "AboveMark" -189 968 basemark 0
AnchorPoint: "AboveBase" -106 645 mark 0
LayerCount: 3
Fore
SplineSet
20 952 m 17xbe
 2 770 -119 668 -317 668 c 3xbe
 -337 668 -355 669 -364 670 c 1
 -364 705 l 1x7e
 -329 717 -291 750 -278 780 c 1
 -285 778 -297 776 -307 776 c 3
 -361 776 -399 813 -399 866 c 3
 -399 918 -360 955 -307 955 c 3
 -251 955 -210 918 -210 866 c 3
 -210 807 -238 745 -278 716 c 1
 -276 716 l 1
 -155 720 -66 817 -61 952 c 1
 20 952 l 17xbe
-307 813 m 3
 -276 813 -253 835 -253 866 c 3
 -253 897 -276 919 -307 919 c 3
 -337 919 -359 897 -359 866 c 3
 -359 835 -337 813 -307 813 c 3
EndSplineSet
Layer: 2
SplineSet
20 952 m 17,0,1
 6 815 6 815 -81.5 741.5 c 128,-1,2
 -169 668 -169 668 -317 668 c 0,3,4
 -346 668 -346 668 -364 670 c 1,5,-1
 -364 705 l 1,6,7
 -338 714 -338 714 -313 736 c 128,-1,8
 -288 758 -288 758 -278 780 c 1,9,10
 -292 776 -292 776 -307 776 c 0,11,12
 -348 776 -348 776 -373.5 801 c 128,-1,13
 -399 826 -399 826 -399 866 c 0,14,15
 -399 905 -399 905 -373 930 c 128,-1,16
 -347 955 -347 955 -307 955 c 0,17,18
 -265 955 -265 955 -237.5 930 c 128,-1,19
 -210 905 -210 905 -210 866 c 0,20,21
 -210 822 -210 822 -229 780 c 128,-1,22
 -248 738 -248 738 -278 716 c 1,23,-1
 -276 716 l 2,24,25
 -185 719 -185 719 -125 785 c 128,-1,26
 -65 851 -65 851 -61 952 c 1,27,-1
 20 952 l 17,0,1
-307 813 m 128,-1,29
 -284 813 -284 813 -268.5 828 c 128,-1,30
 -253 843 -253 843 -253 866 c 128,-1,31
 -253 889 -253 889 -268.5 904 c 128,-1,32
 -284 919 -284 919 -307 919 c 128,-1,33
 -330 919 -330 919 -344.5 904 c 128,-1,34
 -359 889 -359 889 -359 866 c 128,-1,35
 -359 843 -359 843 -344.5 828 c 128,-1,28
 -330 813 -330 813 -307 813 c 128,-1,29
EndSplineSet
Substitution2: "Thai Phinthu Mai Tho Reordering" uni0E3A
EndChar

StartChar: uni0E4A.low
Encoding: 63244 63244 108
Width: 0
Flags: W
HStem: 668 30<-385.95 -321.392> 782 32<-386.487 -321.16> 876 56<-392.146 -352>
VStem: -461 43<778.218 850.084> -312 34<706.031 774.424> -178 51<739.588 859.718> -63 71<813.773 926>
DStem2: -349 932 -352 876 0.784559 -0.620054<17.573 79.0253>
AnchorPoint: "AboveMark" -268 968 basemark 0
AnchorPoint: "AboveBase" -106 645 mark 0
LayerCount: 3
Fore
SplineSet
8 926 m 17
 8 785 -77 690 -223 670 c 1
 -223 699 l 1
 -195 715 -178 751 -178 792 c 3
 -178 835 -196 868 -224 876 c 1
 -289 831 l 1
 -352 876 l 1
 -384 876 -418 834 -418 793 c 3
 -418 786 -418 784 -416 777 c 1
 -415 777 l 1
 -409 798 -383 814 -352 814 c 3
 -312 814 -278 782 -278 745 c 3
 -278 698 -307 668 -352 668 c 3
 -416 668 -461 726 -461 809 c 3
 -461 868 -404 931 -349 932 c 1
 -287 883 l 1
 -227 932 l 1
 -161 913 -127 873 -127 813 c 3
 -127 791 -134 760 -143 739 c 1
 -96 766 -63 828 -63 888 c 3
 -63 899 -65 912 -68 926 c 1
 8 926 l 17
-312 739 m 3
 -312 764 -329 782 -354 782 c 3
 -378 782 -395 764 -395 739 c 3
 -395 715 -378 698 -354 698 c 3
 -330 698 -312 715 -312 739 c 3
EndSplineSet
Layer: 2
SplineSet
8 926 m 17,0,1
 8 820 8 820 -53 752.5 c 128,-1,2
 -114 685 -114 685 -223 670 c 1,3,-1
 -223 699 l 1,4,5
 -178 725 -178 725 -178 792 c 0,6,7
 -178 824 -178 824 -190.5 847 c 128,-1,8
 -203 870 -203 870 -224 876 c 1,9,-1
 -289 831 l 1,10,-1
 -352 876 l 1,11,12
 -376 876 -376 876 -397 850 c 128,-1,13
 -418 824 -418 824 -418 793 c 0,14,15
 -418 784 -418 784 -416 777 c 1,16,-1
 -415 777 l 1,17,18
 -410 793 -410 793 -392.5 803.5 c 128,-1,19
 -375 814 -375 814 -352 814 c 0,20,21
 -322 814 -322 814 -300 793.5 c 128,-1,22
 -278 773 -278 773 -278 745 c 0,23,24
 -278 710 -278 710 -298 689 c 128,-1,25
 -318 668 -318 668 -352 668 c 0,26,27
 -400 668 -400 668 -430.5 707.5 c 128,-1,28
 -461 747 -461 747 -461 809 c 0,29,30
 -461 853 -461 853 -425.5 892 c 128,-1,31
 -390 931 -390 931 -349 932 c 1,32,-1
 -287 883 l 1,33,-1
 -227 932 l 1,34,35
 -127 903 -127 903 -127 813 c 0,36,37
 -127 776 -127 776 -143 739 c 1,38,39
 -108 759 -108 759 -85.5 801 c 128,-1,40
 -63 843 -63 843 -63 888 c 0,41,42
 -63 903 -63 903 -68 926 c 1,43,-1
 8 926 l 17,0,1
-312 739 m 0,44,45
 -312 758 -312 758 -323.5 770 c 128,-1,46
 -335 782 -335 782 -354 782 c 0,47,48
 -372 782 -372 782 -383.5 770 c 128,-1,49
 -395 758 -395 758 -395 739 c 0,50,51
 -395 721 -395 721 -383.5 709.5 c 128,-1,52
 -372 698 -372 698 -354 698 c 128,-1,53
 -336 698 -336 698 -324 709.5 c 128,-1,54
 -312 721 -312 721 -312 739 c 0,44,45
EndSplineSet
Substitution2: "Thai Phinthu Mai Tri Reordering" uni0E3A
EndChar

StartChar: uni0E4B.low
Encoding: 63245 63245 109
Width: 0
Flags: W
HStem: 677 21G<-174.2 -113.6> 779 60<-289 -177 -111 0>
VStem: -175 63<677 777 840 942>
AnchorPoint: "AboveMark" -144 968 basemark 0
AnchorPoint: "AboveBase" -106 645 mark 0
LayerCount: 3
Fore
SplineSet
0 779 m 1
 -112 777 l 1
 -114 677 l 1
 -174 677 l 1
 -175 777 l 1
 -289 779 l 1
 -289 839 l 1
 -177 840 l 1
 -178 942 l 1
 -109 942 l 1
 -111 840 l 1
 0 839 l 1
 0 779 l 1
EndSplineSet
Validated: 1
Layer: 2
SplineSet
0 779 m 1,0,-1
 -112 777 l 1,1,-1
 -114 677 l 1,2,-1
 -174 677 l 1,3,-1
 -175 777 l 1,4,-1
 -289 779 l 1,5,-1
 -289 839 l 1,6,-1
 -177 840 l 1,7,-1
 -178 942 l 1,8,-1
 -109 942 l 1,9,-1
 -111 840 l 1,10,-1
 0 839 l 1,11,-1
 0 779 l 1,0,-1
EndSplineSet
Substitution2: "Thai Phinthu Mai Chattawa Reordering" uni0E3A
EndChar

StartChar: uni0E4C.low
Encoding: 63246 63246 110
Width: 0
Flags: W
HStem: 668 39<-246.195 -171.793>
VStem: -295 41<714.383 786.231> -165 42<712.564 788.678> -72 72<925.666 951.139>
AnchorPoint: "AboveMark" -207 968 basemark 0
AnchorPoint: "AboveBase" -106 645 mark 0
LayerCount: 3
Fore
SplineSet
0 949 m 1
 -17 882 -56 855 -175 825 c 1
 -144 820 -123 790 -123 751 c 3
 -123 704 -160 668 -207 668 c 3
 -261 668 -295 702 -295 754 c 3
 -295 810 -261 844 -178 871 c 0
 -116 891 -82 924 -72 971 c 1
 0 949 l 1
-207 707 m 3
 -183 707 -165 725 -165 750 c 3
 -165 776 -182 794 -207 794 c 3
 -234 794 -254 776 -254 750 c 3
 -254 725 -234 707 -207 707 c 3
EndSplineSet
Layer: 2
SplineSet
0 949 m 1,0,1
 -13 899 -13 899 -49 873.5 c 128,-1,2
 -85 848 -85 848 -175 825 c 1,3,4
 -152 821 -152 821 -137.5 800.5 c 128,-1,5
 -123 780 -123 780 -123 751 c 0,6,7
 -123 716 -123 716 -147.5 692 c 128,-1,8
 -172 668 -172 668 -207 668 c 0,9,10
 -247 668 -247 668 -271 691.5 c 128,-1,11
 -295 715 -295 715 -295 754 c 0,12,13
 -295 796 -295 796 -267.5 823.5 c 128,-1,14
 -240 851 -240 851 -178 871 c 0,15,16
 -87 900 -87 900 -72 971 c 1,17,-1
 0 949 l 1,0,1
-207 707 m 0,18,19
 -189 707 -189 707 -177 719 c 128,-1,20
 -165 731 -165 731 -165 750 c 0,21,22
 -165 770 -165 770 -176.5 782 c 128,-1,23
 -188 794 -188 794 -207 794 c 0,24,25
 -227 794 -227 794 -240.5 781.5 c 128,-1,26
 -254 769 -254 769 -254 750 c 128,-1,27
 -254 731 -254 731 -240.5 719 c 128,-1,28
 -227 707 -227 707 -207 707 c 0,18,19
EndSplineSet
Substitution2: "Thai Phinthu Thanthakhat Reordering" uni0E3A
EndChar

StartChar: uni0E0D.descless
Encoding: 63247 63247 111
Width: 800
Flags: W
HStem: -8 37<176.955 248.268 494.62 593.215> 121 41<175.529 251.705> 392 44<97 129 180.719 267> 547 51<171.925 337.267>
VStem: 95 80<154 382.689> 95 72<37.9747 115.504> 259 39<40.0698 112.547> 395 77<49.4533 489.09> 617 77<49.9646 530>
LayerCount: 3
Fore
SplineSet
694 104 m 2xfb80
 694 46 621 -8 542 -8 c 3
 460 -8 395 45 395 112 c 2
 395 407 l 2
 395 493 343 547 260 547 c 3
 182 547 113 500 97 436 c 1
 267 436 l 1
 267 392 l 1
 218 392 l 2
 190 392 175 374 175 342 c 2
 175 154 l 1xfb80
 191 159 205 162 217 162 c 3
 264 162 298 127 298 78 c 3
 298 30 260 -8 212 -8 c 3
 139 -8 95 36 95 109 c 2xf780
 95 324 l 2
 95 354 109 382 129 392 c 1
 45 392 l 1
 49 512 142 598 270 598 c 3
 383 598 472 516 472 413 c 2
 472 101 l 2
 472 59 502 29 544 29 c 3
 587 29 617 59 617 100 c 2
 617 530 l 1
 665 588 l 2
 668 591 674 594 680 594 c 3
 690 594 694 585 694 567 c 2
 694 104 l 2xfb80
212 32 m 3
 240 32 259 50 259 76 c 3
 259 103 240 121 212 121 c 3
 185 121 167 103 167 76 c 3xf780
 167 50 186 32 212 32 c 3
EndSplineSet
Layer: 2
SplineSet
694 104 m 2,0,1
 694 60 694 60 647.5 26 c 128,-1,2
 601 -8 601 -8 542 -8 c 0,3,4
 480 -8 480 -8 437.5 27 c 128,-1,5
 395 62 395 62 395 112 c 2,6,-1
 395 407 l 2,7,8
 395 472 395 472 358.5 509.5 c 128,-1,9
 322 547 322 547 260 547 c 0,10,11
 202 547 202 547 155.5 515.5 c 128,-1,12
 109 484 109 484 97 436 c 1,13,-1
 267 436 l 1,14,-1
 267 392 l 1,15,-1
 218 392 l 2,16,17
 175 392 175 392 175 342 c 2,18,-1
 175 154 l 1,19,20
 201 162 201 162 217 162 c 0,21,22
 252 162 252 162 275 138.5 c 128,-1,23
 298 115 298 115 298 78 c 0,24,25
 298 42 298 42 273 17 c 128,-1,26
 248 -8 248 -8 212 -8 c 0,27,28
 157 -8 157 -8 126 23 c 128,-1,29
 95 54 95 54 95 109 c 2,30,-1
 95 324 l 2,31,32
 95 346 95 346 104.5 365 c 128,-1,33
 114 384 114 384 129 392 c 1,34,-1
 45 392 l 1,35,36
 48 482 48 482 111 540 c 128,-1,37
 174 598 174 598 270 598 c 0,38,39
 355 598 355 598 413.5 544 c 128,-1,40
 472 490 472 490 472 413 c 2,41,-1
 472 101 l 2,42,43
 472 70 472 70 492 49.5 c 128,-1,44
 512 29 512 29 544 29 c 128,-1,45
 576 29 576 29 596.5 49 c 128,-1,46
 617 69 617 69 617 100 c 2,47,-1
 617 530 l 1,48,-1
 665 588 l 2,49,50
 671 594 671 594 680 594 c 0,51,52
 694 594 694 594 694 567 c 2,53,-1
 694 104 l 2,0,1
212 32 m 0,54,55
 233 32 233 32 246 44 c 128,-1,56
 259 56 259 56 259 76 c 128,-1,57
 259 96 259 96 246 108.5 c 128,-1,58
 233 121 233 121 212 121 c 0,59,60
 192 121 192 121 179.5 108.5 c 128,-1,61
 167 96 167 96 167 76 c 0,62,63
 167 57 167 57 179.5 44.5 c 128,-1,64
 192 32 192 32 212 32 c 0,54,55
EndSplineSet
EndChar

StartChar: quoteleft
Encoding: 8216 8216 112
Width: 333
Flags: W
HStem: 456 122<138.238 201.999>
VStem: 86 52<543.5 635.035>
LayerCount: 3
Fore
SplineSet
243 524 m 0
 243 482 218 456 175 456 c 0
 112 456 86 515 86 565 c 0
 86 630 151 700 212 728 c 1
 226 700 l 1
 189 679 138 624 138 588 c 0
 138 582 138 578 143 578 c 0
 151 578 156 585 180 585 c 0
 214 585 243 561 243 524 c 0
EndSplineSet
Validated: 1
Layer: 2
SplineSet
243 524 m 0,0,1
 243 492 243 492 225 474 c 128,-1,2
 207 456 207 456 175 456 c 0,3,4
 131 456 131 456 108.5 489 c 128,-1,5
 86 522 86 522 86 565 c 0,6,7
 86 611 86 611 124.5 658.5 c 128,-1,8
 163 706 163 706 212 728 c 1,9,-1
 226 700 l 1,10,11
 196 683 196 683 167 648 c 128,-1,12
 138 613 138 613 138 588 c 0,13,14
 138 578 138 578 143 578 c 0,15,16
 145 578 145 578 155.5 581.5 c 128,-1,17
 166 585 166 585 180 585 c 0,18,19
 206 585 206 585 224.5 568 c 128,-1,20
 243 551 243 551 243 524 c 0,0,1
EndSplineSet
EndChar

StartChar: quoteright
Encoding: 8217 8217 113
Width: 333
Flags: W
HStem: 455 21G<109.63 144> 605 122<130.017 193.762>
VStem: 194 52<547.13 638.5>
LayerCount: 3
Fore
SplineSet
89 659 m 0
 89 700 114 727 157 727 c 0
 220 727 246 668 246 617 c 0
 246 553 181 482 120 455 c 1
 106 482 l 1
 143 504 194 559 194 594 c 0
 194 601 194 605 189 605 c 0
 181 605 177 598 152 598 c 0
 118 598 89 622 89 659 c 0
EndSplineSet
Validated: 1
Layer: 2
SplineSet
89 659 m 0,0,1
 89 690 89 690 107 708.5 c 128,-1,2
 125 727 125 727 157 727 c 0,3,4
 201 727 201 727 223.5 693.5 c 128,-1,5
 246 660 246 660 246 617 c 0,6,7
 246 571 246 571 207 523.5 c 128,-1,8
 168 476 168 476 120 455 c 1,9,-1
 106 482 l 1,10,11
 136 500 136 500 165 534.5 c 128,-1,12
 194 569 194 569 194 594 c 0,13,14
 194 605 194 605 189 605 c 0,15,16
 187 605 187 605 177 601.5 c 128,-1,17
 167 598 167 598 152 598 c 0,18,19
 126 598 126 598 107.5 615 c 128,-1,20
 89 632 89 632 89 659 c 0,0,1
EndSplineSet
EndChar

StartChar: bullet
Encoding: 8226 8226 116
Width: 385
Flags: W
HStem: 189 261<120.938 264.938>
VStem: 63 260<247 391.938>
LayerCount: 3
Fore
SplineSet
323 319 m 0
 323 247 266 189 192 189 c 0
 121 189 63 247 63 319 c 0
 63 392 120 450 192 450 c 0
 266 450 323 392 323 319 c 0
EndSplineSet
Validated: 1
Layer: 2
SplineSet
323 319 m 0,0,1
 323 265 323 265 285 227 c 128,-1,2
 247 189 247 189 192 189 c 0,3,4
 139 189 139 189 101 227 c 128,-1,5
 63 265 63 265 63 319 c 0,6,7
 63 374 63 374 100.5 412 c 128,-1,8
 138 450 138 450 192 450 c 0,9,10
 247 450 247 450 285 412 c 128,-1,11
 323 374 323 374 323 319 c 0,0,1
EndSplineSet
EndChar

StartChar: endash
Encoding: 8211 8211 117
Width: 768
Flags: W
HStem: 214 47<34 734>
LayerCount: 3
Fore
SplineSet
734 214 m 1
 34 214 l 1
 34 261 l 1
 734 261 l 1
 734 214 l 1
EndSplineSet
Validated: 1
Layer: 2
SplineSet
734 214 m 1,0,-1
 34 214 l 1,1,-1
 34 261 l 1,2,-1
 734 261 l 1,3,-1
 734 214 l 1,0,-1
EndSplineSet
EndChar

StartChar: emdash
Encoding: 8212 8212 118
Width: 1536
Flags: W
HStem: 214 47<22 1514>
LayerCount: 3
Fore
SplineSet
1514 214 m 1
 22 214 l 1
 22 261 l 1
 1514 261 l 1
 1514 214 l 1
EndSplineSet
Validated: 1
Layer: 2
SplineSet
1514 214 m 1,0,-1
 22 214 l 1,1,-1
 22 261 l 1,2,-1
 1514 261 l 1,3,-1
 1514 214 l 1,0,-1
EndSplineSet
EndChar

StartChar: uni0E31.left
Encoding: 63248 63248 119
Width: 0
Flags: W
HStem: 676 52<-401.08 -225.183> 874 41<-482.123 -405.36>
VStem: -537 47<788.241 867.347> -398 45<788.109 867.394> -121 89<848.194 911>
LayerCount: 3
Back
SplineSet
66 908 m 17
 27 750 -128 677 -265 677 c 0
 -406 677 -494 752 -494 826 c 0
 -494 871 -461 912 -404 912 c 1
 -355 915 -314 877 -314 822 c 0
 -314 767 -362 745 -362 745 c 1
 -328 734 -295 729 -264 729 c 0
 -124 729 -29 833 -22 908 c 1
 66 908 l 17
-402 780 m 0
 -372 780 -358 803 -358 826 c 0
 -358 848 -372 871 -402 871 c 0
 -433 871 -448 848 -448 826 c 0
 -448 803 -433 780 -402 780 c 0
EndSplineSet
Fore
Refer: 176 3633 N 1 0 0 1 -173 0 2
Layer: 2
Refer: 176 3633 N 1 0 0 1 -173 0 2
EndChar

StartChar: uni0E4D.left
Encoding: 63249 63249 120
Width: 0
Flags: W
HStem: 668 43<-355.306 -273.965> 813 46<-355.306 -273.466>
VStem: -410 45<720.629 804.004> -264 45<720.768 804.215>
LayerCount: 3
Back
SplineSet
-350 676 m 0
 -412 676 -444 723 -444 770 c 0
 -444 816 -412 863 -350 863 c 0
 -288 863 -257 816 -257 769 c 0
 -257 722 -287 676 -350 676 c 0
-350 717 m 0
 -316 717 -298 743 -298 768 c 0
 -298 794 -316 820 -350 820 c 0
 -386 820 -403 794 -403 768 c 0
 -403 743 -386 717 -350 717 c 0
EndSplineSet
Fore
Refer: 202 3661 N 1 0 0 1 -173 0 2
Layer: 2
Refer: 202 3661 N 1 0 0 1 -173 0 2
EndChar

StartChar: uni0E47.left
Encoding: 63250 63250 121
Width: 0
Flags: W
HStem: 668 44<-358.776 -284.832> 757 57<-533.537 -455.329> 795 39<-358.068 -286.264> 886 52<-499.613 -315.643> 898 49<-562.404 -382.119>
VStem: -639 59<762.957 879.444> -399 35<739.349 787.674> -302 78<953.413 1028> -280 39<718.059 789.222>
LayerCount: 3
Back
SplineSet
-235 995 m 17xd8
 -235 895 -284 837 -442 868 c 0
 -508 880 -553 882 -564 822 c 0
 -570 794 -561 763 -553 753 c 1
 -553 753 -544 800 -492 800 c 0xd8
 -439 800 -416 746 -390 734 c 1
 -390 734 -393 740 -393 748 c 0
 -393 796 -357 820 -321 820 c 0xb8
 -284 820 -247 795 -247 745 c 0
 -247 693 -287 668 -319 668 c 0
 -419 668 -433 745 -484 745 c 0
 -536 745 -528 684 -515 668 c 1
 -551 668 l 1
 -593 702 -627 773 -608 846 c 0
 -598 891 -553 952 -427 923 c 0
 -344 905 -301 911 -306 995 c 1
 -235 995 l 17xd8
-283 745 m 0
 -283 771 -302 784 -321 784 c 0xb8
 -340 784 -359 771 -359 745 c 0
 -359 720 -340 708 -321 708 c 0
 -302 708 -283 720 -283 745 c 0
EndSplineSet
Fore
Refer: 196 3655 N 1 0 0 1 -149 0 2
Layer: 2
Refer: 196 3655 N 1 0 0 1 -149 0 2
EndChar

StartChar: uni0E48.left
Encoding: 63251 63251 122
Width: 0
Flags: W
HStem: 1009 201<-343 -289>
VStem: -343 54<1009 1126.25>
LayerCount: 3
Back
SplineSet
-276 1226 m 1
 -289 1006 l 1
 -343 1006 l 1
 -355 1226 l 1
 -276 1226 l 1
EndSplineSet
Fore
Refer: 197 3656 N 1 0 0 1 -177 0 2
Validated: 1
Layer: 2
Refer: 197 3656 N 1 0 0 1 -177 0 2
EndChar

StartChar: uni0E49.left
Encoding: 63252 63252 123
Width: 0
Flags: W
HStem: 1063 37<-496.419 -443.513> 1184 34<-495.465 -424.771>
VStem: -539 35<1108.69 1175.34> -417 38<1107.14 1177.24> -208 80<1140.47 1213>
LayerCount: 3
Back
SplineSet
-77 1229 m 17
 -104 1052 -252 975 -436 997 c 1
 -436 1026 l 1
 -410 1034 -379 1049 -362 1081 c 1
 -362 1081 -370 1078 -375 1078 c 0
 -428 1078 -454 1116 -454 1154 c 0
 -454 1191 -428 1229 -375 1229 c 0
 -296 1229 -295 1154 -295 1154 c 1
 -295 1072 -352 1035 -352 1035 c 1
 -352 1032 l 1
 -244 1038 -161 1098 -152 1229 c 1
 -77 1229 l 17
-375 1111 m 0
 -347 1111 -333 1132 -333 1153 c 0
 -333 1174 -347 1195 -375 1195 c 0
 -405 1195 -420 1174 -420 1153 c 0
 -420 1132 -405 1111 -375 1111 c 0
EndSplineSet
Fore
Refer: 198 3657 N 1 0 0 1 -262 0 2
Layer: 2
Refer: 198 3657 N 1 0 0 1 -262 0 2
EndChar

StartChar: uni0E4A.left
Encoding: 63253 63253 124
Width: 0
Flags: W
HStem: 989 29<-422.587 -362.532> 1093 30<-422.406 -362.642> 1172 54<-431.025 -390>
VStem: -492 42<1069.18 1152.91> -355 31<1024.68 1085.67> -239 48<1051.68 1160.57> -146 59<1105.77 1229>
LayerCount: 3
Back
SplineSet
-80 1229 m 17
 -72 1091 -149 1012 -270 995 c 1
 -270 1020 l 1
 -244 1036 -231 1070 -231 1101 c 0
 -231 1135 -246 1168 -272 1175 c 1
 -329 1137 l 1
 -382 1175 l 1
 -419 1175 -447 1132 -441 1094 c 1
 -441 1094 -432 1126 -382 1126 c 0
 -344 1126 -316 1095 -316 1063 c 0
 -316 1023 -339 994 -382 994 c 0
 -445 994 -484 1046 -484 1118 c 0
 -484 1169 -435 1229 -382 1229 c 1
 -382 1229 -327 1185 -327 1183 c 1
 -273 1229 l 1
 -203 1211 -183 1166 -183 1124 c 0
 -183 1097 -191 1071 -200 1054 c 1
 -143 1092 -127 1157 -144 1229 c 1
 -80 1229 l 17
-347 1058 m 0
 -347 1084 -366 1096 -384 1096 c 0
 -403 1096 -422 1084 -422 1058 c 0
 -422 1034 -403 1023 -384 1023 c 0
 -366 1023 -347 1034 -347 1058 c 0
EndSplineSet
Fore
Refer: 199 3658 N 1 0 0 1 -209 0 2
Layer: 2
Refer: 199 3658 N 1 0 0 1 -209 0 2
EndChar

StartChar: uni0E4B.left
Encoding: 63254 63254 125
Width: 0
Flags: W
HStem: 1081 57<-452 -346 -283 -180>
VStem: -345 60<992 1080 1140 1229>
LayerCount: 3
Back
SplineSet
-180 1081 m 1
 -284 1080 l 1
 -286 992 l 1
 -343 992 l 1
 -344 1080 l 1
 -452 1081 l 1
 -452 1138 l 1
 -346 1140 l 1
 -347 1229 l 1
 -281 1229 l 1
 -283 1140 l 1
 -180 1138 l 1
 -180 1081 l 1
EndSplineSet
Fore
Refer: 200 3659 N 1 0 0 1 -171 0 2
Validated: 1
Layer: 2
Refer: 200 3659 N 1 0 0 1 -171 0 2
EndChar

StartChar: uni0E4C.left
Encoding: 63255 63255 126
Width: 0
Flags: W
HStem: 902 29<-349.727 -284.481>
VStem: -394 35<938.379 1006.55> -275 33<939.555 1005.93>
LayerCount: 3
Back
SplineSet
-100 1164 m 17
 -128 1085 -222 1069 -281 1060 c 1
 -254 1048 -241 1023 -241 997 c 0
 -241 960 -267 923 -315 923 c 0
 -364 923 -393 954 -393 997 c 0
 -393 1057 -346 1091 -275 1103 c 0
 -249 1107 -166 1140 -163 1193 c 1
 -100 1164 l 17
-316 952 m 0
 -288 952 -274 973 -274 994 c 0
 -274 1014 -288 1035 -316 1035 c 0
 -344 1035 -358 1014 -358 994 c 0
 -358 973 -344 952 -316 952 c 0
EndSplineSet
Fore
Refer: 201 3660 N 1 0 0 1 -147 0 2
Layer: 2
Refer: 201 3660 N 1 0 0 1 -147 0 2
EndChar

StartChar: uni0E01
Encoding: 3585 3585 128
Width: 602
Flags: W
HStem: 0 21G<95 175 422 499> 392 44<97 129 180.719 267> 550 49<178.555 355.266>
VStem: 95 80<0 382.508> 422 77<0 485.938>
LayerCount: 3
Fore
SplineSet
499 0 m 1
 422 0 l 1
 422 407 l 2
 422 494 363 550 271 550 c 3
 189 550 116 502 97 436 c 1
 267 436 l 1
 267 392 l 1
 218 392 l 2
 190 392 175 374 175 341 c 2
 175 0 l 1
 95 0 l 1
 95 324 l 2
 95 353 109 381 129 392 c 1
 45 392 l 1
 45 511 147 599 285 599 c 3
 405 599 499 517 499 413 c 2
 499 0 l 1
EndSplineSet
Layer: 2
SplineSet
499 0 m 1,0,-1
 422 0 l 1,1,-1
 422 407 l 2,2,3
 422 472 422 472 381 511 c 128,-1,4
 340 550 340 550 271 550 c 0,5,6
 210 550 210 550 160.5 518 c 128,-1,7
 111 486 111 486 97 436 c 1,8,-1
 267 436 l 1,9,-1
 267 392 l 1,10,-1
 218 392 l 2,11,12
 175 392 175 392 175 341 c 2,13,-1
 175 0 l 1,14,-1
 95 0 l 1,15,-1
 95 324 l 2,16,17
 95 373 95 373 129 392 c 1,18,-1
 45 392 l 1,19,20
 45 481 45 481 113.5 540 c 128,-1,21
 182 599 182 599 285 599 c 0,22,23
 375 599 375 599 437 545 c 128,-1,24
 499 491 499 491 499 413 c 2,25,-1
 499 0 l 1,0,-1
EndSplineSet
EndChar

StartChar: uni0E02
Encoding: 3586 3586 129
Width: 585
Flags: W
HStem: -8 43<321.316 396.29> 319 33<87.8534 155.181> 438 34<87.1966 155.74> 547 51<100.965 209.542>
VStem: 27 44<453 517.329> 164 35<360.236 429.829> 235 80<43.2103 522.889> 404 78<43.7604 530>
LayerCount: 3
Fore
SplineSet
27 450 m 3
 27 539 84 598 170 598 c 3
 257 598 315 538 315 449 c 2
 315 78 l 2
 315 55 335 35 359 35 c 3
 382 35 404 56 404 77 c 2
 404 530 l 1
 453 588 l 2
 457 592 462 594 466 594 c 0
 476 594 482 584 482 567 c 2
 482 106 l 18
 482 36 435 -8 359 -8 c 3
 288 -8 235 40 235 106 c 2
 235 453 l 2
 235 510 205 547 160 547 c 3
 106 547 72 511 71 453 c 1
 90 469 99 472 121 472 c 3
 166 472 199 440 199 396 c 3
 199 352 167 319 123 319 c 3
 65 319 27 370 27 450 c 3
121 352 m 3
 146 352 164 370 164 395 c 3
 164 420 146 438 121 438 c 3
 97 438 79 420 79 395 c 3
 79 370 97 352 121 352 c 3
EndSplineSet
Layer: 2
SplineSet
27 450 m 0,0,1
 27 517 27 517 66.5 557.5 c 128,-1,2
 106 598 106 598 170 598 c 0,3,4
 235 598 235 598 275 557 c 128,-1,5
 315 516 315 516 315 449 c 2,6,-1
 315 78 l 2,7,8
 315 61 315 61 328 48 c 128,-1,9
 341 35 341 35 359 35 c 0,10,11
 376 35 376 35 390 48 c 128,-1,12
 404 61 404 61 404 77 c 2,13,-1
 404 530 l 1,14,-1
 453 588 l 2,15,16
 459 594 459 594 466 594 c 0,17,18
 482 594 482 594 482 567 c 2,19,-1
 482 106 l 2,20,21
 482 53 482 53 449 22.5 c 128,-1,22
 416 -8 416 -8 359 -8 c 0,23,24
 306 -8 306 -8 270.5 24.5 c 128,-1,25
 235 57 235 57 235 106 c 2,26,-1
 235 453 l 2,27,28
 235 496 235 496 214.5 521.5 c 128,-1,29
 194 547 194 547 160 547 c 0,30,31
 120 547 120 547 96 522 c 128,-1,32
 72 497 72 497 71 453 c 1,33,34
 94 472 94 472 121 472 c 0,35,36
 155 472 155 472 177 450.5 c 128,-1,37
 199 429 199 429 199 396 c 128,-1,38
 199 363 199 363 177.5 341 c 128,-1,39
 156 319 156 319 123 319 c 0,40,41
 79 319 79 319 53 354.5 c 128,-1,42
 27 390 27 390 27 450 c 0,0,1
121 352 m 0,43,44
 140 352 140 352 152 364 c 128,-1,45
 164 376 164 376 164 395 c 128,-1,46
 164 414 164 414 152 426 c 128,-1,47
 140 438 140 438 121 438 c 0,48,49
 103 438 103 438 91 426 c 128,-1,50
 79 414 79 414 79 395 c 128,-1,51
 79 376 79 376 91 364 c 128,-1,52
 103 352 103 352 121 352 c 0,43,44
EndSplineSet
EndChar

StartChar: uni0E03
Encoding: 3587 3587 130
Width: 634
Flags: W
HStem: -8 43<368.824 444.689> 280 32<83.6376 152.051> 399 34<81.6815 153.271> 452 21G<164.556 204.278> 573 21G<83.5 131.949 513.5 520.5>
VStem: 19 47<369.945 510.888> 162 32<322.019 389.581> 283 79<41.8047 521.73> 452 78<41.6654 530>
DStem2: 114 593 114 524 0.66791 -0.744242<42.4353 104.805> 184 515 184 452 0.697617 0.716471<0 62.0789>
LayerCount: 3
Fore
SplineSet
530 106 m 2
 530 36 483 -8 407 -8 c 3
 338 -8 283 42 283 106 c 2
 283 461 l 2
 283 504 275 524 257 524 c 1
 184 452 l 1
 114 524 l 1
 85 524 66 490 66 440 c 3
 66 433 66 427 68 413 c 1
 76 425 96 433 117 433 c 3
 162 433 194 402 194 357 c 3
 194 312 161 280 115 280 c 3
 55 280 19 335 19 426 c 3
 19 515 53 575 114 593 c 1
 184 515 l 1
 258 591 l 1
 323 587 362 538 362 461 c 2
 362 78 l 2
 362 54 381 35 407 35 c 3
 431 35 452 54 452 77 c 2
 452 530 l 1
 501 588 l 2
 504 591 511 594 516 594 c 3
 525 594 530 584 530 567 c 2
 530 106 l 2
117 312 m 3
 143 312 162 330 162 356 c 3
 162 381 143 399 117 399 c 3
 91 399 74 382 74 356 c 3
 74 331 92 312 117 312 c 3
EndSplineSet
Layer: 2
SplineSet
530 106 m 2,0,1
 530 53 530 53 497 22.5 c 128,-1,2
 464 -8 464 -8 407 -8 c 0,3,4
 355 -8 355 -8 319 25 c 128,-1,5
 283 58 283 58 283 106 c 2,6,-1
 283 461 l 2,7,8
 283 524 283 524 257 524 c 1,9,-1
 184 452 l 1,10,-1
 114 524 l 1,11,12
 92 524 92 524 79 501 c 128,-1,13
 66 478 66 478 66 440 c 0,14,15
 66 427 66 427 68 413 c 1,16,17
 81 433 81 433 117 433 c 0,18,19
 151 433 151 433 172.5 412 c 128,-1,20
 194 391 194 391 194 357 c 128,-1,21
 194 323 194 323 172 301.5 c 128,-1,22
 150 280 150 280 115 280 c 0,23,24
 70 280 70 280 44.5 319 c 128,-1,25
 19 358 19 358 19 426 c 0,26,27
 19 493 19 493 43.5 536.5 c 128,-1,28
 68 580 68 580 114 593 c 1,29,-1
 184 515 l 1,30,-1
 258 591 l 1,31,32
 307 588 307 588 334.5 553.5 c 128,-1,33
 362 519 362 519 362 461 c 2,34,-1
 362 78 l 2,35,36
 362 60 362 60 375 47.5 c 128,-1,37
 388 35 388 35 407 35 c 0,38,39
 425 35 425 35 438.5 47.5 c 128,-1,40
 452 60 452 60 452 77 c 2,41,-1
 452 530 l 1,42,-1
 501 588 l 2,43,44
 507 594 507 594 516 594 c 0,45,46
 530 594 530 594 530 567 c 2,47,-1
 530 106 l 2,0,1
117 312 m 0,48,49
 137 312 137 312 149.5 324.5 c 128,-1,50
 162 337 162 337 162 356 c 128,-1,51
 162 375 162 375 149.5 387 c 128,-1,52
 137 399 137 399 117 399 c 0,53,54
 98 399 98 399 86 387.5 c 128,-1,55
 74 376 74 376 74 356 c 0,56,57
 74 337 74 337 86 324.5 c 128,-1,58
 98 312 98 312 117 312 c 0,48,49
EndSplineSet
EndChar

StartChar: uni0E04
Encoding: 3588 3588 131
Width: 589
Flags: W
HStem: 0 21G<101 180 412 488> 273 36<216.239 294.653> 407 37<216.452 295.349> 553 46<162.751 346.261>
VStem: 35 46<337.816 478.063> 101 79<0 276.883> 306 34<320.628 395.331> 412 76<0 490.914>
LayerCount: 3
Fore
SplineSet
255 309 m 3
 285 309 306 330 306 358 c 3
 306 386 285 407 255 407 c 3
 226 407 206 387 206 358 c 3
 206 329 226 309 255 309 c 3
124 321 m 1
 140 399 186 444 252 444 c 3
 303 444 340 409 340 359 c 3
 340 309 303 273 250 273 c 3
 228 273 203 285 190 301 c 1
 183 287 180 263 180 229 c 2
 180 0 l 1
 101 0 l 1
 101 224 l 2
 101 238 96 249 79 277 c 0
 46 332 35 366 35 413 c 3
 35 518 128 599 247 599 c 3
 404 599 488 530 488 401 c 2
 488 0 l 1
 412 0 l 1
 412 401 l 2
 412 503 357 553 246 553 c 3
 158 553 81 487 81 413 c 3
 81 367 96 334 124 321 c 1
EndSplineSet
Layer: 2
SplineSet
255 309 m 128,-1,1
 277 309 277 309 291.5 323 c 128,-1,2
 306 337 306 337 306 358 c 128,-1,3
 306 379 306 379 291.5 393 c 128,-1,4
 277 407 277 407 255 407 c 128,-1,5
 233 407 233 407 219.5 393.5 c 128,-1,6
 206 380 206 380 206 358 c 128,-1,7
 206 336 206 336 219.5 322.5 c 128,-1,0
 233 309 233 309 255 309 c 128,-1,1
124 321 m 1,8,9
 136 380 136 380 169.5 412 c 128,-1,10
 203 444 203 444 252 444 c 0,11,12
 290 444 290 444 315 420 c 128,-1,13
 340 396 340 396 340 359 c 0,14,15
 340 321 340 321 315 297 c 128,-1,16
 290 273 290 273 250 273 c 0,17,18
 213 273 213 273 190 301 c 1,19,20
 180 281 180 281 180 229 c 2,21,-1
 180 0 l 1,22,-1
 101 0 l 1,23,-1
 101 224 l 2,24,25
 101 241 101 241 79 277 c 0,26,27
 35 350 35 350 35 413 c 0,28,29
 35 492 35 492 96.5 545.5 c 128,-1,30
 158 599 158 599 247 599 c 0,31,32
 365 599 365 599 426.5 548.5 c 128,-1,33
 488 498 488 498 488 401 c 2,34,-1
 488 0 l 1,35,-1
 412 0 l 1,36,-1
 412 401 l 2,37,38
 412 553 412 553 246 553 c 0,39,40
 180 553 180 553 130.5 511 c 128,-1,41
 81 469 81 469 81 413 c 0,42,43
 81 341 81 341 124 321 c 1,8,9
EndSplineSet
EndChar

StartChar: uni0E05
Encoding: 3589 3589 132
Width: 588
Flags: W
HStem: 0 21G<101 180 410 487> 273 36<216.151 294.653> 407 37<216.98 295.349> 574 20G<129.5 195.143 319.429 387.5>
VStem: 35 48<338.699 485.417> 101 79<0 281.242> 306 34<320.628 395.331> 410 77<0 498.993>
DStem2: 170 594 166 538 0.795829 -0.605522<19.1578 112.419> 258 524 258 468 0.786012 0.618212<0 86.8446>
LayerCount: 3
Fore
SplineSet
487 0 m 1
 410 0 l 1
 410 399 l 2
 410 485 398 512 347 538 c 1
 258 468 l 1
 166 538 l 1
 121 525 83 468 83 413 c 3
 83 369 98 336 126 321 c 1
 141 405 181 444 252 444 c 3
 303 444 340 409 340 359 c 3
 340 309 303 273 250 273 c 3
 229 273 207 282 195 295 c 1
 185 288 180 270 180 240 c 2
 180 0 l 1
 101 0 l 1
 101 229 l 2
 101 243 96 254 78 284 c 0
 46 337 35 369 35 413 c 3
 35 497 89 570 170 594 c 1
 258 524 l 1
 344 594 l 1
 431 580 487 503 487 399 c 2
 487 0 l 1
255 309 m 3
 285 309 306 330 306 358 c 3
 306 386 285 407 255 407 c 3
 226 407 206 387 206 358 c 3
 206 329 226 309 255 309 c 3
EndSplineSet
Layer: 2
SplineSet
487 0 m 1,0,-1
 410 0 l 1,1,-1
 410 399 l 2,2,3
 410 464 410 464 397.5 491.5 c 128,-1,4
 385 519 385 519 347 538 c 1,5,-1
 258 468 l 1,6,-1
 166 538 l 1,7,8
 132 528 132 528 107.5 491 c 128,-1,9
 83 454 83 454 83 413 c 0,10,11
 83 344 83 344 126 321 c 1,12,13
 148 444 148 444 252 444 c 0,14,15
 290 444 290 444 315 420 c 128,-1,16
 340 396 340 396 340 359 c 0,17,18
 340 321 340 321 315 297 c 128,-1,19
 290 273 290 273 250 273 c 0,20,21
 215 273 215 273 195 295 c 1,22,23
 180 284 180 284 180 240 c 2,24,-1
 180 0 l 1,25,-1
 101 0 l 1,26,-1
 101 229 l 2,27,28
 101 246 101 246 78 284 c 0,29,30
 35 355 35 355 35 413 c 0,31,32
 35 476 35 476 72 526 c 128,-1,33
 109 576 109 576 170 594 c 1,34,-1
 258 524 l 1,35,-1
 344 594 l 1,36,37
 409 584 409 584 448 530.5 c 128,-1,38
 487 477 487 477 487 399 c 2,39,-1
 487 0 l 1,0,-1
255 309 m 128,-1,41
 277 309 277 309 291.5 323 c 128,-1,42
 306 337 306 337 306 358 c 128,-1,43
 306 379 306 379 291.5 393 c 128,-1,44
 277 407 277 407 255 407 c 128,-1,45
 233 407 233 407 219.5 393.5 c 128,-1,46
 206 380 206 380 206 358 c 128,-1,47
 206 336 206 336 219.5 322.5 c 128,-1,40
 233 309 233 309 255 309 c 128,-1,41
EndSplineSet
EndChar

StartChar: uni0E06
Encoding: 3590 3590 133
Width: 757
Flags: W
HStem: -8 53<235.506 286.971> 0 21G<547 651> 141 49<369 440.268> 144 54<238.738 287> 280 32<88.2024 155.689> 399 34<86.8837 156.744> 452 21G<169.278 209> 573 21G<87.5 136.205 635 643>
VStem: 23 48<369.737 511.219> 166 33<322.019 389.581> 184 46<48.1988 134.756> 287 80<45.9124 141 198 521.73> 574 77<77 530>
DStem2: 118 593 118 524 0.673145 -0.739511<42.5566 105.475> 189 515 189 452 0.697617 0.716471<0 61.3579>
LayerCount: 3
Fore
SplineSet
230 90 m 3x9fb8
 230 64 244 45 264 45 c 3
 278 45 287 54 287 68 c 2
 287 144 l 1
 251 144 230 125 230 90 c 3x9fb8
287 461 m 2
 287 505 279 524 261 524 c 1
 189 452 l 1
 118 524 l 1
 90 524 71 489 71 437 c 3
 71 422 71 418 72 413 c 1
 80 425 100 433 121 433 c 3
 167 433 199 402 199 357 c 3
 199 312 166 280 120 280 c 3
 59 280 23 335 23 426 c 3
 23 515 57 575 118 593 c 1
 189 515 l 1
 263 591 l 1
 328 587 367 538 367 461 c 2
 367 190 l 1
 444 178 530 131 574 77 c 1
 574 530 l 1
 624 588 l 2
 627 592 632 594 638 594 c 3
 648 594 652 585 651 567 c 1
 651 0 l 1
 570 0 l 1
 524 79 440 137 369 141 c 1x6fd8
 369 117 l 2
 369 22 348 -8 284 -8 c 3
 224 -8 184 32 184 92 c 3
 184 154 227 198 287 198 c 1
 287 461 l 2
121 312 m 3
 147 312 166 330 166 356 c 3
 166 381 147 399 121 399 c 3
 96 399 79 382 79 356 c 3
 79 330 96 312 121 312 c 3
EndSplineSet
Layer: 2
SplineSet
230 90 m 0,0,1
 230 70 230 70 239.5 57.5 c 128,-1,2
 249 45 249 45 264 45 c 0,3,4
 287 45 287 45 287 68 c 2,5,-1
 287 144 l 1,6,7
 230 144 230 144 230 90 c 0,0,1
287 461 m 2,8,9
 287 524 287 524 261 524 c 1,10,-1
 189 452 l 1,11,-1
 118 524 l 1,12,13
 97 524 97 524 84 500 c 128,-1,14
 71 476 71 476 71 437 c 0,15,16
 71 418 71 418 72 413 c 1,17,18
 85 433 85 433 121 433 c 0,19,20
 156 433 156 433 177.5 412 c 128,-1,21
 199 391 199 391 199 357 c 128,-1,22
 199 323 199 323 177 301.5 c 128,-1,23
 155 280 155 280 120 280 c 0,24,25
 74 280 74 280 48.5 319 c 128,-1,26
 23 358 23 358 23 426 c 0,27,28
 23 493 23 493 47.5 536.5 c 128,-1,29
 72 580 72 580 118 593 c 1,30,-1
 189 515 l 1,31,-1
 263 591 l 1,32,33
 312 588 312 588 339.5 553.5 c 128,-1,34
 367 519 367 519 367 461 c 2,35,-1
 367 190 l 1,36,37
 425 181 425 181 483 149.5 c 128,-1,38
 541 118 541 118 574 77 c 1,39,-1
 574 530 l 1,40,-1
 624 588 l 2,41,42
 628 594 628 594 638 594 c 0,43,44
 652 594 652 594 651 567 c 2,45,-1
 651 0 l 1,46,-1
 570 0 l 1,47,48
 536 59 536 59 479.5 98.5 c 128,-1,49
 423 138 423 138 369 141 c 1,50,-1
 369 117 l 2,51,52
 369 46 369 46 350.5 19 c 128,-1,53
 332 -8 332 -8 284 -8 c 0,54,55
 239 -8 239 -8 211.5 19.5 c 128,-1,56
 184 47 184 47 184 92 c 0,57,58
 184 138 184 138 213 168 c 128,-1,59
 242 198 242 198 287 198 c 1,60,-1
 287 461 l 2,8,9
121 312 m 0,61,62
 141 312 141 312 153.5 324.5 c 128,-1,63
 166 337 166 337 166 356 c 128,-1,64
 166 375 166 375 153.5 387 c 128,-1,65
 141 399 141 399 121 399 c 0,66,67
 102 399 102 399 90.5 387 c 128,-1,68
 79 375 79 375 79 356 c 0,69,70
 79 336 79 336 90.5 324 c 128,-1,71
 102 312 102 312 121 312 c 0,61,62
EndSplineSet
EndChar

StartChar: uni0E07
Encoding: 3591 3591 134
Width: 479
Flags: W
HStem: 0 21G<276.487 378> 418 37<212.493 294.629> 556 38<211.841 294.675>
VStem: 163 38<465.468 545.109> 298 80<98 432> 306 72<463.898 546.298>
LayerCount: 3
Fore
SplineSet
378 0 m 1xf4
 295 0 l 1
 46 269 l 1
 48 326 l 1
 298 98 l 1
 298 432 l 1xf8
 290 422 278 418 257 418 c 3
 202 418 163 454 163 504 c 3
 163 557 205 594 264 594 c 3
 341 594 378 559 378 488 c 2
 378 0 l 1xf4
253 455 m 3
 284 455 306 476 306 506 c 3xf4
 306 535 284 556 253 556 c 3
 222 556 201 535 201 506 c 3
 201 476 222 455 253 455 c 3
EndSplineSet
Layer: 2
SplineSet
378 0 m 1,0,-1
 295 0 l 1,1,-1
 46 269 l 1,2,-1
 48 326 l 1,3,-1
 298 98 l 1,4,-1
 298 432 l 1,5,6
 287 418 287 418 257 418 c 0,7,8
 216 418 216 418 189.5 442 c 128,-1,9
 163 466 163 466 163 504 c 0,10,11
 163 544 163 544 191.5 569 c 128,-1,12
 220 594 220 594 264 594 c 0,13,14
 378 594 378 594 378 488 c 2,15,-1
 378 0 l 1,0,-1
253 455 m 128,-1,17
 276 455 276 455 291 469.5 c 128,-1,18
 306 484 306 484 306 506 c 128,-1,19
 306 528 306 528 291 542 c 128,-1,20
 276 556 276 556 253 556 c 128,-1,21
 230 556 230 556 215.5 542 c 128,-1,22
 201 528 201 528 201 506 c 0,23,24
 201 483 201 483 215.5 469 c 128,-1,16
 230 455 230 455 253 455 c 128,-1,17
EndSplineSet
EndChar

StartChar: uni0E08
Encoding: 3592 3592 135
Width: 565
Flags: W
HStem: -5 43<299.114 375.463> 276 40<140.219 214.519> 406 41<139.82 215.811> 544 54<153.497 325.453>
VStem: 94 39<323.775 398.785> 215 78<46.123 286> 223 70<321.496 399.327> 382 80<44.4404 488.57>
LayerCount: 3
Fore
SplineSet
94 363 m 3xfd
 94 412 132 447 184 447 c 3
 256 447 293 416 293 355 c 2xfb
 293 81 l 2
 293 57 313 38 338 38 c 3
 363 38 382 57 382 80 c 2
 382 419 l 2
 382 493 326 544 243 544 c 3
 166 544 99 504 65 439 c 1
 32 453 l 1
 65 535 156 598 243 598 c 3
 380 598 462 529 462 413 c 2
 462 109 l 2
 462 39 414 -5 338 -5 c 3
 272 -5 215 48 215 109 c 2
 215 286 l 1
 201 279 190 276 178 276 c 3
 130 276 94 313 94 363 c 3xfd
178 316 m 3
 205 316 223 334 223 361 c 3
 223 388 205 406 178 406 c 3
 151 406 133 388 133 361 c 3
 133 334 151 316 178 316 c 3
EndSplineSet
Layer: 2
SplineSet
94 363 m 128,-1,1
 94 400 94 400 119.5 423.5 c 128,-1,2
 145 447 145 447 184 447 c 0,3,4
 293 447 293 447 293 355 c 2,5,-1
 293 81 l 2,6,7
 293 63 293 63 306 50.5 c 128,-1,8
 319 38 319 38 338 38 c 128,-1,9
 357 38 357 38 369.5 50.5 c 128,-1,10
 382 63 382 63 382 80 c 2,11,-1
 382 419 l 2,12,13
 382 475 382 475 343.5 509.5 c 128,-1,14
 305 544 305 544 243 544 c 0,15,16
 185 544 185 544 138 516 c 128,-1,17
 91 488 91 488 65 439 c 1,18,-1
 32 453 l 1,19,20
 57 515 57 515 117.5 556.5 c 128,-1,21
 178 598 178 598 243 598 c 0,22,23
 346 598 346 598 404 549 c 128,-1,24
 462 500 462 500 462 413 c 2,25,-1
 462 109 l 2,26,27
 462 57 462 57 428.5 26 c 128,-1,28
 395 -5 395 -5 338 -5 c 0,29,30
 289 -5 289 -5 252 29 c 128,-1,31
 215 63 215 63 215 109 c 2,32,-1
 215 286 l 1,33,34
 195 276 195 276 178 276 c 0,35,36
 142 276 142 276 118 301 c 128,-1,0
 94 326 94 326 94 363 c 128,-1,1
178 316 m 128,-1,38
 198 316 198 316 210.5 328.5 c 128,-1,39
 223 341 223 341 223 361 c 128,-1,40
 223 381 223 381 210.5 393.5 c 128,-1,41
 198 406 198 406 178 406 c 128,-1,42
 158 406 158 406 145.5 393.5 c 128,-1,43
 133 381 133 381 133 361 c 128,-1,44
 133 341 133 341 145.5 328.5 c 128,-1,37
 158 316 158 316 178 316 c 128,-1,38
EndSplineSet
EndChar

StartChar: uni0E09
Encoding: 3593 3593 136
Width: 615
Flags: W
HStem: -8 40<429.194 506.647> 0 21G<177 263.5> 233 39<100.472 174.202> 364 40<99.4741 174.57> 544 54<178.806 363.118>
VStem: 51 41<279.192 357.064> 177 76<0 42.8089 91 240 275.816 358.625> 384 38<39.6985 113.751> 432 78<170.17 480.774> 514 40<40.3729 112.892>
LayerCount: 3
Fore
SplineSet
467 -8 m 3xbfc0
 422 -8 384 30 384 76 c 3
 384 93 391 114 401 127 c 1
 332 114 275 65 252 0 c 1
 177 0 l 1x7fc0
 177 240 l 1
 163 235 150 233 137 233 c 3
 88 233 51 270 51 320 c 3
 51 372 88 404 150 404 c 3
 220 404 253 368 253 292 c 2
 253 91 l 1
 260 89 l 1
 283 134 355 168 432 172 c 1
 432 415 l 2
 432 491 365 544 270 544 c 3
 197 544 106 494 80 439 c 1
 48 453 l 1
 91 541 183 598 282 598 c 3
 415 598 510 522 510 416 c 2
 510 181 l 2
 510 174 504 167 495 164 c 1
 495 161 l 1
 530 153 554 119 554 78 c 3
 554 27 519 -8 467 -8 c 3xbfc0
137 272 m 3
 163 272 182 291 182 318 c 3
 182 345 163 364 137 364 c 3
 111 364 92 345 92 318 c 3
 92 291 111 272 137 272 c 3
467 32 m 3xbfc0
 494 32 514 50 514 76 c 3
 514 102 495 121 467 121 c 3
 440 121 422 103 422 76 c 3
 422 50 441 32 467 32 c 3xbfc0
EndSplineSet
Layer: 2
SplineSet
467 -8 m 0,0,1
 433 -8 433 -8 408.5 17 c 128,-1,2
 384 42 384 42 384 76 c 0,3,4
 384 105 384 105 401 127 c 1,5,6
 349 117 349 117 309 83 c 128,-1,7
 269 49 269 49 252 0 c 1,8,-1
 177 0 l 1,9,-1
 177 240 l 1,10,11
 157 233 157 233 137 233 c 0,12,13
 100 233 100 233 75.5 258 c 128,-1,14
 51 283 51 283 51 320 c 0,15,16
 51 359 51 359 77.5 381.5 c 128,-1,17
 104 404 104 404 150 404 c 0,18,19
 253 404 253 404 253 292 c 2,20,-1
 253 91 l 1,21,-1
 260 89 l 1,22,23
 277 123 277 123 325.5 146 c 128,-1,24
 374 169 374 169 432 172 c 1,25,-1
 432 415 l 2,26,27
 432 472 432 472 386.5 508 c 128,-1,28
 341 544 341 544 270 544 c 0,29,30
 215 544 215 544 157 512 c 128,-1,31
 99 480 99 480 80 439 c 1,32,-1
 48 453 l 1,33,34
 80 519 80 519 144 558.5 c 128,-1,35
 208 598 208 598 282 598 c 0,36,37
 382 598 382 598 446 547 c 128,-1,38
 510 496 510 496 510 416 c 2,39,-1
 510 181 l 2,40,41
 510 169 510 169 495 164 c 1,42,-1
 495 161 l 1,43,44
 521 155 521 155 537.5 132 c 128,-1,45
 554 109 554 109 554 78 c 0,46,47
 554 40 554 40 530 16 c 128,-1,48
 506 -8 506 -8 467 -8 c 0,0,1
137 272 m 128,-1,50
 157 272 157 272 169.5 285 c 128,-1,51
 182 298 182 298 182 318 c 128,-1,52
 182 338 182 338 169.5 351 c 128,-1,53
 157 364 157 364 137 364 c 128,-1,54
 117 364 117 364 104.5 351 c 128,-1,55
 92 338 92 338 92 318 c 128,-1,56
 92 298 92 298 104.5 285 c 128,-1,49
 117 272 117 272 137 272 c 128,-1,50
467 32 m 128,-1,58
 487 32 487 32 500.5 44.5 c 128,-1,59
 514 57 514 57 514 76 c 0,60,61
 514 96 514 96 501 108.5 c 128,-1,62
 488 121 488 121 467 121 c 0,63,64
 447 121 447 121 434.5 108.5 c 128,-1,65
 422 96 422 96 422 76 c 0,66,67
 422 57 422 57 434.5 44.5 c 128,-1,57
 447 32 447 32 467 32 c 128,-1,58
EndSplineSet
EndChar

StartChar: uni0E0A
Encoding: 3594 3594 137
Width: 583
Flags: W
HStem: 0 49<169 233 313 389.622> 319 33<86.0972 154.33> 398 52<313 379.842> 438 34<84.7925 154.631> 547 49<98.533 209.482>
VStem: 25 45<361.98 518.626> 163 34<360.671 429.643> 233 80<49 398 450 522.413> 423 68<89.5639 341.664> 452 86<531.199 591>
LayerCount: 3
Fore
SplineSet
25 447 m 3xdf80
 25 537 81 596 167 596 c 3
 254 596 313 537 313 450 c 1
 392 450 450 509 452 591 c 1
 538 591 l 17xef40
 518 507 461 436 399 421 c 1
 453 407 491 320 491 211 c 3
 491 85 442 0 370 -0 c 2
 169 0 l 1
 169 49 l 1
 233 49 l 1
 233 453 l 2
 233 514 205 547 152 547 c 3
 106 547 70 509 70 461 c 3
 70 455 70 453 71 450 c 1xef80
 82 465 98 472 123 472 c 3
 166 472 197 440 197 395 c 3
 197 351 166 319 123 319 c 3
 63 319 25 369 25 447 c 3xdf80
121 352 m 3
 145 352 163 370 163 395 c 3
 163 420 145 438 121 438 c 3xdf
 95 438 76 420 76 395 c 3
 76 370 95 352 121 352 c 3
367 387 m 0
 352 395 337 398 313 398 c 1
 313 49 l 1
 355 49 l 2
 395 49 423 118 423 215 c 3xef80
 423 301 401 369 367 387 c 0
EndSplineSet
Layer: 2
SplineSet
25 447 m 0,0,1
 25 515 25 515 64 555.5 c 128,-1,2
 103 596 103 596 167 596 c 0,3,4
 232 596 232 596 272.5 555.5 c 128,-1,5
 313 515 313 515 313 450 c 1,6,7
 372 450 372 450 411 489.5 c 128,-1,8
 450 529 450 529 452 591 c 1,9,-1
 538 591 l 1,10,11
 523 528 523 528 484 480 c 128,-1,12
 445 432 445 432 399 421 c 1,13,14
 439 411 439 411 465 352 c 128,-1,15
 491 293 491 293 491 211 c 0,16,17
 491 117 491 117 457.5 58.5 c 128,-1,18
 424 0 424 0 370 0 c 2,19,-1
 169 0 l 1,20,-1
 169 49 l 1,21,-1
 233 49 l 1,22,-1
 233 453 l 2,23,24
 233 547 233 547 152 547 c 0,25,26
 118 547 118 547 94 522 c 128,-1,27
 70 497 70 497 70 461 c 0,28,29
 70 453 70 453 71 450 c 1,30,31
 87 472 87 472 123 472 c 0,32,33
 155 472 155 472 176 450.5 c 128,-1,34
 197 429 197 429 197 395 c 0,35,36
 197 362 197 362 176 340.5 c 128,-1,37
 155 319 155 319 123 319 c 0,38,39
 78 319 78 319 51.5 353.5 c 128,-1,40
 25 388 25 388 25 447 c 0,0,1
121 352 m 0,41,42
 139 352 139 352 151 364 c 128,-1,43
 163 376 163 376 163 395 c 128,-1,44
 163 414 163 414 151 426 c 128,-1,45
 139 438 139 438 121 438 c 0,46,47
 101 438 101 438 88.5 426 c 128,-1,48
 76 414 76 414 76 395 c 128,-1,49
 76 376 76 376 88.5 364 c 128,-1,50
 101 352 101 352 121 352 c 0,41,42
367 387 m 0,51,52
 346 398 346 398 313 398 c 1,53,-1
 313 49 l 1,54,-1
 355 49 l 2,55,56
 385 49 385 49 404 95.5 c 128,-1,57
 423 142 423 142 423 215 c 0,58,59
 423 280 423 280 407.5 327 c 128,-1,60
 392 374 392 374 367 387 c 0,51,52
EndSplineSet
EndChar

StartChar: uni0E0B
Encoding: 3595 3595 138
Width: 649
Flags: W
HStem: 0 49<223 286 366 440.985> 280 32<88.2024 155.689> 399 51<366 429.677> 399 34<86.8837 156.744> 452 21G<169.278 209> 573 20G<87.5 136.205>
VStem: 23 48<369.76 510.998> 166 33<322.019 389.581> 286 80<49 399 450 521.777> 473 69<86.9196 337.147> 504 86<530.72 591>
DStem2: 118 593 118 524 0.673145 -0.739511<42.5566 105.475> 189 515 189 452 0.697617 0.716471<0 61.0397>
LayerCount: 3
Fore
SplineSet
421 386 m 0xefc0
 409 394 389 399 366 399 c 1
 366 49 l 1
 407 49 l 2
 446 49 473 116 473 213 c 3
 473 295 453 363 421 386 c 0xefc0
286 461 m 2
 286 506 279 524 261 524 c 1
 189 452 l 1
 118 524 l 1
 90 524 71 489 71 437 c 3
 71 425 71 419 72 413 c 1
 80 425 100 433 121 433 c 3xdfc0
 167 433 199 402 199 357 c 3
 199 312 166 280 120 280 c 3
 59 280 23 335 23 426 c 3
 23 514 57 575 118 593 c 1
 189 515 l 1
 263 591 l 1
 332 587 366 540 366 450 c 1
 446 450 500 505 504 591 c 1
 590 591 l 1xefa0
 574 512 516 442 452 422 c 1
 505 403 542 314 542 207 c 3
 542 83 494 0 422 -0 c 2
 223 0 l 1
 223 49 l 1
 286 49 l 1
 286 461 l 2
121 312 m 3
 147 312 166 330 166 356 c 3
 166 381 147 399 121 399 c 3
 96 399 79 382 79 356 c 3
 79 330 96 312 121 312 c 3
EndSplineSet
Layer: 2
SplineSet
421 386 m 0,0,1
 401 399 401 399 366 399 c 1,2,-1
 366 49 l 1,3,-1
 407 49 l 2,4,5
 436 49 436 49 454.5 94.5 c 128,-1,6
 473 140 473 140 473 213 c 0,7,8
 473 275 473 275 459 322 c 128,-1,9
 445 369 445 369 421 386 c 0,0,1
286 461 m 2,10,11
 286 524 286 524 261 524 c 1,12,-1
 189 452 l 1,13,-1
 118 524 l 1,14,15
 97 524 97 524 84 500 c 128,-1,16
 71 476 71 476 71 437 c 0,17,18
 71 419 71 419 72 413 c 1,19,20
 85 433 85 433 121 433 c 0,21,22
 156 433 156 433 177.5 412 c 128,-1,23
 199 391 199 391 199 357 c 128,-1,24
 199 323 199 323 177 301.5 c 128,-1,25
 155 280 155 280 120 280 c 0,26,27
 74 280 74 280 48.5 319 c 128,-1,28
 23 358 23 358 23 426 c 0,29,30
 23 492 23 492 47.5 536 c 128,-1,31
 72 580 72 580 118 593 c 1,32,-1
 189 515 l 1,33,-1
 263 591 l 1,34,35
 366 585 366 585 366 450 c 1,36,37
 426 450 426 450 463.5 488.5 c 128,-1,38
 501 527 501 527 504 591 c 1,39,-1
 590 591 l 1,40,41
 578 532 578 532 539 484.5 c 128,-1,42
 500 437 500 437 452 422 c 1,43,44
 492 408 492 408 517 347.5 c 128,-1,45
 542 287 542 287 542 207 c 0,46,47
 542 114 542 114 509 57 c 128,-1,48
 476 0 476 0 422 0 c 2,49,-1
 223 0 l 1,50,-1
 223 49 l 1,51,-1
 286 49 l 1,52,-1
 286 461 l 2,10,11
121 312 m 0,53,54
 141 312 141 312 153.5 324.5 c 128,-1,55
 166 337 166 337 166 356 c 128,-1,56
 166 375 166 375 153.5 387 c 128,-1,57
 141 399 141 399 121 399 c 0,58,59
 102 399 102 399 90.5 387 c 128,-1,60
 79 375 79 375 79 356 c 0,61,62
 79 336 79 336 90.5 324 c 128,-1,63
 102 312 102 312 121 312 c 0,53,54
EndSplineSet
EndChar

StartChar: uni0E0C
Encoding: 3596 3596 139
Width: 815
Flags: W
HStem: -8 39<160.36 235.573 377.32 449.281> 0 21G<625 710> 120 43<374.142 422 499 563.034> 392 44<97 129 180.719 267> 550 49<181.411 355.338>
VStem: 95 80<154 382.689> 95 57<37.5436 114.752> 244 40<38.8204 112.983> 333 36<40.6207 114.622> 422 77<35.3247 120 166 486.781> 633 77<0 50.6168 94 530>
LayerCount: 3
Fore
SplineSet
284 599 m 3xbde0
 406 599 499 519 499 413 c 2
 499 163 l 1
 556 155 611 126 633 94 c 1
 633 530 l 1
 680 588 l 2
 683 591 689 594 695 594 c 3
 705 594 710 585 710 567 c 2
 710 0 l 9
 631 0 l 17x7de0
 619 65 564 115 499 120 c 1
 499 25 478 -8 418 -8 c 3
 367 -8 333 27 333 78 c 3
 333 131 369 166 422 166 c 1
 422 407 l 2
 422 494 363 550 272 550 c 3
 190 550 116 502 97 436 c 1
 267 436 l 1
 267 392 l 1
 218 392 l 2
 190 392 175 374 175 342 c 2
 175 154 l 1xbde0
 185 157 195 158 205 158 c 3
 250 158 284 122 284 74 c 3
 284 25 249 -8 198 -8 c 3
 138 -8 95 41 95 109 c 2xbbe0
 95 324 l 2
 95 354 109 382 129 392 c 1
 45 392 l 1
 46 511 147 599 284 599 c 3xbde0
369 78 m 3
 369 54 384 35 402 35 c 3
 414 35 422 45 422 61 c 2
 422 126 l 1
 390 126 369 107 369 78 c 3
197 31 m 3xbbe0
 224 31 244 50 244 76 c 3
 244 102 224 121 197 121 c 3
 171 121 152 102 152 76 c 3
 152 50 171 31 197 31 c 3xbbe0
EndSplineSet
Layer: 2
SplineSet
284 599 m 0,0,1
 376 599 376 599 437.5 545.5 c 128,-1,2
 499 492 499 492 499 413 c 2,3,-1
 499 163 l 1,4,5
 541 157 541 157 578.5 137.5 c 128,-1,6
 616 118 616 118 633 94 c 1,7,-1
 633 530 l 1,8,-1
 680 588 l 2,9,10
 686 594 686 594 695 594 c 0,11,12
 710 594 710 594 710 567 c 2,13,-1
 710 0 l 1,14,-1
 631 0 l 1,15,16
 622 49 622 49 585 82.5 c 128,-1,17
 548 116 548 116 499 120 c 1,18,19
 499 49 499 49 481 20.5 c 128,-1,20
 463 -8 463 -8 418 -8 c 0,21,22
 380 -8 380 -8 356.5 16 c 128,-1,23
 333 40 333 40 333 78 c 0,24,25
 333 118 333 118 357.5 142 c 128,-1,26
 382 166 382 166 422 166 c 1,27,-1
 422 407 l 2,28,29
 422 472 422 472 381 511 c 128,-1,30
 340 550 340 550 272 550 c 0,31,32
 210 550 210 550 160.5 517.5 c 128,-1,33
 111 485 111 485 97 436 c 1,34,-1
 267 436 l 1,35,-1
 267 392 l 1,36,-1
 218 392 l 2,37,38
 175 392 175 392 175 342 c 2,39,-1
 175 154 l 1,40,41
 188 158 188 158 205 158 c 0,42,43
 239 158 239 158 261.5 134 c 128,-1,44
 284 110 284 110 284 74 c 0,45,46
 284 37 284 37 260 14.5 c 128,-1,47
 236 -8 236 -8 198 -8 c 0,48,49
 153 -8 153 -8 124 25 c 128,-1,50
 95 58 95 58 95 109 c 2,51,-1
 95 324 l 2,52,53
 95 346 95 346 104.5 365 c 128,-1,54
 114 384 114 384 129 392 c 1,55,-1
 45 392 l 1,56,57
 46 481 46 481 113.5 540 c 128,-1,58
 181 599 181 599 284 599 c 0,0,1
369 78 m 0,59,60
 369 60 369 60 378.5 47.5 c 128,-1,61
 388 35 388 35 402 35 c 0,62,63
 422 35 422 35 422 61 c 2,64,-1
 422 126 l 1,65,66
 398 126 398 126 383.5 113 c 128,-1,67
 369 100 369 100 369 78 c 0,59,60
197 31 m 0,68,69
 217 31 217 31 230.5 44 c 128,-1,70
 244 57 244 57 244 76 c 128,-1,71
 244 95 244 95 230.5 108 c 128,-1,72
 217 121 217 121 197 121 c 0,73,74
 178 121 178 121 165 108.5 c 128,-1,75
 152 96 152 96 152 76 c 128,-1,76
 152 56 152 56 165 43.5 c 128,-1,77
 178 31 178 31 197 31 c 0,68,69
EndSplineSet
EndChar

StartChar: uni0E0D
Encoding: 3597 3597 140
Width: 800
Flags: W
HStem: -230 32<470.273 583.079> -169 28<450.165 509.719> -66 28<449.961 510.36> -8 37<176.955 248.268 494.62 593.215> 121 41<175.529 251.705> 392 44<97 129 180.719 267> 547 51<171.925 337.267>
VStem: 95 80<154 382.689> 95 72<37.9747 115.504> 259 39<40.0698 112.547> 395 77<49.4533 489.09> 401 41<-156.159 -70.3335> 518 29<-133.008 -73.8149> 617 77<49.9646 530> 624 70<-164.184 -52>
LayerCount: 3
Fore
SplineSet
694 104 m 2xfe4c
 694 46 621 -8 542 -8 c 3
 460 -8 395 45 395 112 c 2
 395 407 l 2
 395 493 343 547 260 547 c 3
 182 547 113 500 97 436 c 1
 267 436 l 1
 267 392 l 1
 218 392 l 2
 190 392 175 374 175 342 c 2
 175 154 l 1xff6c
 191 159 205 162 217 162 c 3
 264 162 298 127 298 78 c 3
 298 30 260 -8 212 -8 c 3
 139 -8 95 36 95 109 c 2xfec8
 95 324 l 2
 95 354 109 382 129 392 c 1
 45 392 l 1
 49 512 142 598 270 598 c 3
 383 598 472 516 472 413 c 2
 472 101 l 2
 472 59 502 29 544 29 c 3
 587 29 617 59 617 100 c 2
 617 530 l 1xff6c
 665 588 l 2
 668 591 674 594 680 594 c 3
 690 594 694 585 694 567 c 2xfe4a
 694 104 l 2xfe4c
212 32 m 3
 240 32 259 50 259 76 c 3
 259 103 240 121 212 121 c 3
 185 121 167 103 167 76 c 3xfec8
 167 50 186 32 212 32 c 3
401 -117 m 3xfe5a
 401 -69 432 -38 482 -38 c 3
 522 -38 547 -65 547 -108 c 3
 547 -141 517 -169 482 -169 c 3
 469 -169 461 -166 445 -157 c 1
 460 -183 492 -198 533 -198 c 3
 583 -198 624 -156 624 -106 c 2
 624 -52 l 1
 694 -52 l 1
 694 -108 l 2
 694 -178 626 -230 533 -230 c 3
 455 -230 401 -184 401 -117 c 3xfe5a
518 -103 m 3
 518 -81 502 -66 480 -66 c 3
 458 -66 442 -81 442 -103 c 3
 442 -125 458 -141 480 -141 c 3
 502 -141 518 -125 518 -103 c 3
EndSplineSet
Layer: 2
SplineSet
694 104 m 2,0,1
 694 60 694 60 647.5 26 c 128,-1,2
 601 -8 601 -8 542 -8 c 0,3,4
 480 -8 480 -8 437.5 27 c 128,-1,5
 395 62 395 62 395 112 c 2,6,-1
 395 407 l 2,7,8
 395 472 395 472 358.5 509.5 c 128,-1,9
 322 547 322 547 260 547 c 0,10,11
 202 547 202 547 155.5 515.5 c 128,-1,12
 109 484 109 484 97 436 c 1,13,-1
 267 436 l 1,14,-1
 267 392 l 1,15,-1
 218 392 l 2,16,17
 175 392 175 392 175 342 c 2,18,-1
 175 154 l 1,19,20
 201 162 201 162 217 162 c 0,21,22
 252 162 252 162 275 138.5 c 128,-1,23
 298 115 298 115 298 78 c 0,24,25
 298 42 298 42 273 17 c 128,-1,26
 248 -8 248 -8 212 -8 c 0,27,28
 157 -8 157 -8 126 23 c 128,-1,29
 95 54 95 54 95 109 c 2,30,-1
 95 324 l 2,31,32
 95 346 95 346 104.5 365 c 128,-1,33
 114 384 114 384 129 392 c 1,34,-1
 45 392 l 1,35,36
 48 482 48 482 111 540 c 128,-1,37
 174 598 174 598 270 598 c 0,38,39
 355 598 355 598 413.5 544 c 128,-1,40
 472 490 472 490 472 413 c 2,41,-1
 472 101 l 2,42,43
 472 70 472 70 492 49.5 c 128,-1,44
 512 29 512 29 544 29 c 128,-1,45
 576 29 576 29 596.5 49 c 128,-1,46
 617 69 617 69 617 100 c 2,47,-1
 617 530 l 1,48,-1
 665 588 l 2,49,50
 671 594 671 594 680 594 c 0,51,52
 694 594 694 594 694 567 c 2,53,-1
 694 104 l 2,0,1
212 32 m 0,54,55
 233 32 233 32 246 44 c 128,-1,56
 259 56 259 56 259 76 c 128,-1,57
 259 96 259 96 246 108.5 c 128,-1,58
 233 121 233 121 212 121 c 0,59,60
 192 121 192 121 179.5 108.5 c 128,-1,61
 167 96 167 96 167 76 c 0,62,63
 167 57 167 57 179.5 44.5 c 128,-1,64
 192 32 192 32 212 32 c 0,54,55
401 -117 m 0,65,66
 401 -81 401 -81 423 -59.5 c 128,-1,67
 445 -38 445 -38 482 -38 c 0,68,69
 512 -38 512 -38 529.5 -57 c 128,-1,70
 547 -76 547 -76 547 -108 c 0,71,72
 547 -133 547 -133 527.5 -151 c 128,-1,73
 508 -169 508 -169 482 -169 c 0,74,75
 466 -169 466 -169 445 -157 c 1,76,77
 469 -198 469 -198 533 -198 c 0,78,79
 570 -198 570 -198 597 -171 c 128,-1,80
 624 -144 624 -144 624 -106 c 2,81,-1
 624 -52 l 1,82,-1
 694 -52 l 1,83,-1
 694 -108 l 2,84,85
 694 -161 694 -161 648.5 -195.5 c 128,-1,86
 603 -230 603 -230 533 -230 c 0,87,88
 474 -230 474 -230 437.5 -198.5 c 128,-1,89
 401 -167 401 -167 401 -117 c 0,65,66
518 -103 m 0,90,91
 518 -87 518 -87 507.5 -76.5 c 128,-1,92
 497 -66 497 -66 480 -66 c 128,-1,93
 463 -66 463 -66 452.5 -76.5 c 128,-1,94
 442 -87 442 -87 442 -103 c 0,95,96
 442 -120 442 -120 453 -130.5 c 128,-1,97
 464 -141 464 -141 480 -141 c 128,-1,98
 496 -141 496 -141 507 -130.5 c 128,-1,99
 518 -120 518 -120 518 -103 c 0,90,91
EndSplineSet
Substitution2: "'ss01' Thai Style Set 1 Descenderless-1" uni0E0D.descless
Substitution2: "'ccmp' Pali-Sanskrit Descender Removal" uni0E0D.descless
Substitution2: "Thai Descender Removal Single Substitution" uni0E0D.descless
EndChar

StartChar: uni0E0E
Encoding: 3598 3598 141
Width: 612
Flags: W
HStem: -212 43<131.955 232.85> -83 43<132.81 262.231> -8 40<62.0435 138.09> 121 42<62.5697 104.955> 392 44<106 138 190.372 278> 550 49<189.561 365.249>
VStem: 16 39<39.969 113.303> 81 45<-161.995 -91.4682> 106 78<163 385.212> 145 39<40.2837 113.881> 432 78<-241 -200.996 -160 484.692>
AnchorPoint: "BelowBase" 510 -246 basechar 0
LayerCount: 3
Fore
SplineSet
510 -241 m 1xfea0
 432 -241 l 1
 424.008366858 -203.039742577 356.054516082 -134.024112883 304 -111 c 1
 284.832187944 -170.521100594 235.550327264 -212 184 -212 c 3
 120.761428899 -212 81 -178.801137035 81 -126 c 3xff60
 81 -76.8216097683 130.238199109 -40 196 -40 c 3
 222.166929548 -40 248.157978277 -45.0631913107 273 -55 c 1
 282.045640058 -24.8478664748 304.110216404 3.04508852877 326 12 c 1
 362 -5 l 1
 338.097609003 -21.9308602896 319.016430042 -47.9137422787 315 -69 c 1
 361.240443509 -84.7414275776 409.630024357 -122.377768237 432 -160 c 1
 432 407 l 2
 432 494.062923856 372.933576938 550 281 550 c 3
 197.574113206 550 124.903700261 502.66041671 106 436 c 1
 278 436 l 1
 278 392 l 1
 230 392 l 2
 201.068590113 392 184 373.076128353 184 341 c 2xfea0
 184 80 l 2xfe60
 184 27.8093772893 149.818321678 -8 100 -8 c 3
 50.7939392393 -8 16 27.2081528017 16 77 c 3
 16 129.830093284 50.7126930747 163 106 163 c 1
 106 332 l 2
 106 359.313242749 119.214421277 384.090282643 138 392 c 1
 54 392 l 1
 56.9925285399 513.696160624 154.659243188 599 291 599 c 3
 419.945317339 599 510 520.047949447 510 407 c 2
 510 -241 l 1xfea0
100 32 m 3
 126.296139692 32 145 50.2882189681 145 76 c 3
 145 103 127 121 100 121 c 3
 73 121 55 103 55 76 c 3
 55 50.2882189681 73.7038603083 32 100 32 c 3
263 -95 m 1
 241.929212617 -87.3378954969 215.178857052 -83 189 -83 c 3
 149.220647179 -83 126 -98.8490131541 126 -126 c 3
 126 -154.086271058 146.116192527 -169 184 -169 c 3
 219.054072807 -169 249.021547564 -140.929200861 263 -95 c 1
EndSplineSet
Layer: 2
SplineSet
510 -241 m 1,0,-1
 432 -241 l 1,1,2
 426 -213 426 -213 384.5 -170.5 c 128,-1,3
 343 -128 343 -128 304 -111 c 1,4,5
 290 -156 290 -156 256.5 -184 c 128,-1,6
 223 -212 223 -212 184 -212 c 0,7,8
 137 -212 137 -212 109 -189 c 128,-1,9
 81 -166 81 -166 81 -126 c 0,10,11
 81 -89 81 -89 114 -64.5 c 128,-1,12
 147 -40 147 -40 196 -40 c 0,13,14
 236 -40 236 -40 273 -55 c 1,15,16
 280 -32 280 -32 295 -13.5 c 128,-1,17
 310 5 310 5 326 12 c 1,18,-1
 362 -5 l 1,19,20
 322 -34 322 -34 315 -69 c 1,21,22
 350 -81 350 -81 382.5 -106.5 c 128,-1,23
 415 -132 415 -132 432 -160 c 1,24,-1
 432 407 l 2,25,26
 432 472 432 472 391 511 c 128,-1,27
 350 550 350 550 281 550 c 0,28,29
 218 550 218 550 169 518 c 128,-1,30
 120 486 120 486 106 436 c 1,31,-1
 278 436 l 1,32,-1
 278 392 l 1,33,-1
 230 392 l 2,34,35
 208 392 208 392 196 378.5 c 128,-1,36
 184 365 184 365 184 341 c 2,37,-1
 184 80 l 2,38,39
 184 41 184 41 160.5 16.5 c 128,-1,40
 137 -8 137 -8 100 -8 c 128,-1,41
 63 -8 63 -8 39.5 16 c 128,-1,42
 16 40 16 40 16 77 c 0,43,44
 16 117 16 117 40.5 140 c 128,-1,45
 65 163 65 163 106 163 c 1,46,-1
 106 332 l 2,47,48
 106 352 106 352 115 369 c 128,-1,49
 124 386 124 386 138 392 c 1,50,-1
 54 392 l 1,51,52
 56 483 56 483 122.5 541 c 128,-1,53
 189 599 189 599 291 599 c 0,54,55
 388 599 388 599 449 545.5 c 128,-1,56
 510 492 510 492 510 407 c 2,57,-1
 510 -241 l 1,0,-1
100 32 m 128,-1,59
 120 32 120 32 132.5 44.5 c 128,-1,60
 145 57 145 57 145 76 c 0,61,62
 145 96 145 96 132.5 108.5 c 128,-1,63
 120 121 120 121 100 121 c 128,-1,64
 80 121 80 121 67.5 108.5 c 128,-1,65
 55 96 55 96 55 76 c 0,66,67
 55 57 55 57 67.5 44.5 c 128,-1,58
 80 32 80 32 100 32 c 128,-1,59
263 -95 m 1,68,69
 230 -83 230 -83 189 -83 c 0,70,71
 126 -83 126 -83 126 -126 c 128,-1,72
 126 -169 126 -169 184 -169 c 0,73,74
 210 -169 210 -169 231.5 -149 c 128,-1,75
 253 -129 253 -129 263 -95 c 1,68,69
EndSplineSet
EndChar

StartChar: uni0E0F
Encoding: 3599 3599 142
Width: 612
Flags: W
HStem: -241 43<28.519 111.005> -163 48<299.807 400.866> -111 43<27.6436 136.515> -8 40<62.0288 138.093> 121 42<62.0438 104.955> 392 44<106 140 190.355 278> 550 49<189.741 365.275>
VStem: -22 44<-191.388 -118.67> 15 40<39.3453 114.042> 106 78<163 385.492> 145 39<40.3668 113.881> 224 46<-240 -194.731> 432 78<-241 -194.787 -155 484.672>
AnchorPoint: "BelowBase" 510 -246 basechar 0
LayerCount: 3
Fore
SplineSet
100 32 m 3xfeb8
 126 32 145 50 145 76 c 3
 145 103 127 121 100 121 c 3
 73 121 55 103 55 76 c 3
 55 50 74 32 100 32 c 3xfeb8
137 -129 m 1
 120 -117 100 -111 81 -111 c 3
 42 -111 22 -126 22 -154 c 3xff18
 22 -181 41 -198 71 -198 c 3
 100 -198 111 -187 137 -129 c 1
172 -157 m 1
 142 -219 113 -241 66 -241 c 3
 16 -241 -22 -204 -22 -155 c 3
 -22 -102 19 -68 81 -68 c 3
 106 -68 131 -75 155 -89 c 1
 171 -58 193 -38 223 -26 c 1
 252 -54 l 1
 226 -65 206 -85 192 -115 c 1
 218 -138 240 -165 249 -187 c 1
 268 -142 306 -115 349 -115 c 3
 381 -115 410 -129 432 -155 c 1
 432 407 l 2
 432 494 373 550 281 550 c 3
 198 550 125 503 106 436 c 1
 278 436 l 1
 278 392 l 1
 230 392 l 2
 201 392 184 373 184 341 c 2xff58
 184 80 l 2xfe38
 184 28 150 -8 100 -8 c 3
 51 -8 15 28 15 78 c 3
 15 131 50 163 106 163 c 1
 106 332 l 2xfed8
 106 361 120 386 140 392 c 1
 54 392 l 1
 57 514 155 599 291 599 c 3
 420 599 510 520 510 407 c 2
 510 -241 l 1
 436 -241 l 1
 418 -192 386 -163 349 -163 c 3
 313 -163 283 -192 270 -240 c 1
 224 -240 l 1
 220 -212 201 -182 172 -157 c 1
EndSplineSet
Layer: 2
SplineSet
100 32 m 128,-1,1
 120 32 120 32 132.5 44.5 c 128,-1,2
 145 57 145 57 145 76 c 0,3,4
 145 96 145 96 132.5 108.5 c 128,-1,5
 120 121 120 121 100 121 c 128,-1,6
 80 121 80 121 67.5 108.5 c 128,-1,7
 55 96 55 96 55 76 c 0,8,9
 55 57 55 57 67.5 44.5 c 128,-1,0
 80 32 80 32 100 32 c 128,-1,1
137 -129 m 1,10,11
 112 -111 112 -111 81 -111 c 0,12,13
 22 -111 22 -111 22 -154 c 0,14,15
 22 -174 22 -174 35 -186 c 128,-1,16
 48 -198 48 -198 71 -198 c 0,17,18
 93 -198 93 -198 105.5 -185 c 128,-1,19
 118 -172 118 -172 137 -129 c 1,10,11
172 -157 m 1,20,21
 150 -203 150 -203 125.5 -222 c 128,-1,22
 101 -241 101 -241 66 -241 c 0,23,24
 28 -241 28 -241 3 -216.5 c 128,-1,25
 -22 -192 -22 -192 -22 -155 c 0,26,27
 -22 -115 -22 -115 6 -91.5 c 128,-1,28
 34 -68 34 -68 81 -68 c 0,29,30
 119 -68 119 -68 155 -89 c 1,31,32
 178 -44 178 -44 223 -26 c 1,33,-1
 252 -54 l 1,34,35
 213 -71 213 -71 192 -115 c 1,36,37
 235 -153 235 -153 249 -187 c 1,38,39
 263 -153 263 -153 290 -134 c 128,-1,40
 317 -115 317 -115 349 -115 c 0,41,42
 398 -115 398 -115 432 -155 c 1,43,-1
 432 407 l 2,44,45
 432 472 432 472 391 511 c 128,-1,46
 350 550 350 550 281 550 c 0,47,48
 219 550 219 550 169.5 518 c 128,-1,49
 120 486 120 486 106 436 c 1,50,-1
 278 436 l 1,51,-1
 278 392 l 1,52,-1
 230 392 l 2,53,54
 208 392 208 392 196 378.5 c 128,-1,55
 184 365 184 365 184 341 c 2,56,-1
 184 80 l 2,57,58
 184 41 184 41 160.5 16.5 c 128,-1,59
 137 -8 137 -8 100 -8 c 128,-1,60
 63 -8 63 -8 39 16.5 c 128,-1,61
 15 41 15 41 15 78 c 0,62,63
 15 118 15 118 39.5 140.5 c 128,-1,64
 64 163 64 163 106 163 c 1,65,-1
 106 332 l 2,66,67
 106 354 106 354 115.5 371 c 128,-1,68
 125 388 125 388 140 392 c 1,69,-1
 54 392 l 1,70,71
 56 483 56 483 122.5 541 c 128,-1,72
 189 599 189 599 291 599 c 0,73,74
 388 599 388 599 449 545.5 c 128,-1,75
 510 492 510 492 510 407 c 2,76,-1
 510 -241 l 1,77,-1
 436 -241 l 1,78,79
 407 -163 407 -163 349 -163 c 0,80,81
 322 -163 322 -163 301 -183.5 c 128,-1,82
 280 -204 280 -204 270 -240 c 1,83,-1
 224 -240 l 1,84,85
 218 -196 218 -196 172 -157 c 1,20,21
EndSplineSet
EndChar

